<svg width="256" height="256" version="1.1" xmlns="http://www.w3.org/2000/svg" desc="Created with imagetracer.js version 1.2.6" ><path fill="rgb(0,0,0)" stroke="rgb(0,0,0)" stroke-width="1" opacity="0" d="M 0 0 L 61 0.5 L 57 3.5 L 56 5.5 L 56 20 L 27.5 20 L 23.5 21 Q 12.3 24.8 6 33.5 Q 1.6 38.6 0.5 47 L 0 0 Z " /><path fill="rgb(0,0,0)" stroke="rgb(0,0,0)" stroke-width="1" opacity="0" d="M 67.5 0 L 189 0.5 L 185 3.5 L 184 5.5 L 184 20 L 72.5 20 L 72 19.5 L 72 5.5 L 68.5 1 L 67.5 0 Z " /><path fill="rgb(0,0,0)" stroke="rgb(0,0,0)" stroke-width="1" opacity="0" d="M 195.5 0 L 256 0 L 256 46.5 L 255 46.5 Q 252.8 32.2 242.5 26 L 228.5 20 L 200 20 L 200 5.5 L 196.5 1 L 195.5 0 Z " /><path fill="rgb(0,0,0)" stroke="rgb(0,0,0)" stroke-width="1" opacity="0" d="M 29.5 36 L 56 36 L 56 46.5 L 59.5 51 L 66.5 52 L 71 48.5 L 72 46.5 L 72 36 L 183.5 36 L 184 36.5 L 184 46.5 L 187.5 51 L 194.5 52 L 199 48.5 L 200 46.5 L 200 36 L 226.5 36 Q 234.4 38.1 238 44.5 L 240 49.5 L 240 72 L 16.5 72 L 16 71.5 L 16 49.5 Q 18.1 41.6 24.5 38 L 29.5 36 Z " /><path fill="rgb(0,0,0)" stroke="rgb(0,0,0)" stroke-width="1" opacity="0" d="M 16 88 L 240 88 L 240 226.5 Q 237.9 234.4 231.5 238 L 226.5 240 L 29.5 240 Q 21.6 237.9 18 231.5 L 16 226.5 L 16 88 Z " /><path fill="rgb(0,0,0)" stroke="rgb(0,0,0)" stroke-width="1" opacity="0" d="M 0.5 229 Q 3.2 243.3 13.5 250 Q 18.6 254.4 27 255.5 L 0 256 L 0.5 229 Z " /><path fill="rgb(0,0,0)" stroke="rgb(0,0,0)" stroke-width="1" opacity="0" d="M 255.5 229 L 256 256 L 229 255.5 Q 243.3 252.8 250 242.5 Q 254.4 237.4 255.5 229 Z " /><path fill="rgb(0,0,0)" stroke="rgb(0,0,0)" stroke-width="1" opacity="0.9333333333333333" d="M 59.5 1 L 57.5 4 L 59.5 1 Z " /><path fill="rgb(0,0,0)" stroke="rgb(0,0,0)" stroke-width="1" opacity="0.9333333333333333" d="M 68.5 1 L 70.5 4 L 68.5 1 Z " /><path fill="rgb(0,0,0)" stroke="rgb(0,0,0)" stroke-width="1" opacity="0.9333333333333333" d="M 187.5 1 L 185.5 4 L 187.5 1 Z " /><path fill="rgb(0,0,0)" stroke="rgb(0,0,0)" stroke-width="1" opacity="0.9333333333333333" d="M 196.5 1 L 198.5 4 L 196.5 1 Z " /><path fill="rgb(0,0,0)" stroke="rgb(0,0,0)" stroke-width="1" opacity="0.9333333333333333" d="M 27.5 20 L 32 20.5 L 27.5 21 L 27.5 20 Z " /><path fill="rgb(0,0,0)" stroke="rgb(0,0,0)" stroke-width="1" opacity="0.9333333333333333" d="M 224.5 20 L 229 20.5 L 224.5 21 L 224.5 20 Z " /><path fill="rgb(0,0,0)" stroke="rgb(0,0,0)" stroke-width="1" opacity="0.9333333333333333" d="M 16.5 24 L 15.5 26 L 16.5 24 Z " /><path fill="rgb(0,0,0)" stroke="rgb(0,0,0)" stroke-width="1" opacity="0.9333333333333333" d="M 239.5 24 L 240.5 26 L 239.5 24 Z " /><path fill="rgb(0,0,0)" stroke="rgb(0,0,0)" stroke-width="1" opacity="0.9333333333333333" d="M 13.5 26 L 11.5 29 L 13.5 26 Z " /><path fill="rgb(0,0,0)" stroke="rgb(0,0,0)" stroke-width="1" opacity="0.9333333333333333" d="M 242.5 26 L 244.5 29 L 242.5 26 Z " /><path fill="rgb(0,0,0)" stroke="rgb(0,0,0)" stroke-width="1" opacity="0.9333333333333333" d="M 8.5 31 L 6.5 34 L 8.5 31 Z " /><path fill="rgb(0,0,0)" stroke="rgb(0,0,0)" stroke-width="1" opacity="0.9333333333333333" d="M 247.5 31 L 249.5 34 L 247.5 31 Z " /><path fill="rgb(0,0,0)" stroke="rgb(0,0,0)" stroke-width="1" opacity="0.9333333333333333" d="M 5.5 35 L 4.5 37 L 5.5 35 Z " /><path fill="rgb(0,0,0)" stroke="rgb(0,0,0)" stroke-width="1" opacity="0.9333333333333333" d="M 250.5 35 L 251.5 37 L 250.5 35 Z " /><path fill="rgb(0,0,0)" stroke="rgb(0,0,0)" stroke-width="1" opacity="0.9333333333333333" d="M 23.5 38 L 18.5 44 L 23.5 38 Z " /><path fill="rgb(0,0,0)" stroke="rgb(0,0,0)" stroke-width="1" opacity="0.9333333333333333" d="M 232.5 38 L 237.5 44 L 232.5 38 Z " /><path fill="rgb(0,0,0)" stroke="rgb(0,0,0)" stroke-width="1" opacity="0.9333333333333333" d="M 0.5 47 L 1 51.5 L 0 51.5 L 0.5 47 Z " /><path fill="rgb(0,0,0)" stroke="rgb(0,0,0)" stroke-width="1" opacity="0.9333333333333333" d="M 255.5 47 L 256 51.5 L 255 51.5 L 255.5 47 Z " /><path fill="rgb(0,0,0)" stroke="rgb(0,0,0)" stroke-width="1" opacity="0.9333333333333333" d="M 57.5 48 L 59.5 51 L 57.5 48 Z " /><path fill="rgb(0,0,0)" stroke="rgb(0,0,0)" stroke-width="1" opacity="0.9333333333333333" d="M 70.5 48 L 68.5 51 L 70.5 48 Z " /><path fill="rgb(0,0,0)" stroke="rgb(0,0,0)" stroke-width="1" opacity="0.9333333333333333" d="M 185.5 48 L 187.5 51 L 185.5 48 Z " /><path fill="rgb(0,0,0)" stroke="rgb(0,0,0)" stroke-width="1" opacity="0.9333333333333333" d="M 198.5 48 L 196.5 51 L 198.5 48 Z " /><path fill="rgb(0,0,0)" stroke="rgb(0,0,0)" stroke-width="1" opacity="0.9333333333333333" d="M 0.5 224 L 1 228.5 L 0 228.5 L 0.5 224 Z " /><path fill="rgb(0,0,0)" stroke="rgb(0,0,0)" stroke-width="1" opacity="0.9333333333333333" d="M 255.5 224 L 256 228.5 L 255 228.5 L 255.5 224 Z " /><path fill="rgb(0,0,0)" stroke="rgb(0,0,0)" stroke-width="1" opacity="0.9333333333333333" d="M 18.5 232 L 23.5 238 L 18.5 232 Z " /><path fill="rgb(0,0,0)" stroke="rgb(0,0,0)" stroke-width="1" opacity="0.9333333333333333" d="M 237.5 232 L 232.5 238 L 237.5 232 Z " /><path fill="rgb(0,0,0)" stroke="rgb(0,0,0)" stroke-width="1" opacity="0.9333333333333333" d="M 4.5 239 L 5.5 241 L 4.5 239 Z " /><path fill="rgb(0,0,0)" stroke="rgb(0,0,0)" stroke-width="1" opacity="0.9333333333333333" d="M 251.5 239 L 250.5 241 L 251.5 239 Z " /><path fill="rgb(0,0,0)" stroke="rgb(0,0,0)" stroke-width="1" opacity="0.9333333333333333" d="M 6.5 242 L 8.5 245 L 6.5 242 Z " /><path fill="rgb(0,0,0)" stroke="rgb(0,0,0)" stroke-width="1" opacity="0.9333333333333333" d="M 249.5 242 L 247.5 245 L 249.5 242 Z " /><path fill="rgb(0,0,0)" stroke="rgb(0,0,0)" stroke-width="1" opacity="0.9333333333333333" d="M 11.5 247 L 13.5 250 L 11.5 247 Z " /><path fill="rgb(0,0,0)" stroke="rgb(0,0,0)" stroke-width="1" opacity="0.9333333333333333" d="M 244.5 247 L 242.5 250 L 244.5 247 Z " /><path fill="rgb(0,0,0)" stroke="rgb(0,0,0)" stroke-width="1" opacity="0.9333333333333333" d="M 15.5 250 L 16.5 252 L 15.5 250 Z " /><path fill="rgb(0,0,0)" stroke="rgb(0,0,0)" stroke-width="1" opacity="0.9333333333333333" d="M 240.5 250 L 239.5 252 L 240.5 250 Z " /><path fill="rgb(0,0,0)" stroke="rgb(0,0,0)" stroke-width="1" opacity="0.9333333333333333" d="M 27.5 255 L 32 255.5 L 27.5 256 L 27.5 255 Z " /><path fill="rgb(0,0,0)" stroke="rgb(0,0,0)" stroke-width="1" opacity="0.9333333333333333" d="M 224.5 255 L 229 255.5 L 224.5 256 L 224.5 255 Z " /><path fill="rgb(0,0,0)" stroke="rgb(0,0,0)" stroke-width="1" opacity="0.996078431372549" d="M 61.5 1 L 58.5 5 L 61.5 1 Z " /><path fill="rgb(0,0,0)" stroke="rgb(0,0,0)" stroke-width="1" opacity="0.996078431372549" d="M 189.5 1 L 186.5 5 L 189.5 1 Z " /><path fill="rgb(0,0,0)" stroke="rgb(0,0,0)" stroke-width="1" opacity="0.996078431372549" d="M 67.5 2 L 69.5 5 L 67.5 2 Z " /><path fill="rgb(0,0,0)" stroke="rgb(0,0,0)" stroke-width="1" opacity="0.996078431372549" d="M 195.5 2 L 197.5 5 L 195.5 2 Z " /><path fill="rgb(0,0,0)" stroke="rgb(0,0,0)" stroke-width="1" opacity="0.996078431372549" d="M 56.5 7 L 57 21 L 32 20.5 L 56 20 L 56.5 7 Z " /><path fill="rgb(0,0,0)" stroke="rgb(0,0,0)" stroke-width="1" opacity="0.996078431372549" d="M 71.5 7 L 72 20 L 183.5 20 L 184 19.5 L 184 7.5 L 185 7.5 L 185 20.5 L 184.5 21 L 71 21 L 71.5 7 Z " /><path fill="rgb(0,0,0)" stroke="rgb(0,0,0)" stroke-width="1" opacity="0.996078431372549" d="M 199.5 7 L 200 20 L 224 20.5 L 199 21 L 199.5 7 Z " /><path fill="rgb(0,0,0)" stroke="rgb(0,0,0)" stroke-width="1" opacity="0.996078431372549" d="M 23.5 22 L 22.5 24 L 23.5 22 Z " /><path fill="rgb(0,0,0)" stroke="rgb(0,0,0)" stroke-width="1" opacity="0.996078431372549" d="M 19.5 23 L 20 24.5 Q 11.8 28.3 7 35.5 L 5.5 38 L 6 36.5 L 10.5 29 L 17 26 Q 15.9 23.3 18.5 24 L 19.5 23 Z " /><path fill="rgb(0,0,0)" stroke="rgb(0,0,0)" stroke-width="1" opacity="0.996078431372549" d="M 238.5 25 L 247 30.5 L 250 37 L 252 37.5 L 250.5 38 L 240.5 27 L 238.5 25 Z " /><path fill="rgb(0,0,0)" stroke="rgb(0,0,0)" stroke-width="1" opacity="0.996078431372549" d="M 26.5 35 L 25.5 37 L 18 42.5 L 15.5 47 L 16 45.5 Q 17.4 39.4 22.5 37 L 26.5 35 Z " /><path fill="rgb(0,0,0)" stroke="rgb(0,0,0)" stroke-width="1" opacity="0.996078431372549" d="M 31.5 35 L 57 35 L 57 44.5 L 56 44.5 L 56 36 L 31.5 36 L 31.5 35 Z " /><path fill="rgb(0,0,0)" stroke="rgb(0,0,0)" stroke-width="1" opacity="0.996078431372549" d="M 71 35 L 184.5 35 L 185 35.5 L 185 44.5 L 184 44.5 L 184 36.5 L 183.5 36 L 72 36 L 71.5 45 L 71 35 Z " /><path fill="rgb(0,0,0)" stroke="rgb(0,0,0)" stroke-width="1" opacity="0.996078431372549" d="M 199 35 L 225 35.5 L 200 36 L 199.5 45 L 199 35 Z " /><path fill="rgb(0,0,0)" stroke="rgb(0,0,0)" stroke-width="1" opacity="0.996078431372549" d="M 229.5 35 L 239 42.5 L 241 46.5 L 239 45.5 L 233.5 38 Q 229.5 37.5 229.5 35 Z " /><path fill="rgb(0,0,0)" stroke="rgb(0,0,0)" stroke-width="1" opacity="0.996078431372549" d="M 58.5 47 L 60.5 50 L 58.5 47 Z " /><path fill="rgb(0,0,0)" stroke="rgb(0,0,0)" stroke-width="1" opacity="0.996078431372549" d="M 69.5 47 L 66.5 51 L 69.5 47 Z " /><path fill="rgb(0,0,0)" stroke="rgb(0,0,0)" stroke-width="1" opacity="0.996078431372549" d="M 186.5 47 L 188.5 50 L 186.5 47 Z " /><path fill="rgb(0,0,0)" stroke="rgb(0,0,0)" stroke-width="1" opacity="0.996078431372549" d="M 197.5 47 L 194.5 51 L 197.5 47 Z " /><path fill="rgb(0,0,0)" stroke="rgb(0,0,0)" stroke-width="1" opacity="0.996078431372549" d="M 15.5 51 L 16 72 L 239.5 72 L 240 71.5 L 240 51.5 L 241 51.5 L 241 72.5 L 240.5 73 L 15 73 L 15.5 51 Z " /><path fill="rgb(0,0,0)" stroke="rgb(0,0,0)" stroke-width="1" opacity="0.996078431372549" d="M 15 87 L 241 87 L 241 224.5 L 240 224.5 L 240 88 L 16 88 L 15.5 225 L 15 87 Z " /><path fill="rgb(0,0,0)" stroke="rgb(0,0,0)" stroke-width="1" opacity="0.996078431372549" d="M 15.5 229 L 22.5 238 L 27 240.5 L 25.5 240 Q 19.4 238.6 17 233.5 L 15.5 229 Z " /><path fill="rgb(0,0,0)" stroke="rgb(0,0,0)" stroke-width="1" opacity="0.996078431372549" d="M 240.5 229 L 240 230.5 Q 238.6 236.6 233.5 239 L 229.5 241 L 230.5 239 L 238 233.5 L 240.5 229 Z " /><path fill="rgb(0,0,0)" stroke="rgb(0,0,0)" stroke-width="1" opacity="0.996078431372549" d="M 3.5 236 Q 5.8 235.3 5 237.5 L 15.5 249 L 18 250.5 L 16.5 250 L 11.5 246 Q 10.3 248.3 9 245.5 L 6 239 Q 3.3 240.1 4 237.5 L 3.5 236 Z " /><path fill="rgb(0,0,0)" stroke="rgb(0,0,0)" stroke-width="1" opacity="0.996078431372549" d="M 251.5 236 L 251 237.5 L 245.5 247 L 239 250 Q 240.1 252.7 237.5 252 L 236 252.5 Q 235.3 250.3 237.5 251 L 249 240.5 L 251.5 236 Z " /><path fill="rgb(0,0,0)" stroke="rgb(0,0,0)" stroke-width="1" opacity="0.996078431372549" d="M 31.5 240 L 225 240.5 L 31.5 241 L 31.5 240 Z " /><path fill="rgb(0,0,0)" stroke="rgb(0,0,0)" stroke-width="1" opacity="0.996078431372549" d="M 233.5 252 L 232.5 254 L 233.5 252 Z " /><path fill="rgb(0,0,0)" stroke="rgb(0,0,0)" stroke-width="1" opacity="1" d="M 60.5 1 L 62.5 1 Q 69.8 -0.2 71 4.5 L 71 20.5 L 71.5 21 L 185 21 L 185 4.5 L 188.5 1 L 190.5 1 Q 197.8 -0.2 199 4.5 L 199 21 L 230.5 21 L 234 22.5 L 233.5 24 L 236.5 23 L 240 25.5 L 239.5 27 L 241.5 26 Q 245.7 27.8 243 29.5 L 247.5 34 Q 248.8 31.7 250 34.5 L 249 36.5 L 251 36.5 L 250.5 38 L 252 38.5 L 251.5 40 Q 253.8 39.3 253 41.5 L 254 44.5 L 253.5 46 Q 256.5 45.5 255 52.5 L 256 53.5 L 256 222.5 Q 253.3 224.3 255 230.5 L 250.5 240 L 249 239.5 L 250 241.5 Q 248.3 245.7 246.5 243 L 242 247.5 Q 244.3 248.8 241.5 250 L 239.5 249 L 239.5 251 L 237.5 251 L 234.5 253 L 230 253.5 Q 230.5 256.5 223.5 255 L 222.5 256 L 33.5 256 L 32.5 255 L 26 255 L 25.5 253 L 22.5 254 L 16 250.5 L 16.5 249 L 14.5 250 L 8.5 242 Q 7.2 244.3 6 241.5 L 7 239.5 L 5 239.5 L 5 237.5 L 3 234.5 L 2 231.5 L 2.5 230 Q -0.5 230.5 1 223.5 L 0 222.5 L 0 53.5 Q 2.8 51.8 1 45.5 L 5.5 36 L 7 36.5 L 6 34.5 Q 7.8 30.2 9.5 33 L 14 28.5 Q 11.8 27.2 14.5 26 L 16.5 27 L 16.5 25 L 18.5 26 L 20 23 L 22.5 22 L 26 22.5 L 26.5 21 L 57 21 L 57 4.5 L 60.5 1 Z M 32 35 L 27 37 L 25 36 L 25 38 L 23 37 L 23 39 L 19 43 L 17 43 L 18 45 L 16 45 L 17 47 L 15 52 L 15 73 L 16 73 L 241 73 L 241 52 L 239 47 L 240 45 L 238 45 L 239 43 L 238 43 L 233 39 L 234 37 L 232 38 L 232 36 L 230 37 L 225 35 L 199 35 L 199 48 L 196 51 L 195 50 Q 193 52 189 51 L 185 48 L 185 35 L 72 35 L 71 36 L 71 48 L 68 51 L 66 51 Q 58 52 57 48 L 57 35 L 32 35 Z M 15 87 L 15 225 L 17 230 L 16 232 L 18 232 L 17 234 L 19 233 L 23 238 L 23 239 L 25 238 L 25 240 L 27 239 L 32 241 L 225 241 L 230 239 L 232 240 L 232 238 L 234 239 L 233 238 L 238 233 L 239 234 L 238 232 L 240 232 L 239 230 L 241 225 L 241 87 L 15 87 Z " /></svg>