<svg width="220" height="220" version="1.1" xmlns="http://www.w3.org/2000/svg" desc="Created with imagetracer.js version 1.2.6" ><path fill="rgb(0,0,0)" stroke="rgb(0,0,0)" stroke-width="1" opacity="0.27058823529411763" d="M 52.5 7 L 50.5 10 L 52.5 7 Z " /><path fill="rgb(0,0,0)" stroke="rgb(0,0,0)" stroke-width="1" opacity="0.27058823529411763" d="M 61.5 7 Q 65.5 7.5 65 12.5 L 64 12.5 L 61.5 7 Z " /><path fill="rgb(0,0,0)" stroke="rgb(0,0,0)" stroke-width="1" opacity="0.27058823529411763" d="M 168.5 7 L 170.5 10 L 168.5 7 Z " /><path fill="rgb(0,0,0)" stroke="rgb(0,0,0)" stroke-width="1" opacity="0.27058823529411763" d="M 157.5 9 L 157 10.5 L 156.5 12 L 156 10.5 L 157.5 9 Z " /><path fill="rgb(0,0,0)" stroke="rgb(0,0,0)" stroke-width="1" opacity="0.27058823529411763" d="M 49.5 11 L 50 13.5 L 49 13.5 L 49.5 11 Z " /><path fill="rgb(0,0,0)" stroke="rgb(0,0,0)" stroke-width="1" opacity="0.27058823529411763" d="M 171.5 11 L 172 27 L 178 27.5 L 172.5 28 L 171 26.5 L 171.5 11 Z " /><path fill="rgb(0,0,0)" stroke="rgb(0,0,0)" stroke-width="1" opacity="0.27058823529411763" d="M 155.5 13 L 156 28 L 65.5 28 L 65 27.5 L 65 14.5 L 66 14.5 L 66 26.5 L 66.5 27 L 155 27 L 155.5 13 Z " /><path fill="rgb(0,0,0)" stroke="rgb(0,0,0)" stroke-width="1" opacity="0.27058823529411763" d="M 43.5 27 L 49 27.5 L 43.5 28 L 43.5 27 Z " /><path fill="rgb(0,0,0)" stroke="rgb(0,0,0)" stroke-width="1" opacity="0.27058823529411763" d="M 197.5 30 L 200 31.5 L 198.5 31 L 197.5 30 Z " /><path fill="rgb(0,0,0)" stroke="rgb(0,0,0)" stroke-width="1" opacity="0.27058823529411763" d="M 16.5 34 L 12.5 39 L 16.5 34 Z " /><path fill="rgb(0,0,0)" stroke="rgb(0,0,0)" stroke-width="1" opacity="0.27058823529411763" d="M 204.5 34 L 207.5 38 L 204.5 34 Z " /><path fill="rgb(0,0,0)" stroke="rgb(0,0,0)" stroke-width="1" opacity="0.27058823529411763" d="M 208.5 39 L 209.5 41 L 208.5 39 Z " /><path fill="rgb(0,0,0)" stroke="rgb(0,0,0)" stroke-width="1" opacity="0.27058823529411763" d="M 10.5 42 L 10 43.5 L 9.5 45 L 9 43.5 L 10.5 42 Z " /><path fill="rgb(0,0,0)" stroke="rgb(0,0,0)" stroke-width="1" opacity="0.27058823529411763" d="M 210.5 42 L 212 44.5 L 211 44.5 L 210.5 42 Z " /><path fill="rgb(0,0,0)" stroke="rgb(0,0,0)" stroke-width="1" opacity="0.27058823529411763" d="M 34.5 43 L 42 43.5 L 34.5 44 L 34.5 43 Z " /><path fill="rgb(0,0,0)" stroke="rgb(0,0,0)" stroke-width="1" opacity="0.27058823529411763" d="M 179.5 43 L 187 43.5 L 179.5 44 L 179.5 43 Z " /><path fill="rgb(0,0,0)" stroke="rgb(0,0,0)" stroke-width="1" opacity="0.27058823529411763" d="M 28.5 45 L 27.5 47 L 28.5 45 Z " /><path fill="rgb(0,0,0)" stroke="rgb(0,0,0)" stroke-width="1" opacity="0.27058823529411763" d="M 192.5 45 L 196.5 50 L 192.5 45 Z " /><path fill="rgb(0,0,0)" stroke="rgb(0,0,0)" stroke-width="1" opacity="0.27058823529411763" d="M 212.5 46 Q 214.8 47.8 214 52.5 L 213 52.5 L 212.5 46 Z " /><path fill="rgb(0,0,0)" stroke="rgb(0,0,0)" stroke-width="1" opacity="0.27058823529411763" d="M 7.5 48 L 8 51.5 L 7 51.5 L 7.5 48 Z " /><path fill="rgb(0,0,0)" stroke="rgb(0,0,0)" stroke-width="1" opacity="0.27058823529411763" d="M 25.5 48 L 24.5 50 L 25.5 48 Z " /><path fill="rgb(0,0,0)" stroke="rgb(0,0,0)" stroke-width="1" opacity="0.27058823529411763" d="M 23.5 51 L 24 53.5 L 23 53.5 L 23.5 51 Z " /><path fill="rgb(0,0,0)" stroke="rgb(0,0,0)" stroke-width="1" opacity="0.27058823529411763" d="M 197.5 51 L 198 54.5 L 197 54.5 L 197.5 51 Z " /><path fill="rgb(0,0,0)" stroke="rgb(0,0,0)" stroke-width="1" opacity="0.27058823529411763" d="M 6.5 54 L 7 186.5 L 6 186.5 L 6.5 54 Z " /><path fill="rgb(0,0,0)" stroke="rgb(0,0,0)" stroke-width="1" opacity="0.27058823529411763" d="M 214.5 54 L 215 186.5 L 214 186.5 L 214.5 54 Z " /><path fill="rgb(0,0,0)" stroke="rgb(0,0,0)" stroke-width="1" opacity="0.27058823529411763" d="M 22.5 56 L 23 80.5 L 22 80.5 L 22.5 56 Z " /><path fill="rgb(0,0,0)" stroke="rgb(0,0,0)" stroke-width="1" opacity="0.27058823529411763" d="M 198.5 58 L 199 80.5 L 198 80.5 L 198.5 58 Z " /><path fill="rgb(0,0,0)" stroke="rgb(0,0,0)" stroke-width="1" opacity="0.27058823529411763" d="M 22 96 L 199 96 L 199 182.5 L 198 182.5 L 198 97 L 23 97 L 22.5 185 L 22 96 Z " /><path fill="rgb(0,0,0)" stroke="rgb(0,0,0)" stroke-width="1" opacity="0.27058823529411763" d="M 197.5 186 L 198 189.5 L 197 189.5 L 197.5 186 Z " /><path fill="rgb(0,0,0)" stroke="rgb(0,0,0)" stroke-width="1" opacity="0.27058823529411763" d="M 23.5 187 Q 23.3 191.3 26 192.5 L 23 190.5 L 23.5 187 Z " /><path fill="rgb(0,0,0)" stroke="rgb(0,0,0)" stroke-width="1" opacity="0.27058823529411763" d="M 213.5 188 L 214 192.5 L 209.5 201 L 210 199.5 L 213.5 188 Z " /><path fill="rgb(0,0,0)" stroke="rgb(0,0,0)" stroke-width="1" opacity="0.27058823529411763" d="M 7.5 189 L 8 192.5 L 7 192.5 L 7.5 189 Z " /><path fill="rgb(0,0,0)" stroke="rgb(0,0,0)" stroke-width="1" opacity="0.27058823529411763" d="M 196.5 191 L 195.5 193 L 196.5 191 Z " /><path fill="rgb(0,0,0)" stroke="rgb(0,0,0)" stroke-width="1" opacity="0.27058823529411763" d="M 28.5 195 L 29.5 197 L 28.5 195 Z " /><path fill="rgb(0,0,0)" stroke="rgb(0,0,0)" stroke-width="1" opacity="0.27058823529411763" d="M 192.5 195 L 191.5 197 L 192.5 195 Z " /><path fill="rgb(0,0,0)" stroke="rgb(0,0,0)" stroke-width="1" opacity="0.27058823529411763" d="M 32.5 197 L 37 197.5 L 32.5 198 L 32.5 197 Z " /><path fill="rgb(0,0,0)" stroke="rgb(0,0,0)" stroke-width="1" opacity="0.27058823529411763" d="M 184.5 197 L 189 197.5 L 184.5 198 L 184.5 197 Z " /><path fill="rgb(0,0,0)" stroke="rgb(0,0,0)" stroke-width="1" opacity="0.27058823529411763" d="M 10.5 199 L 11.5 201 L 10.5 199 Z " /><path fill="rgb(0,0,0)" stroke="rgb(0,0,0)" stroke-width="1" opacity="0.27058823529411763" d="M 12.5 202 L 17.5 208 L 12.5 202 Z " /><path fill="rgb(0,0,0)" stroke="rgb(0,0,0)" stroke-width="1" opacity="0.27058823529411763" d="M 208.5 202 L 203.5 208 L 208.5 202 Z " /><path fill="rgb(0,0,0)" stroke="rgb(0,0,0)" stroke-width="1" opacity="0.27058823529411763" d="M 201.5 208 L 200.5 210 L 201.5 208 Z " /><path fill="rgb(0,0,0)" stroke="rgb(0,0,0)" stroke-width="1" opacity="0.27058823529411763" d="M 33.5 213 L 37 213.5 L 33.5 214 L 33.5 213 Z " /><path fill="rgb(0,0,0)" stroke="rgb(0,0,0)" stroke-width="1" opacity="0.27058823529411763" d="M 183.5 213 L 188 213.5 L 183.5 214 L 183.5 213 Z " /><path fill="rgb(0,0,0)" stroke="rgb(0,0,0)" stroke-width="1" opacity="0" d="M 0 0 L 220 0 L 220 220 L 0 220 L 0 0 Z M 55 6 L 53 7 L 49 12 L 49 27 L 43 28 L 30 28 Q 21 29 17 34 L 9 44 L 6 55 L 6 187 L 8 196 L 12 203 L 21 210 L 34 214 L 188 214 L 197 212 L 204 208 L 211 200 L 215 187 L 215 55 L 212 44 L 208 38 L 196 29 L 172 27 L 172 12 L 171 10 L 167 6 L 160 7 L 155 14 L 155 27 L 155 27 L 66 27 L 65 11 Q 63 5 55 6 Z " /><path fill="rgb(0,0,0)" stroke="rgb(0,0,0)" stroke-width="1" opacity="0" d="M 42.5 43 L 178.5 43 L 179.5 44 L 189.5 44 L 197 50.5 L 198 55.5 L 198 81 L 23.5 81 L 23 80.5 L 23 54.5 L 26 47 L 31.5 44 L 41.5 44 L 42.5 43 Z " /><path fill="rgb(0,0,0)" stroke="rgb(0,0,0)" stroke-width="1" opacity="0" d="M 23 97 L 198 97 L 198 185.5 L 197 190.5 L 193.5 195 L 190.5 197 Q 185 195.5 183.5 198 L 37.5 198 Q 36 195.5 30.5 197 L 26 193.5 L 23 186.5 L 23 97 Z " /><path fill="rgb(0,0,0)" stroke="rgb(0,0,0)" stroke-width="1" opacity="0.7843137254901961" d="M 162.5 6 L 165 6.5 L 162.5 7 L 162.5 6 Z " /><path fill="rgb(0,0,0)" stroke="rgb(0,0,0)" stroke-width="1" opacity="0.7843137254901961" d="M 53.5 7 L 51 10.5 L 50.5 13 L 50 10.5 L 53.5 7 Z " /><path fill="rgb(0,0,0)" stroke="rgb(0,0,0)" stroke-width="1" opacity="0.7843137254901961" d="M 167.5 7 Q 171.5 7.5 171 12.5 L 170 12.5 L 167.5 7 Z " /><path fill="rgb(0,0,0)" stroke="rgb(0,0,0)" stroke-width="1" opacity="0.7843137254901961" d="M 62.5 9 L 63.5 11 L 62.5 9 Z " /><path fill="rgb(0,0,0)" stroke="rgb(0,0,0)" stroke-width="1" opacity="0.7843137254901961" d="M 156.5 12 L 157 27.5 L 156 27.5 L 156.5 12 Z " /><path fill="rgb(0,0,0)" stroke="rgb(0,0,0)" stroke-width="1" opacity="0.7843137254901961" d="M 64.5 13 L 65 27.5 L 64 27.5 L 64.5 13 Z " /><path fill="rgb(0,0,0)" stroke="rgb(0,0,0)" stroke-width="1" opacity="0.7843137254901961" d="M 49.5 14 L 50 27.5 L 49 27.5 L 49.5 14 Z " /><path fill="rgb(0,0,0)" stroke="rgb(0,0,0)" stroke-width="1" opacity="0.7843137254901961" d="M 21.5 31 L 20.5 33 L 21.5 31 Z " /><path fill="rgb(0,0,0)" stroke="rgb(0,0,0)" stroke-width="1" opacity="0.7843137254901961" d="M 18.5 33 L 13 39.5 L 11.5 42 L 12 40.5 L 18.5 33 Z " /><path fill="rgb(0,0,0)" stroke="rgb(0,0,0)" stroke-width="1" opacity="0.7843137254901961" d="M 202.5 33 L 207.5 39 L 202.5 33 Z " /><path fill="rgb(0,0,0)" stroke="rgb(0,0,0)" stroke-width="1" opacity="0.7843137254901961" d="M 208.5 40 L 209.5 42 L 208.5 40 Z " /><path fill="rgb(0,0,0)" stroke="rgb(0,0,0)" stroke-width="1" opacity="0.7843137254901961" d="M 31.5 43 L 34 43.5 L 31.5 44 L 31.5 43 Z " /><path fill="rgb(0,0,0)" stroke="rgb(0,0,0)" stroke-width="1" opacity="0.7843137254901961" d="M 187.5 43 L 190 43.5 L 187.5 44 L 187.5 43 Z " /><path fill="rgb(0,0,0)" stroke="rgb(0,0,0)" stroke-width="1" opacity="0.7843137254901961" d="M 9.5 45 L 10 46.5 L 8.5 51 L 8 47.5 L 9.5 45 Z " /><path fill="rgb(0,0,0)" stroke="rgb(0,0,0)" stroke-width="1" opacity="0.7843137254901961" d="M 27.5 45 L 24.5 49 L 27.5 45 Z " /><path fill="rgb(0,0,0)" stroke="rgb(0,0,0)" stroke-width="1" opacity="0.7843137254901961" d="M 193.5 45 L 196.5 49 L 193.5 45 Z " /><path fill="rgb(0,0,0)" stroke="rgb(0,0,0)" stroke-width="1" opacity="0.7843137254901961" d="M 212.5 48 L 213 50.5 L 212 50.5 L 212.5 48 Z " /><path fill="rgb(0,0,0)" stroke="rgb(0,0,0)" stroke-width="1" opacity="0.7843137254901961" d="M 7.5 52 L 8 188.5 L 7 188.5 L 7.5 52 Z " /><path fill="rgb(0,0,0)" stroke="rgb(0,0,0)" stroke-width="1" opacity="0.7843137254901961" d="M 22.5 52 L 23 55.5 L 22 55.5 L 22.5 52 Z " /><path fill="rgb(0,0,0)" stroke="rgb(0,0,0)" stroke-width="1" opacity="0.7843137254901961" d="M 198.5 52 L 199 57.5 L 198 57.5 L 198.5 52 Z " /><path fill="rgb(0,0,0)" stroke="rgb(0,0,0)" stroke-width="1" opacity="0.7843137254901961" d="M 213.5 53 L 214 187.5 L 213 187.5 L 213.5 53 Z " /><path fill="rgb(0,0,0)" stroke="rgb(0,0,0)" stroke-width="1" opacity="0.7843137254901961" d="M 21.5 61 L 22 80.5 L 21 80.5 L 21.5 61 Z " /><path fill="rgb(0,0,0)" stroke="rgb(0,0,0)" stroke-width="1" opacity="0.7843137254901961" d="M 199.5 64 L 200 80.5 L 199 80.5 L 199.5 64 Z " /><path fill="rgb(0,0,0)" stroke="rgb(0,0,0)" stroke-width="1" opacity="0.7843137254901961" d="M 21.5 96 L 22 179.5 L 21 179.5 L 21.5 96 Z " /><path fill="rgb(0,0,0)" stroke="rgb(0,0,0)" stroke-width="1" opacity="0.7843137254901961" d="M 199.5 96 L 200 177.5 L 199 177.5 L 199.5 96 Z " /><path fill="rgb(0,0,0)" stroke="rgb(0,0,0)" stroke-width="1" opacity="0.7843137254901961" d="M 198.5 183 L 199 188.5 L 198 188.5 L 198.5 183 Z " /><path fill="rgb(0,0,0)" stroke="rgb(0,0,0)" stroke-width="1" opacity="0.7843137254901961" d="M 22.5 185 L 23 188.5 L 22 188.5 L 22.5 185 Z " /><path fill="rgb(0,0,0)" stroke="rgb(0,0,0)" stroke-width="1" opacity="0.7843137254901961" d="M 8.5 190 L 9 193.5 L 8 193.5 L 8.5 190 Z " /><path fill="rgb(0,0,0)" stroke="rgb(0,0,0)" stroke-width="1" opacity="0.7843137254901961" d="M 197.5 190 L 198 191.5 L 192 196.5 L 197.5 190 Z " /><path fill="rgb(0,0,0)" stroke="rgb(0,0,0)" stroke-width="1" opacity="0.7843137254901961" d="M 212.5 190 L 213 192.5 L 212 192.5 L 212.5 190 Z " /><path fill="rgb(0,0,0)" stroke="rgb(0,0,0)" stroke-width="1" opacity="0.7843137254901961" d="M 23.5 191 L 28.5 197 L 23.5 191 Z " /><path fill="rgb(0,0,0)" stroke="rgb(0,0,0)" stroke-width="1" opacity="0.7843137254901961" d="M 9.5 195 L 12 199.5 L 10 198.5 L 9.5 195 Z " /><path fill="rgb(0,0,0)" stroke="rgb(0,0,0)" stroke-width="1" opacity="0.7843137254901961" d="M 40.5 198 L 181 198.5 L 40.5 199 L 40.5 198 Z " /><path fill="rgb(0,0,0)" stroke="rgb(0,0,0)" stroke-width="1" opacity="0.7843137254901961" d="M 12.5 201 L 19.5 209 L 12.5 201 Z " /><path fill="rgb(0,0,0)" stroke="rgb(0,0,0)" stroke-width="1" opacity="0.7843137254901961" d="M 208.5 201 L 202.5 208 L 208.5 201 Z " /><path fill="rgb(0,0,0)" stroke="rgb(0,0,0)" stroke-width="1" opacity="0.7843137254901961" d="M 29.5 212 L 32 212.5 L 29.5 213 L 29.5 212 Z " /><path fill="rgb(0,0,0)" stroke="rgb(0,0,0)" stroke-width="1" opacity="0.7843137254901961" d="M 189.5 212 L 192 212.5 L 189.5 213 L 189.5 212 Z " /><path fill="rgb(0,0,0)" stroke="rgb(0,0,0)" stroke-width="1" opacity="0.7843137254901961" d="M 37.5 213 L 183 213.5 L 37.5 214 L 37.5 213 Z " /><path fill="rgb(0,0,0)" stroke="rgb(0,0,0)" stroke-width="1" opacity="0.996078431372549" d="M 159.5 8 L 158.5 10 L 159.5 8 Z " /><path fill="rgb(0,0,0)" stroke="rgb(0,0,0)" stroke-width="1" opacity="0.996078431372549" d="M 19.5 33 L 18.5 35 L 19.5 33 Z " /><path fill="rgb(0,0,0)" stroke="rgb(0,0,0)" stroke-width="1" opacity="0.996078431372549" d="M 201.5 33 L 202.5 35 L 201.5 33 Z " /><path fill="rgb(0,0,0)" stroke="rgb(0,0,0)" stroke-width="1" opacity="0.996078431372549" d="M 14.5 38 L 13.5 40 L 14.5 38 Z " /><path fill="rgb(0,0,0)" stroke="rgb(0,0,0)" stroke-width="1" opacity="0.996078431372549" d="M 206.5 38 L 207.5 40 L 206.5 38 Z " /><path fill="rgb(0,0,0)" stroke="rgb(0,0,0)" stroke-width="1" opacity="0.996078431372549" d="M 21.5 57 L 22 60.5 L 21 60.5 L 21.5 57 Z " /><path fill="rgb(0,0,0)" stroke="rgb(0,0,0)" stroke-width="1" opacity="0.996078431372549" d="M 199.5 58 L 200 63.5 L 199 63.5 L 199.5 58 Z " /><path fill="rgb(0,0,0)" stroke="rgb(0,0,0)" stroke-width="1" opacity="0.996078431372549" d="M 199.5 178 L 200 182.5 L 199 182.5 L 199.5 178 Z " /><path fill="rgb(0,0,0)" stroke="rgb(0,0,0)" stroke-width="1" opacity="0.996078431372549" d="M 21.5 180 L 22 183.5 L 21 183.5 L 21.5 180 Z " /><path fill="rgb(0,0,0)" stroke="rgb(0,0,0)" stroke-width="1" opacity="0.996078431372549" d="M 24.5 193 L 26.5 196 L 24.5 193 Z " /><path fill="rgb(0,0,0)" stroke="rgb(0,0,0)" stroke-width="1" opacity="0.996078431372549" d="M 196.5 193 L 194.5 196 L 196.5 193 Z " /><path fill="rgb(0,0,0)" stroke="rgb(0,0,0)" stroke-width="1" opacity="0.996078431372549" d="M 19.5 207 L 20.5 209 L 19.5 207 Z " /><path fill="rgb(0,0,0)" stroke="rgb(0,0,0)" stroke-width="1" opacity="0.996078431372549" d="M 201.5 207 L 200.5 209 L 201.5 207 Z " /><path fill="rgb(0,0,0)" stroke="rgb(0,0,0)" stroke-width="1" opacity="1" d="M 55.5 7 Q 62 6 63 10.5 L 64 12.5 L 64 28 L 156.5 28 L 157 27.5 L 157 12.5 L 161.5 7 Q 167.3 6.2 169 9.5 L 171 14.5 L 171 28 L 186.5 28 L 195.5 30 L 206 37.5 Q 211.3 43.2 213 52.5 L 213 188.5 Q 211 201 202.5 207 L 195.5 211 L 187.5 213 L 33.5 213 Q 19.8 210.8 13 201.5 L 8 188.5 L 8 52.5 Q 10.2 41.2 17.5 35 L 29.5 29 L 50 28 L 50 14.5 L 53.5 8 L 55.5 7 Z M 32 43 L 25 46 L 22 52 Q 23 56 21 58 L 21 81 L 22 81 L 200 81 L 200 59 Q 198 57 199 52 L 196 46 L 190 43 L 32 43 Z M 21 96 L 21 184 L 24 194 L 31 198 L 39 198 L 40 199 L 182 199 L 183 198 L 191 198 L 195 196 L 199 190 Q 198 184 200 183 L 200 96 L 21 96 Z " /></svg>