<svg width="520" height="260" version="1.1" xmlns="http://www.w3.org/2000/svg" desc="Created with imagetracer.js version 1.2.6" ><path fill="rgb(0,0,0)" stroke="rgb(0,0,0)" stroke-width="1" opacity="0" d="M 0 0 L 520 0 L 520 260 L 0 260 L 0 0 Z M 73 52 L 68 54 Q 61 57 61 66 L 53 71 L 46 79 L 42 88 Q 43 92 41 94 L 42 115 L 46 131 L 40 142 L 31 151 L 31 152 L 38 152 L 46 149 L 47 149 L 45 154 L 38 162 Q 35 161 36 164 L 36 165 L 41 164 L 45 165 L 40 169 L 35 176 L 48 176 L 50 178 L 44 178 L 27 183 L 27 186 L 32 194 L 24 207 L 25 208 L 156 208 L 155 201 L 149 191 L 154 187 L 155 185 L 139 176 L 144 175 L 143 171 L 133 164 L 130 157 L 131 154 L 139 159 L 142 159 L 132 140 L 132 137 Q 138 130 140 120 L 140 110 L 136 98 L 136 96 L 138 100 L 149 109 L 151 109 L 140 85 L 130 73 Q 119 61 103 55 L 91 52 L 73 52 Z M 398 99 L 396 100 L 392 105 L 393 110 Q 395 115 404 113 Q 409 111 407 103 Q 405 98 398 99 Z M 183 102 L 183 166 L 227 166 L 227 155 L 197 155 L 197 139 L 223 139 L 223 128 L 197 128 L 197 113 L 227 113 L 227 103 L 227 102 L 183 102 Z M 366 106 L 364 108 L 364 118 L 357 118 L 357 128 L 364 128 L 364 155 L 366 162 L 374 167 L 385 167 L 386 166 L 387 166 L 387 156 Q 380 158 378 154 L 378 129 L 379 128 L 386 128 L 386 118 L 378 118 L 378 106 L 366 106 Z M 256 117 L 247 122 L 246 118 L 234 118 L 233 119 L 233 166 L 247 166 L 247 132 L 253 128 L 259 129 L 261 134 L 261 166 L 274 166 L 274 134 L 275 132 L 281 128 Q 287 127 288 132 L 288 166 L 302 166 L 302 130 L 300 124 Q 297 119 291 117 Q 278 116 273 123 Q 270 124 271 122 L 267 118 L 256 117 Z M 328 117 L 320 120 Q 311 125 309 137 L 309 148 L 313 159 Q 318 165 326 167 Q 339 169 346 164 Q 353 159 355 149 L 355 137 L 352 128 Q 348 121 341 118 L 328 117 Z M 433 117 L 425 120 Q 416 125 414 138 Q 413 152 419 160 Q 423 165 431 167 Q 444 169 451 164 Q 458 159 460 150 Q 462 132 455 125 Q 449 116 433 117 Z M 490 117 L 483 120 L 480 122 L 480 118 L 467 118 L 467 166 L 468 166 L 480 166 L 480 134 L 481 132 L 487 128 L 493 129 L 495 133 L 495 166 L 509 166 L 509 132 L 506 123 Q 502 115 490 117 Z M 393 118 L 393 166 L 394 166 L 407 166 L 407 119 L 407 118 L 393 118 Z " /><path fill="rgb(0,0,0)" stroke="rgb(0,0,0)" stroke-width="1" opacity="0" d="M 330.5 128 Q 337.1 127.4 339 131.5 L 341 135.5 L 341 148.5 L 336.5 155 L 328.5 156 Q 320.3 151.3 323 135.5 L 326.5 130 L 330.5 128 Z " /><path fill="rgb(0,0,0)" stroke="rgb(0,0,0)" stroke-width="1" opacity="0" d="M 435.5 128 Q 441.9 127.6 444 131.5 L 446 135.5 L 447 143.5 L 445 151.5 L 440.5 156 Q 432.2 157.3 430 152.5 Q 426 147.5 428 136.5 L 431 130 L 435.5 128 Z " /><path fill="rgb(119,114,137)" stroke="rgb(119,114,137)" stroke-width="1" opacity="0.9803921568627451" d="M 74.5 52 L 93.5 53 L 108.5 58 Q 124.9 66.1 136 79.5 Q 144.9 92.1 150 108.5 L 146.5 106 L 135.5 96 L 135 97.5 Q 141.1 105.9 139 122.5 L 131 137.5 Q 133.8 150.2 142 157.5 Q 140.8 160.3 139.5 158 L 129.5 153 L 129 155.5 Q 130.8 163.2 136.5 167 L 143 172.5 Q 144.3 177.1 138.5 175 L 138.5 176 L 151.5 182 L 154 184.5 L 148 191.5 Q 155.1 197.2 156 208 L 134 207.5 L 137 201.5 L 150 187.5 L 148.5 187 L 139 195.5 L 133 205.5 L 133 208 Q 128.9 209.7 130 205.5 Q 133.9 195.4 141.5 189 L 149 184 L 147.5 181 L 136.5 176 Q 117.4 181.4 107 195.5 L 97.5 208 L 82.5 208 L 79 204.5 L 72.5 197 Q 58.9 185.1 37.5 181 L 33 182 Q 38.9 196.8 50 207.5 L 48 208 L 33.5 187 L 33 188.5 Q 38 199.5 46 207.5 L 43 206.5 L 42.5 208 L 24.5 208 L 25 206.5 L 33 194.5 L 27 184.5 L 36.5 180 L 53 177.5 L 50.5 176 L 38.5 175 L 36 176 L 36 173.5 L 46 163.5 L 43.5 163 L 36 165 L 36 163.5 L 45 154.5 L 47 148 L 39.5 151 L 32 152 L 43 137.5 L 46 132.5 L 46 128.5 L 43 118.5 L 41 96.5 Q 43.5 95 42 89.5 L 46 79.5 L 54.5 70 L 61 67 Q 60.8 59.5 65.5 56 L 74.5 52 Z M 75 53 Q 66 54 63 61 L 67 70 L 75 76 L 90 83 L 103 99 L 113 121 L 114 121 Q 112 105 105 95 L 104 92 L 119 112 L 122 119 L 125 131 L 126 126 L 125 113 L 123 108 L 124 105 L 129 118 L 129 126 L 130 127 Q 131 131 129 133 L 130 137 L 138 123 L 138 108 L 130 90 L 129 87 L 134 91 L 147 105 L 148 105 L 139 86 L 130 75 Q 119 63 104 57 L 88 53 L 75 53 Z M 60 68 L 54 72 Q 45 78 43 91 L 43 111 L 46 128 L 60 155 L 62 156 L 54 138 L 51 127 L 51 115 L 56 102 L 59 99 L 60 88 L 62 96 L 63 106 L 68 97 L 69 97 L 63 109 L 60 111 L 60 110 L 60 100 L 54 114 L 54 122 Q 52 123 55 124 L 81 90 L 72 83 L 71 91 L 70 85 L 66 81 L 62 72 Q 64 67 60 68 Z M 89 90 L 99 109 L 100 109 Q 98 97 91 92 Q 92 89 89 90 Z M 81 92 L 65 112 L 67 112 L 78 98 L 82 94 L 81 92 Z M 83 94 L 69 111 L 76 113 Q 81 117 83 124 L 83 125 L 79 118 L 77 123 L 72 127 L 66 126 Q 61 124 61 118 L 55 126 L 55 128 L 59 125 L 59 127 L 57 130 L 63 129 L 59 139 L 64 147 L 67 143 L 91 120 L 88 119 L 86 120 L 94 107 L 94 105 L 90 100 L 83 94 Z M 101 103 L 101 111 Q 103 112 101 113 L 97 108 Q 98 105 96 106 L 88 118 L 95 116 L 98 117 L 65 153 Q 74 161 89 165 L 96 164 L 112 156 Q 119 150 124 141 L 124 138 L 121 143 L 120 128 L 119 123 Q 115 123 116 128 L 115 127 L 112 128 L 107 127 L 102 123 L 102 120 L 99 121 L 102 116 L 107 113 L 107 111 L 101 103 Z M 64 116 L 62 120 L 63 122 L 64 122 L 64 116 Z M 68 116 L 66 118 L 70 119 Q 72 115 68 116 Z M 109 116 L 107 119 L 110 120 L 109 116 Z M 95 117 L 92 118 L 92 120 L 64 148 L 66 150 L 96 118 L 95 117 Z M 104 117 L 103 122 L 105 123 L 104 117 Z M 76 118 L 76 122 L 76 121 Q 78 119 76 118 Z M 107 124 L 108 126 L 109 126 L 107 124 Z M 59 130 L 55 131 L 58 139 L 62 131 L 59 130 Z M 126 132 L 124 136 L 125 138 L 126 136 L 126 132 Z M 121 157 L 120 158 Q 117 157 118 160 L 134 172 L 131 174 L 115 179 L 106 185 L 95 197 L 96 198 Q 110 177 142 174 Q 134 163 121 157 Z M 116 161 L 105 183 L 106 184 L 119 176 L 132 172 Q 126 164 116 161 Z M 78 163 Q 79 170 76 173 L 74 174 L 90 202 Q 96 187 106 176 Q 101 172 102 163 L 93 166 L 83 165 L 78 163 Z M 48 164 L 41 170 L 39 173 L 39 174 Q 42 175 41 173 L 51 165 L 48 164 Z M 53 165 L 44 172 L 46 173 L 55 174 L 69 181 L 76 187 L 77 187 L 68 173 Q 63 166 53 165 Z M 46 174 L 46 175 L 50 175 L 46 174 Z M 55 176 L 57 178 L 59 178 L 55 176 Z M 66 181 L 67 183 L 68 183 L 66 181 Z M 32 183 L 28 185 L 33 194 L 35 195 L 31 187 L 32 185 L 32 187 L 33 187 L 32 183 Z M 69 183 L 71 186 L 72 186 L 69 183 Z M 153 184 L 151 186 L 153 186 L 153 184 Z M 73 186 L 82 198 L 84 199 L 79 190 L 73 186 Z M 95 198 L 90 206 L 92 206 L 95 200 L 95 198 Z M 41 202 L 40 204 L 42 205 L 41 202 Z " /><path fill="rgb(119,114,137)" stroke="rgb(119,114,137)" stroke-width="1" opacity="0.9803921568627451" d="M 69.5 92 L 70 94.5 L 69 94.5 L 69.5 92 Z " /><path fill="rgb(119,114,137)" stroke="rgb(119,114,137)" stroke-width="1" opacity="0.9803921568627451" d="M 85.5 139 Q 86.9 141.6 91.5 141 L 94.5 139 L 93.5 141 L 88.5 142 L 85.5 139 Z " /><path fill="rgb(119,114,137)" stroke="rgb(119,114,137)" stroke-width="1" opacity="0.9803921568627451" d="M 81.5 149 L 97.5 149 L 99 150.5 Q 96.2 156.2 86.5 155 L 79 150.5 L 81.5 149 Z " /><path fill="rgb(119,114,137)" stroke="rgb(119,114,137)" stroke-width="1" opacity="0.9803921568627451" d="M 125 182 Q 128 180.8 127 184.5 L 125 189.5 L 129 192.5 L 121.5 204 L 121 201 L 123 200.5 L 122 198.5 L 123 194 L 120 192.5 L 125 182 Z M 125 185 L 121 191 Q 120 195 124 193 L 125 198 L 128 192 L 124 191 L 125 188 L 125 185 Z " /><path fill="rgb(207,139,200)" stroke="rgb(207,139,200)" stroke-width="1" opacity="1" d="M 74.5 53 L 87.5 53 L 103.5 57 Q 119.1 63.4 130 74.5 L 139 85.5 L 148 104.5 L 146.5 105 L 133.5 91 L 130.5 89 L 130 90.5 L 137 103.5 Q 139.5 111 138 122.5 L 129.5 137 L 129 132.5 Q 131.3 131.3 130 126.5 L 129 125.5 L 129 117.5 L 124.5 108 L 124 111.5 L 126 118.5 L 126 125.5 L 124.5 131 L 122 118.5 L 119 111.5 L 105.5 94 L 105 95.5 Q 112.8 104.7 114 120.5 L 113 120.5 L 103 98.5 L 89.5 83 L 74.5 76 L 67 69.5 L 63 60.5 Q 66.4 54.4 74.5 53 Z M 124 105 L 123 108 L 124 108 L 124 105 Z " /><path fill="rgb(207,139,200)" stroke="rgb(207,139,200)" stroke-width="1" opacity="1" d="M 59.5 68 Q 63.7 66.7 62 71.5 L 66 80.5 L 70 84.5 L 70 91.5 L 65 103.5 L 62.5 106 L 62 95.5 L 59.5 88 L 59 98.5 L 56 101.5 L 51 114.5 L 51 126.5 L 54 137.5 L 63 157.5 L 62 157.5 Q 52.2 144.3 46 127.5 L 43 110.5 L 43 90.5 Q 45.4 78.4 53.5 72 L 59.5 68 Z " /><path fill="rgb(207,139,200)" stroke="rgb(207,139,200)" stroke-width="1" opacity="1" d="M 88.5 89 L 91 90 L 99 103.5 L 100 108.5 L 99 108.5 L 88.5 89 Z " /><path fill="rgb(207,139,200)" stroke="rgb(207,139,200)" stroke-width="1" opacity="1" d="M 80.5 92 L 82 93.5 L 78 97.5 L 66.5 112 L 64.5 113 L 66 110.5 L 80.5 92 Z " /><path fill="rgb(207,139,200)" stroke="rgb(207,139,200)" stroke-width="1" opacity="1" d="M 67.5 116 Q 71.7 114.9 70 119 L 66 117.5 L 67.5 116 Z " /><path fill="rgb(207,139,200)" stroke="rgb(207,139,200)" stroke-width="1" opacity="1" d="M 108.5 116 L 110 120 L 107 118.5 L 108.5 116 Z " /><path fill="rgb(207,139,200)" stroke="rgb(207,139,200)" stroke-width="1" opacity="1" d="M 94.5 117 L 96 117.5 L 65.5 150 L 64 147.5 L 92 119.5 L 92 118 L 94.5 117 Z " /><path fill="rgb(207,139,200)" stroke="rgb(207,139,200)" stroke-width="1" opacity="1" d="M 60.5 118 Q 61.4 123.6 65.5 126 L 71.5 127 L 77 122.5 L 78.5 118 L 82 124.5 L 73.5 129 L 67.5 129 L 58.5 125 L 55 127.5 L 55 125.5 L 60.5 118 Z " /><path fill="rgb(207,139,200)" stroke="rgb(207,139,200)" stroke-width="1" opacity="1" d="M 101.5 119 Q 101.6 125.4 106.5 127 Q 110.3 126.3 111 128.5 L 106.5 129 L 100.5 127 L 98 124.5 L 101.5 119 Z " /><path fill="rgb(207,139,200)" stroke="rgb(207,139,200)" stroke-width="1" opacity="1" d="M 118.5 123 L 119 125.5 L 116 127 L 118.5 123 Z " /><path fill="rgb(207,139,200)" stroke="rgb(207,139,200)" stroke-width="1" opacity="1" d="M 112.5 127 L 115 127.5 L 112.5 128 L 112.5 127 Z " /><path fill="rgb(207,139,200)" stroke="rgb(207,139,200)" stroke-width="1" opacity="1" d="M 120.5 157 Q 133.5 163 142 173.5 Q 109.6 177.1 95 198.5 L 92 206 L 90 205.5 Q 95.4 193.4 105 185.5 L 105 183.5 L 115.5 161 L 119.5 162 L 118 159.5 Q 117.3 157.3 119.5 158 L 120.5 157 Z M 121 162 L 122 164 L 123 164 L 121 162 Z M 126 165 L 127 167 L 128 167 L 126 165 Z M 129 167 L 132 172 L 115 178 L 115 179 L 131 174 L 134 172 L 129 167 Z M 113 179 L 111 180 L 110 182 L 114 180 L 113 179 Z M 108 182 L 106 185 L 109 183 L 108 182 Z " /><path fill="rgb(207,139,200)" stroke="rgb(207,139,200)" stroke-width="1" opacity="1" d="M 47.5 164 L 51 164.5 L 49.5 167 L 54.5 165 Q 63.1 166.9 68 172.5 L 79 188.5 L 76.5 187 L 75 187.5 L 79 190 L 86 201.5 L 84 200.5 Q 80 191 71.5 186 L 62 179.5 L 62.5 178 L 59.5 179 L 54 176.5 L 57 175.5 L 44.5 172 L 43 172.5 L 43.5 171 L 41 172.5 Q 41.8 175.1 38.5 174 L 39 172.5 L 40.5 170 L 47.5 164 Z M 48 167 L 46 170 L 49 168 L 48 167 Z M 68 181 L 69 183 L 70 183 L 68 181 Z M 71 183 L 73 186 L 74 186 L 71 183 Z " /><path fill="rgb(207,139,200)" stroke="rgb(207,139,200)" stroke-width="1" opacity="1" d="M 45.5 174 L 50 174.5 L 45.5 175 L 45.5 174 Z " /><path fill="rgb(207,139,200)" stroke="rgb(207,139,200)" stroke-width="1" opacity="1" d="M 136.5 176 L 149 182.5 L 149.5 184 L 151 183.5 L 148.5 187 L 152.5 184 L 153 186 L 151.5 186 L 141 196.5 L 133.5 208 L 132 204.5 L 134 204.5 L 136 199.5 L 135.5 198 Q 137.2 200.8 139 196.5 L 138.5 195 L 136.5 195 L 134 197.5 L 133 200.5 L 133.5 202 L 132 201.5 L 130 208 L 98 207.5 L 115.5 187 Q 123.8 179.3 136.5 176 Z M 125 182 L 120 193 L 123 194 L 121 202 L 122 204 L 129 193 L 125 190 L 127 185 Q 128 181 125 182 Z M 148 184 Q 143 186 146 188 L 142 192 L 144 192 L 148 188 Q 146 186 149 185 L 148 184 Z M 142 189 L 137 195 L 143 190 L 142 189 Z " /><path fill="rgb(207,139,200)" stroke="rgb(207,139,200)" stroke-width="1" opacity="1" d="M 37.5 181 L 41.5 181 L 60.5 189 Q 71.4 194.6 79 203.5 L 82 207.5 L 50.5 208 L 48 206.5 Q 48.8 208.8 46.5 208 L 44.5 208 Q 42.3 208.8 43 206.5 Q 33.9 197.1 28 184.5 L 31.5 183 L 33 183.5 Q 32.1 180.5 36.5 182 L 37.5 181 Z M 34 184 L 33 187 L 35 188 L 34 184 Z M 36 188 L 35 190 L 38 195 L 40 196 L 36 188 Z M 36 193 L 36 197 L 38 198 L 36 193 Z M 41 196 L 40 198 L 43 200 L 41 196 Z M 39 198 L 38 200 L 40 201 L 39 198 Z M 44 200 L 43 202 L 47 205 L 44 200 Z M 43 203 L 42 205 L 45 207 L 43 203 Z " /><path fill="rgb(207,139,200)" stroke="rgb(207,139,200)" stroke-width="1" opacity="1" d="M 86.5 203 L 88 205.5 L 87 205.5 L 86.5 203 Z " /><path fill="rgb(237,201,93)" stroke="rgb(237,201,93)" stroke-width="1" opacity="1" d="M 71.5 83 L 81 89.5 L 54.5 124 Q 51.8 122.8 54 121.5 L 54 113.5 L 59.5 100 L 60 109.5 L 59.5 111 L 63 108.5 Q 71 99.5 71.5 83 Z " /><path fill="rgb(237,201,93)" stroke="rgb(237,201,93)" stroke-width="1" opacity="1" d="M 100.5 103 L 107 110.5 L 107 113 L 102 115.5 L 98 124.5 Q 101.5 129.5 110.5 129 L 118.5 126 L 120 127.5 L 120.5 143 L 125.5 132 L 126 135.5 Q 121.4 148.4 111.5 156 Q 105.3 161.3 96 163.5 L 98.5 164 L 102 163 Q 100.6 172 106 175.5 Q 96.3 187.3 89.5 202 L 74 173.5 L 76 173 Q 78.9 169.8 78 163 L 82.5 165 L 92.5 166 L 96 164.5 L 92.5 164 L 88.5 165 Q 74.3 161.3 65 152.5 L 98 116.5 L 94.5 116 L 88 118 L 95.5 106 Q 97.8 105.3 97 107.5 L 100.5 113 Q 103.3 111.8 101 110.5 L 100.5 103 Z M 89 141 L 89 142 L 92 142 L 89 141 Z M 82 149 L 79 151 L 87 155 Q 96 156 99 151 L 98 149 L 82 149 Z " /><path fill="rgb(237,201,93)" stroke="rgb(237,201,93)" stroke-width="1" opacity="1" d="M 63.5 116 L 64 121.5 L 63 121.5 L 62 119.5 L 63.5 116 Z " /><path fill="rgb(237,201,93)" stroke="rgb(237,201,93)" stroke-width="1" opacity="1" d="M 103.5 117 L 106.5 124 L 109 125.5 L 107.5 126 L 103 121.5 L 103.5 117 Z " /><path fill="rgb(237,201,93)" stroke="rgb(237,201,93)" stroke-width="1" opacity="1" d="M 75.5 118 Q 78.3 119.3 76 120.5 L 72.5 125 L 75 121.5 L 75.5 118 Z " /><path fill="rgb(237,201,93)" stroke="rgb(237,201,93)" stroke-width="1" opacity="1" d="M 58.5 130 L 62 130.5 L 57.5 139 L 55 131 L 58.5 130 Z " /><path fill="rgb(237,201,93)" stroke="rgb(237,201,93)" stroke-width="1" opacity="1" d="M 125.5 184 L 125 185.5 L 124 191 L 128 192 L 122.5 201 L 123 199.5 L 124 193 Q 119.9 194.7 121 190.5 L 125.5 184 Z " /><path fill="rgb(209,104,191)" stroke="rgb(209,104,191)" stroke-width="1" opacity="0.984313725490196" d="M 82.5 94 L 90 99.5 L 94 104.5 L 94 106.5 L 86 119.5 L 87.5 119 L 91.5 118 L 89.5 121 L 67 142.5 L 63.5 147 L 59 138.5 L 63 129 L 56.5 130 L 59.5 126 L 67.5 129 L 73.5 129 L 83 125 Q 81.5 117.2 75.5 113 L 69 110.5 L 82.5 94 Z " /><path fill="rgb(209,104,191)" stroke="rgb(209,104,191)" stroke-width="1" opacity="0.984313725490196" d="M 396.5 100 Q 404.3 98.3 406 102.5 L 407 108.5 Q 404.9 112.9 398.5 113 L 394 110.5 L 393 103.5 L 396.5 100 Z " /><path fill="rgb(209,104,191)" stroke="rgb(209,104,191)" stroke-width="1" opacity="0.984313725490196" d="M 184 102 L 225.5 102 L 226 102.5 L 226 113 L 197 113 L 197 128 L 222 128 L 222 138 L 197 138 L 197 155 L 225.5 155 L 227 156.5 L 227 165.5 L 226.5 166 L 184 166 L 184 102 Z " /><path fill="rgb(209,104,191)" stroke="rgb(209,104,191)" stroke-width="1" opacity="0.984313725490196" d="M 365 107 L 377 107 L 377 117.5 L 378.5 119 L 386 119 L 386 126.5 L 384.5 128 L 377.5 128 L 377 128.5 L 377 151.5 L 379.5 156 L 386 156 L 386 166 Q 382.6 167.7 375.5 167 L 371.5 166 L 366 160.5 L 365 157.5 L 365 128 L 358 128 L 358 119 Q 363.4 120.5 365 117.5 L 365 107 Z " /><path fill="rgb(209,104,191)" stroke="rgb(209,104,191)" stroke-width="1" opacity="0.984313725490196" d="M 253.5 118 Q 266.8 115.8 271 122.5 Q 270.3 124.8 272.5 124 Q 276.9 115.4 292.5 118 L 299 123.5 L 302 133.5 L 302 166 L 289 166 L 289 132.5 L 286.5 129 L 278.5 128 L 275 130 L 274 132.5 L 274 166 L 261 166 L 261 131.5 Q 259.3 126.3 250.5 128 L 247 130 L 246 132.5 L 246 166 L 234.5 166 L 234 165.5 L 234 119 L 244.5 119 L 246 120.5 L 246.5 123 L 253.5 118 Z " /><path fill="rgb(209,104,191)" stroke="rgb(209,104,191)" stroke-width="1" opacity="0.984313725490196" d="M 325.5 118 Q 343 115.5 349 124.5 Q 356.7 132.3 354 150.5 Q 351.5 159.5 344.5 164 L 336.5 167 L 328.5 167 Q 317.7 165.3 313 157.5 L 310 150.5 L 310 134.5 Q 312.3 126.8 317.5 122 L 325.5 118 Z M 329 128 L 325 130 L 322 139 Q 321 148 324 153 L 331 157 L 337 156 Q 341 153 342 147 Q 343 137 340 133 Q 338 126 329 128 Z " /><path fill="rgb(209,104,191)" stroke="rgb(209,104,191)" stroke-width="1" opacity="0.984313725490196" d="M 430.5 118 L 443.5 118 Q 450.9 120.1 455 125.5 Q 460.7 132.3 460 145.5 Q 457.7 146.7 459 151.5 L 456 157.5 L 449.5 164 L 441.5 167 L 433.5 167 Q 423.5 165.5 419 158.5 Q 412.8 151.2 415 135.5 Q 417 125.5 424.5 121 L 430.5 118 Z M 434 128 L 429 133 L 427 140 L 427 146 L 430 154 L 436 157 L 442 156 Q 446 153 447 148 Q 449 136 444 131 Q 441 127 434 128 Z " /><path fill="rgb(209,104,191)" stroke="rgb(209,104,191)" stroke-width="1" opacity="0.984313725490196" d="M 487.5 118 Q 501.8 115.7 506 123.5 L 508 128.5 L 508 166 L 496 166 L 496 133.5 L 494 129 Q 491.3 127.1 484.5 128 L 481 130 L 480 132.5 L 480 166 L 467.5 166 L 467 165.5 L 467 119 L 478.5 119 L 479 123 L 480.5 123 L 487.5 118 Z " /><path fill="rgb(209,104,191)" stroke="rgb(209,104,191)" stroke-width="1" opacity="0.984313725490196" d="M 393 119 L 405.5 119 L 406 119.5 L 406 166 L 393.5 166 L 393 165.5 L 393 119 Z " /><path fill="rgb(187,107,175)" stroke="rgb(187,107,175)" stroke-width="1" opacity="0.26666666666666666" d="M 88.5 52 L 91 52.5 L 88.5 53 L 88.5 52 Z " /><path fill="rgb(187,107,175)" stroke="rgb(187,107,175)" stroke-width="1" opacity="0.26666666666666666" d="M 67.5 54 L 66.5 56 L 67.5 54 Z " /><path fill="rgb(187,107,175)" stroke="rgb(187,107,175)" stroke-width="1" opacity="0.26666666666666666" d="M 63.5 58 L 62.5 60 L 63.5 58 Z " /><path fill="rgb(187,107,175)" stroke="rgb(187,107,175)" stroke-width="1" opacity="0.26666666666666666" d="M 111.5 59 L 112.5 61 L 111.5 59 Z " /><path fill="rgb(187,107,175)" stroke="rgb(187,107,175)" stroke-width="1" opacity="0.26666666666666666" d="M 116.5 62 L 117.5 64 L 116.5 62 Z " /><path fill="rgb(187,107,175)" stroke="rgb(187,107,175)" stroke-width="1" opacity="0.26666666666666666" d="M 119.5 64 L 120.5 66 L 119.5 64 Z " /><path fill="rgb(187,107,175)" stroke="rgb(187,107,175)" stroke-width="1" opacity="0.26666666666666666" d="M 123.5 67 L 124.5 69 L 123.5 67 Z " /><path fill="rgb(187,107,175)" stroke="rgb(187,107,175)" stroke-width="1" opacity="0.26666666666666666" d="M 56.5 68 L 55.5 70 L 56.5 68 Z " /><path fill="rgb(187,107,175)" stroke="rgb(187,107,175)" stroke-width="1" opacity="0.26666666666666666" d="M 52.5 71 L 49.5 75 L 52.5 71 Z " /><path fill="rgb(187,107,175)" stroke="rgb(187,107,175)" stroke-width="1" opacity="0.26666666666666666" d="M 128.5 71 L 129.5 73 L 128.5 71 Z " /><path fill="rgb(187,107,175)" stroke="rgb(187,107,175)" stroke-width="1" opacity="0.26666666666666666" d="M 47.5 77 L 46.5 79 L 47.5 77 Z " /><path fill="rgb(187,107,175)" stroke="rgb(187,107,175)" stroke-width="1" opacity="0.26666666666666666" d="M 136.5 80 L 137.5 82 L 136.5 80 Z " /><path fill="rgb(187,107,175)" stroke="rgb(187,107,175)" stroke-width="1" opacity="0.26666666666666666" d="M 41.5 93 L 42 95.5 L 41 95.5 L 41.5 93 Z " /><path fill="rgb(187,107,175)" stroke="rgb(187,107,175)" stroke-width="1" opacity="0.26666666666666666" d="M 133.5 93 L 135 95.5 L 134 95.5 L 133.5 93 Z " /><path fill="rgb(187,107,175)" stroke="rgb(187,107,175)" stroke-width="1" opacity="0.26666666666666666" d="M 138.5 99 L 140.5 102 L 138.5 99 Z " /><path fill="rgb(187,107,175)" stroke="rgb(187,107,175)" stroke-width="1" opacity="0.26666666666666666" d="M 397.5 99 L 403 99.5 L 397.5 100 L 397.5 99 Z " /><path fill="rgb(187,107,175)" stroke="rgb(187,107,175)" stroke-width="1" opacity="0.26666666666666666" d="M 395.5 100 L 393.5 103 L 395.5 100 Z " /><path fill="rgb(187,107,175)" stroke="rgb(187,107,175)" stroke-width="1" opacity="0.26666666666666666" d="M 404.5 100 L 407 103.5 L 406 103.5 L 404.5 100 Z " /><path fill="rgb(187,107,175)" stroke="rgb(187,107,175)" stroke-width="1" opacity="0.26666666666666666" d="M 41.5 102 L 42 105.5 L 41 105.5 L 41.5 102 Z " /><path fill="rgb(187,107,175)" stroke="rgb(187,107,175)" stroke-width="1" opacity="0.26666666666666666" d="M 183.5 102 L 184 165.5 L 183 165.5 L 183.5 102 Z " /><path fill="rgb(187,107,175)" stroke="rgb(187,107,175)" stroke-width="1" opacity="0.26666666666666666" d="M 226.5 102 L 227 112.5 L 226 112.5 L 226.5 102 Z " /><path fill="rgb(187,107,175)" stroke="rgb(187,107,175)" stroke-width="1" opacity="0.26666666666666666" d="M 392.5 104 L 393 107.5 L 392 107.5 L 392.5 104 Z " /><path fill="rgb(187,107,175)" stroke="rgb(187,107,175)" stroke-width="1" opacity="0.26666666666666666" d="M 146.5 106 L 148.5 109 L 146.5 106 Z " /><path fill="rgb(187,107,175)" stroke="rgb(187,107,175)" stroke-width="1" opacity="0.26666666666666666" d="M 365.5 106 L 378 106 L 378 118 L 385.5 118 L 385.5 119 Q 378.7 120.8 377 117.5 L 377 107 L 365 107 L 365 117.5 L 363.5 119 L 358 119 L 358 127.5 L 357 127.5 L 357 118 L 364 118 L 364 107.5 L 365.5 106 Z " /><path fill="rgb(187,107,175)" stroke="rgb(187,107,175)" stroke-width="1" opacity="0.26666666666666666" d="M 139.5 109 L 140 119.5 L 139 119.5 L 139.5 109 Z " /><path fill="rgb(187,107,175)" stroke="rgb(187,107,175)" stroke-width="1" opacity="0.26666666666666666" d="M 406.5 109 L 403.5 113 L 402 112.5 L 406.5 109 Z " /><path fill="rgb(187,107,175)" stroke="rgb(187,107,175)" stroke-width="1" opacity="0.26666666666666666" d="M 42.5 111 L 43 114.5 L 42 114.5 L 42.5 111 Z " /><path fill="rgb(187,107,175)" stroke="rgb(187,107,175)" stroke-width="1" opacity="0.26666666666666666" d="M 255.5 117 L 263 117.5 L 255.5 118 L 255.5 117 Z " /><path fill="rgb(187,107,175)" stroke="rgb(187,107,175)" stroke-width="1" opacity="0.26666666666666666" d="M 282.5 117 L 291 117.5 L 282.5 118 L 282.5 117 Z " /><path fill="rgb(187,107,175)" stroke="rgb(187,107,175)" stroke-width="1" opacity="0.26666666666666666" d="M 327.5 117 L 337 117.5 L 327.5 118 L 327.5 117 Z " /><path fill="rgb(187,107,175)" stroke="rgb(187,107,175)" stroke-width="1" opacity="0.26666666666666666" d="M 432.5 117 L 442 117.5 L 432.5 118 L 432.5 117 Z " /><path fill="rgb(187,107,175)" stroke="rgb(187,107,175)" stroke-width="1" opacity="0.26666666666666666" d="M 489.5 117 L 498 117.5 L 489.5 118 L 489.5 117 Z " /><path fill="rgb(187,107,175)" stroke="rgb(187,107,175)" stroke-width="1" opacity="0.26666666666666666" d="M 233 118 L 245.5 118 L 246 119.5 L 244.5 119 L 234.5 119 L 234 119.5 L 234 165.5 L 233 165.5 L 233 118 Z " /><path fill="rgb(187,107,175)" stroke="rgb(187,107,175)" stroke-width="1" opacity="0.26666666666666666" d="M 265.5 118 L 268 119.5 L 266.5 119 L 265.5 118 Z " /><path fill="rgb(187,107,175)" stroke="rgb(187,107,175)" stroke-width="1" opacity="0.26666666666666666" d="M 393.5 118 L 406.5 118 L 407 118.5 L 407 165.5 L 406 165.5 L 406 119.5 L 405.5 119 L 393.5 119 L 393.5 118 Z " /><path fill="rgb(187,107,175)" stroke="rgb(187,107,175)" stroke-width="1" opacity="0.26666666666666666" d="M 428.5 118 L 430 118.5 Q 422.4 120.9 418.5 127 L 424.5 120 L 428.5 118 Z " /><path fill="rgb(187,107,175)" stroke="rgb(187,107,175)" stroke-width="1" opacity="0.26666666666666666" d="M 467.5 118 L 479.5 118 L 480 121.5 L 483 120.5 L 479 123 L 479 119 L 467.5 119 L 467.5 118 Z " /><path fill="rgb(187,107,175)" stroke="rgb(187,107,175)" stroke-width="1" opacity="0.26666666666666666" d="M 43.5 119 L 44 121.5 L 43 121.5 L 43.5 119 Z " /><path fill="rgb(187,107,175)" stroke="rgb(187,107,175)" stroke-width="1" opacity="0.26666666666666666" d="M 295.5 119 L 301 126.5 L 300 126.5 L 295.5 119 Z " /><path fill="rgb(187,107,175)" stroke="rgb(187,107,175)" stroke-width="1" opacity="0.26666666666666666" d="M 502.5 119 L 505.5 123 L 502.5 119 Z " /><path fill="rgb(187,107,175)" stroke="rgb(187,107,175)" stroke-width="1" opacity="0.26666666666666666" d="M 248.5 120 L 246.5 123 L 248.5 120 Z " /><path fill="rgb(187,107,175)" stroke="rgb(187,107,175)" stroke-width="1" opacity="0.26666666666666666" d="M 269.5 120 L 270.5 122 L 269.5 120 Z " /><path fill="rgb(187,107,175)" stroke="rgb(187,107,175)" stroke-width="1" opacity="0.26666666666666666" d="M 275.5 120 L 272.5 124 L 271 123.5 L 275.5 120 Z " /><path fill="rgb(187,107,175)" stroke="rgb(187,107,175)" stroke-width="1" opacity="0.26666666666666666" d="M 319.5 120 L 318.5 122 L 319.5 120 Z " /><path fill="rgb(187,107,175)" stroke="rgb(187,107,175)" stroke-width="1" opacity="0.26666666666666666" d="M 344.5 120 L 346.5 123 L 344.5 120 Z " /><path fill="rgb(187,107,175)" stroke="rgb(187,107,175)" stroke-width="1" opacity="0.26666666666666666" d="M 449.5 120 L 450.5 122 L 449.5 120 Z " /><path fill="rgb(187,107,175)" stroke="rgb(187,107,175)" stroke-width="1" opacity="0.26666666666666666" d="M 452.5 122 L 454.5 125 L 452.5 122 Z " /><path fill="rgb(187,107,175)" stroke="rgb(187,107,175)" stroke-width="1" opacity="0.26666666666666666" d="M 314.5 125 L 313.5 127 L 314.5 125 Z " /><path fill="rgb(187,107,175)" stroke="rgb(187,107,175)" stroke-width="1" opacity="0.26666666666666666" d="M 349.5 125 L 353 130.5 L 352 130.5 L 349.5 125 Z " /><path fill="rgb(187,107,175)" stroke="rgb(187,107,175)" stroke-width="1" opacity="0.26666666666666666" d="M 455.5 126 L 456.5 128 L 455.5 126 Z " /><path fill="rgb(187,107,175)" stroke="rgb(187,107,175)" stroke-width="1" opacity="0.26666666666666666" d="M 222.5 128 L 223 139 L 197 138.5 L 222 138 L 222.5 128 Z " /><path fill="rgb(187,107,175)" stroke="rgb(187,107,175)" stroke-width="1" opacity="0.26666666666666666" d="M 250.5 128 L 252 128.5 L 249.5 130 L 250.5 128 Z " /><path fill="rgb(187,107,175)" stroke="rgb(187,107,175)" stroke-width="1" opacity="0.26666666666666666" d="M 278.5 128 L 280 128.5 L 277.5 130 L 278.5 128 Z " /><path fill="rgb(187,107,175)" stroke="rgb(187,107,175)" stroke-width="1" opacity="0.26666666666666666" d="M 328.5 128 L 330 128.5 L 327.5 130 L 328.5 128 Z " /><path fill="rgb(187,107,175)" stroke="rgb(187,107,175)" stroke-width="1" opacity="0.26666666666666666" d="M 334.5 128 L 337 129.5 L 335.5 129 L 334.5 128 Z " /><path fill="rgb(187,107,175)" stroke="rgb(187,107,175)" stroke-width="1" opacity="0.26666666666666666" d="M 364.5 128 L 365 154.5 L 364 154.5 L 364.5 128 Z " /><path fill="rgb(187,107,175)" stroke="rgb(187,107,175)" stroke-width="1" opacity="0.26666666666666666" d="M 377.5 128 L 378 151.5 L 377 151.5 L 377.5 128 Z " /><path fill="rgb(187,107,175)" stroke="rgb(187,107,175)" stroke-width="1" opacity="0.26666666666666666" d="M 433.5 128 L 435 128.5 L 432.5 130 L 433.5 128 Z " /><path fill="rgb(187,107,175)" stroke="rgb(187,107,175)" stroke-width="1" opacity="0.26666666666666666" d="M 484.5 128 L 486 128.5 L 483.5 130 L 484.5 128 Z " /><path fill="rgb(187,107,175)" stroke="rgb(187,107,175)" stroke-width="1" opacity="0.26666666666666666" d="M 286.5 129 L 287.5 131 L 286.5 129 Z " /><path fill="rgb(187,107,175)" stroke="rgb(187,107,175)" stroke-width="1" opacity="0.26666666666666666" d="M 301.5 129 L 302 132.5 L 301 132.5 L 301.5 129 Z " /><path fill="rgb(187,107,175)" stroke="rgb(187,107,175)" stroke-width="1" opacity="0.26666666666666666" d="M 442.5 129 L 443.5 131 L 442.5 129 Z " /><path fill="rgb(187,107,175)" stroke="rgb(187,107,175)" stroke-width="1" opacity="0.26666666666666666" d="M 259.5 130 L 261 132.5 L 260 132.5 L 259.5 130 Z " /><path fill="rgb(187,107,175)" stroke="rgb(187,107,175)" stroke-width="1" opacity="0.26666666666666666" d="M 430.5 131 L 429.5 133 L 430.5 131 Z " /><path fill="rgb(187,107,175)" stroke="rgb(187,107,175)" stroke-width="1" opacity="0.26666666666666666" d="M 508.5 131 L 509 165.5 L 508 165.5 L 508.5 131 Z " /><path fill="rgb(187,107,175)" stroke="rgb(187,107,175)" stroke-width="1" opacity="0.26666666666666666" d="M 134.5 132 L 133.5 134 L 134.5 132 Z " /><path fill="rgb(187,107,175)" stroke="rgb(187,107,175)" stroke-width="1" opacity="0.26666666666666666" d="M 246.5 132 L 247 165.5 L 246 165.5 L 246.5 132 Z " /><path fill="rgb(187,107,175)" stroke="rgb(187,107,175)" stroke-width="1" opacity="0.26666666666666666" d="M 288.5 132 L 289 165.5 L 288 165.5 L 288.5 132 Z " /><path fill="rgb(187,107,175)" stroke="rgb(187,107,175)" stroke-width="1" opacity="0.26666666666666666" d="M 444.5 132 L 446 134.5 L 445 134.5 L 444.5 132 Z " /><path fill="rgb(187,107,175)" stroke="rgb(187,107,175)" stroke-width="1" opacity="0.26666666666666666" d="M 495.5 133 L 496 165.5 L 495 165.5 L 495.5 133 Z " /><path fill="rgb(187,107,175)" stroke="rgb(187,107,175)" stroke-width="1" opacity="0.26666666666666666" d="M 132.5 135 L 132 136.5 L 131.5 138 L 131 136.5 L 132.5 135 Z " /><path fill="rgb(187,107,175)" stroke="rgb(187,107,175)" stroke-width="1" opacity="0.26666666666666666" d="M 459.5 135 L 460 137.5 L 459 137.5 L 459.5 135 Z " /><path fill="rgb(187,107,175)" stroke="rgb(187,107,175)" stroke-width="1" opacity="0.26666666666666666" d="M 309.5 136 L 310 147.5 L 309 147.5 L 309.5 136 Z " /><path fill="rgb(187,107,175)" stroke="rgb(187,107,175)" stroke-width="1" opacity="0.26666666666666666" d="M 354.5 136 L 355 148.5 L 354 148.5 L 354.5 136 Z " /><path fill="rgb(187,107,175)" stroke="rgb(187,107,175)" stroke-width="1" opacity="0.26666666666666666" d="M 446.5 136 L 447 139.5 L 446 139.5 L 446.5 136 Z " /><path fill="rgb(187,107,175)" stroke="rgb(187,107,175)" stroke-width="1" opacity="0.26666666666666666" d="M 341.5 137 L 342 146.5 L 341 146.5 L 341.5 137 Z " /><path fill="rgb(187,107,175)" stroke="rgb(187,107,175)" stroke-width="1" opacity="0.26666666666666666" d="M 414.5 137 L 415 146.5 L 414 146.5 L 414.5 137 Z " /><path fill="rgb(187,107,175)" stroke="rgb(187,107,175)" stroke-width="1" opacity="0.26666666666666666" d="M 322.5 138 L 323 146.5 L 322 146.5 L 322.5 138 Z " /><path fill="rgb(187,107,175)" stroke="rgb(187,107,175)" stroke-width="1" opacity="0.26666666666666666" d="M 427.5 139 L 428 145.5 L 427 145.5 L 427.5 139 Z " /><path fill="rgb(187,107,175)" stroke="rgb(187,107,175)" stroke-width="1" opacity="0.26666666666666666" d="M 37.5 144 L 32 150.5 L 31.5 152 L 31 150.5 L 37.5 144 Z " /><path fill="rgb(187,107,175)" stroke="rgb(187,107,175)" stroke-width="1" opacity="0.26666666666666666" d="M 446.5 144 L 447 147.5 L 446 147.5 L 446.5 144 Z " /><path fill="rgb(187,107,175)" stroke="rgb(187,107,175)" stroke-width="1" opacity="0.26666666666666666" d="M 134.5 145 L 136 147.5 L 134 146.5 L 134.5 145 Z " /><path fill="rgb(187,107,175)" stroke="rgb(187,107,175)" stroke-width="1" opacity="0.26666666666666666" d="M 459.5 146 L 460 149.5 L 459 149.5 L 459.5 146 Z " /><path fill="rgb(187,107,175)" stroke="rgb(187,107,175)" stroke-width="1" opacity="0.26666666666666666" d="M 45.5 148 L 46.5 150 L 45.5 148 Z " /><path fill="rgb(187,107,175)" stroke="rgb(187,107,175)" stroke-width="1" opacity="0.26666666666666666" d="M 137.5 151 L 138.5 153 L 137.5 151 Z " /><path fill="rgb(187,107,175)" stroke="rgb(187,107,175)" stroke-width="1" opacity="0.26666666666666666" d="M 324.5 152 L 327.5 156 L 324.5 152 Z " /><path fill="rgb(187,107,175)" stroke="rgb(187,107,175)" stroke-width="1" opacity="0.26666666666666666" d="M 339.5 152 L 336.5 156 L 335 155.5 L 339.5 152 Z " /><path fill="rgb(187,107,175)" stroke="rgb(187,107,175)" stroke-width="1" opacity="0.26666666666666666" d="M 444.5 152 L 441.5 156 L 444.5 152 Z " /><path fill="rgb(187,107,175)" stroke="rgb(187,107,175)" stroke-width="1" opacity="0.26666666666666666" d="M 129.5 153 L 130 155.5 L 129 155.5 L 129.5 153 Z " /><path fill="rgb(187,107,175)" stroke="rgb(187,107,175)" stroke-width="1" opacity="0.26666666666666666" d="M 416.5 153 L 419 157.5 L 417 156.5 L 416.5 153 Z " /><path fill="rgb(187,107,175)" stroke="rgb(187,107,175)" stroke-width="1" opacity="0.26666666666666666" d="M 430.5 153 L 434 155.5 L 432.5 156 L 430.5 153 Z " /><path fill="rgb(187,107,175)" stroke="rgb(187,107,175)" stroke-width="1" opacity="0.26666666666666666" d="M 44.5 154 L 41.5 158 L 44.5 154 Z " /><path fill="rgb(187,107,175)" stroke="rgb(187,107,175)" stroke-width="1" opacity="0.26666666666666666" d="M 139.5 154 L 140.5 156 L 139.5 154 Z " /><path fill="rgb(187,107,175)" stroke="rgb(187,107,175)" stroke-width="1" opacity="0.26666666666666666" d="M 378.5 154 L 379.5 156 L 378.5 154 Z " /><path fill="rgb(187,107,175)" stroke="rgb(187,107,175)" stroke-width="1" opacity="0.26666666666666666" d="M 330.5 156 L 334 156.5 L 330.5 157 L 330.5 156 Z " /><path fill="rgb(187,107,175)" stroke="rgb(187,107,175)" stroke-width="1" opacity="0.26666666666666666" d="M 386.5 156 L 387 165.5 L 386 165.5 L 386.5 156 Z " /><path fill="rgb(187,107,175)" stroke="rgb(187,107,175)" stroke-width="1" opacity="0.26666666666666666" d="M 435.5 156 L 439 156.5 L 435.5 157 L 435.5 156 Z " /><path fill="rgb(187,107,175)" stroke="rgb(187,107,175)" stroke-width="1" opacity="0.26666666666666666" d="M 313.5 158 L 317.5 163 L 313.5 158 Z " /><path fill="rgb(187,107,175)" stroke="rgb(187,107,175)" stroke-width="1" opacity="0.26666666666666666" d="M 350.5 158 L 345.5 164 L 350.5 158 Z " /><path fill="rgb(187,107,175)" stroke="rgb(187,107,175)" stroke-width="1" opacity="0.26666666666666666" d="M 455.5 158 L 450.5 164 L 455.5 158 Z " /><path fill="rgb(187,107,175)" stroke="rgb(187,107,175)" stroke-width="1" opacity="0.26666666666666666" d="M 419.5 159 L 422.5 163 L 419.5 159 Z " /><path fill="rgb(187,107,175)" stroke="rgb(187,107,175)" stroke-width="1" opacity="0.26666666666666666" d="M 366.5 161 L 370.5 166 L 366.5 161 Z " /><path fill="rgb(187,107,175)" stroke="rgb(187,107,175)" stroke-width="1" opacity="0.26666666666666666" d="M 43.5 163 L 46 163.5 L 43.5 164 L 43.5 163 Z " /><path fill="rgb(187,107,175)" stroke="rgb(187,107,175)" stroke-width="1" opacity="0.26666666666666666" d="M 319.5 163 L 320.5 165 L 319.5 163 Z " /><path fill="rgb(187,107,175)" stroke="rgb(187,107,175)" stroke-width="1" opacity="0.26666666666666666" d="M 424.5 163 L 425.5 165 L 424.5 163 Z " /><path fill="rgb(187,107,175)" stroke="rgb(187,107,175)" stroke-width="1" opacity="0.26666666666666666" d="M 134.5 164 L 136.5 167 L 134.5 164 Z " /><path fill="rgb(187,107,175)" stroke="rgb(187,107,175)" stroke-width="1" opacity="0.26666666666666666" d="M 325.5 166 L 328 166.5 L 325.5 167 L 325.5 166 Z " /><path fill="rgb(187,107,175)" stroke="rgb(187,107,175)" stroke-width="1" opacity="0.26666666666666666" d="M 430.5 166 L 433 166.5 L 430.5 167 L 430.5 166 Z " /><path fill="rgb(187,107,175)" stroke="rgb(187,107,175)" stroke-width="1" opacity="0.26666666666666666" d="M 39.5 169 L 37.5 172 L 39.5 169 Z " /><path fill="rgb(187,107,175)" stroke="rgb(187,107,175)" stroke-width="1" opacity="0.26666666666666666" d="M 38.5 175 L 45 175.5 L 38.5 176 L 38.5 175 Z " /><path fill="rgb(187,107,175)" stroke="rgb(187,107,175)" stroke-width="1" opacity="0.26666666666666666" d="M 48.5 176 L 53 177.5 L 50.5 178 L 48.5 176 Z " /><path fill="rgb(187,107,175)" stroke="rgb(187,107,175)" stroke-width="1" opacity="0.26666666666666666" d="M 43.5 178 L 46 178.5 L 43.5 179 L 43.5 178 Z " /><path fill="rgb(187,107,175)" stroke="rgb(187,107,175)" stroke-width="1" opacity="0.26666666666666666" d="M 152.5 182 L 155 185.5 L 153 186.5 L 154 184.5 L 152.5 182 Z " /><path fill="rgb(187,107,175)" stroke="rgb(187,107,175)" stroke-width="1" opacity="0.26666666666666666" d="M 30.5 191 L 31.5 193 L 30.5 191 Z " /><path fill="rgb(187,107,175)" stroke="rgb(187,107,175)" stroke-width="1" opacity="0.26666666666666666" d="M 148.5 191 L 149.5 193 L 148.5 191 Z " /><path fill="rgb(187,107,175)" stroke="rgb(187,107,175)" stroke-width="1" opacity="0.26666666666666666" d="M 32.5 194 L 31.5 196 L 32.5 194 Z " /><path fill="rgb(187,107,175)" stroke="rgb(187,107,175)" stroke-width="1" opacity="0.26666666666666666" d="M 151.5 195 L 152.5 197 L 151.5 195 Z " /><path fill="rgb(187,107,175)" stroke="rgb(187,107,175)" stroke-width="1" opacity="0.26666666666666666" d="M 26.5 203 L 25.5 205 L 26.5 203 Z " /></svg>