<svg width="256" height="256" version="1.1" xmlns="http://www.w3.org/2000/svg" desc="Created with imagetracer.js version 1.2.6" ><path fill="rgb(0,0,0)" stroke="rgb(0,0,0)" stroke-width="1" opacity="0" d="M 0 0 L 114 0.5 L 90.5 5 L 65.5 16 Q 44.1 28.1 29 46.5 Q 17.7 60.2 10 77.5 L 4 94.5 L 0.5 115 L 0 0 Z " /><path fill="rgb(0,0,0)" stroke="rgb(0,0,0)" stroke-width="1" opacity="0" d="M 142.5 0 L 256 0 L 256 114.5 L 255 114.5 L 255 108.5 L 252 94.5 Q 247.5 78.5 240 65.5 Q 227.9 44.1 209.5 29 Q 194.9 17.1 176.5 9 L 153.5 2 L 142.5 1 L 142.5 0 Z " /><path fill="rgb(0,0,0)" stroke="rgb(0,0,0)" stroke-width="1" opacity="0" d="M 124.5 15 L 149.5 17 L 169.5 23 Q 198.3 34.7 216 57.5 Q 229.7 74.8 237 98.5 L 240 113.5 L 241 133.5 L 240 134.5 L 240 143.5 L 238 154.5 L 232 172.5 Q 221.8 195.3 204.5 211 Q 188.9 225.9 166.5 234 L 166 198.5 L 162 185 Q 184.8 179.6 198 163.5 Q 212.3 148.3 212 118.5 L 207 97.5 L 199 83.5 L 200 82.5 Q 198.5 73 201 67.5 L 199 56.5 L 193.5 48 Q 189.8 44.7 181.5 46 Q 166 49.5 155.5 58 L 152.5 58 L 141.5 55 L 114.5 55 L 100.5 58 L 84.5 49 L 74.5 46 L 66.5 46 L 60 50.5 L 57 56.5 L 55 69.5 L 56 70.5 L 56 82.5 L 57 84.5 Q 49.3 93.3 46 106.5 L 45 117.5 L 44 118.5 L 44 129.5 L 46 140.5 L 53 156.5 L 66.5 172 Q 77.8 181.7 94 185 L 91 193.5 L 91 198 L 81.5 200 Q 72.6 198.4 69 191.5 L 57.5 178 L 48.5 174 L 41 174 L 42 189 Q 50.9 190.2 55 197.5 L 65.5 210 L 76.5 215 L 90 215 L 89.5 234 Q 61.8 223.7 44 203.5 Q 30.2 188.3 22 167.5 L 16 143.5 L 15 124.5 L 16 123.5 L 16 113.5 L 19 98.5 L 30 72.5 Q 40.8 53.3 57.5 40 Q 73.3 27.3 94.5 20 L 106.5 17 L 123.5 16 L 124.5 15 Z " /><path fill="rgb(0,0,0)" stroke="rgb(0,0,0)" stroke-width="1" opacity="0" d="M 72 62 L 80.5 64 L 97.5 74 L 102.5 74 L 113.5 71 L 132.5 70 L 133.5 71 L 142.5 71 L 152.5 74 L 158.5 74 L 175.5 64 L 184 62 L 185 64.5 L 185 78.5 Q 182.3 81.8 183 88.5 Q 191.2 97.3 195 110.5 L 196 115.5 L 196 131.5 Q 192.5 150.5 179.5 160 Q 169.9 167.4 156.5 171 L 136 174 L 147 190.5 L 150 197.5 L 150 239 L 124.5 241 L 123.5 240 L 112.5 240 L 106 239 L 106 197.5 L 109 190.5 L 120 174 L 99.5 171 L 90.5 168 Q 77.1 162.9 69 152.5 Q 57.9 140.6 60 115.5 Q 63.1 98.6 73 88.5 L 73 83.5 Q 69 77 71 64.5 L 72 62 Z " /><path fill="rgb(0,0,0)" stroke="rgb(0,0,0)" stroke-width="1" opacity="0" d="M 0.5 142 Q 2.7 164.8 11 181.5 Q 22 205.5 40.5 222 Q 67.1 248.9 114 255.5 L 0 256 L 0.5 142 Z " /><path fill="rgb(0,0,0)" stroke="rgb(0,0,0)" stroke-width="1" opacity="0" d="M 255.5 142 L 256 256 L 142 255.5 L 154.5 254 Q 158.5 251 165.5 251 L 189.5 241 Q 208.8 230.3 223 214.5 Q 237.1 199.6 246 179.5 L 252 162.5 L 255.5 142 Z " /><path fill="rgb(0,0,0)" stroke="rgb(0,0,0)" stroke-width="1" opacity="0.8588235294117647" d="M 121.5 0 L 127 0.5 L 121.5 1 L 121.5 0 Z " /><path fill="rgb(0,0,0)" stroke="rgb(0,0,0)" stroke-width="1" opacity="0.8588235294117647" d="M 129.5 0 L 135 0.5 L 129.5 1 L 129.5 0 Z " /><path fill="rgb(0,0,0)" stroke="rgb(0,0,0)" stroke-width="1" opacity="0.8588235294117647" d="M 41.5 34 L 34.5 42 L 41.5 34 Z " /><path fill="rgb(0,0,0)" stroke="rgb(0,0,0)" stroke-width="1" opacity="0.8588235294117647" d="M 214.5 34 L 221.5 42 L 214.5 34 Z " /><path fill="rgb(0,0,0)" stroke="rgb(0,0,0)" stroke-width="1" opacity="0.8588235294117647" d="M 60.5 37 L 59.5 39 L 60.5 37 Z " /><path fill="rgb(0,0,0)" stroke="rgb(0,0,0)" stroke-width="1" opacity="0.8588235294117647" d="M 195.5 37 L 196.5 39 L 195.5 37 Z " /><path fill="rgb(0,0,0)" stroke="rgb(0,0,0)" stroke-width="1" opacity="0.8588235294117647" d="M 56.5 40 L 54.5 43 L 56.5 40 Z " /><path fill="rgb(0,0,0)" stroke="rgb(0,0,0)" stroke-width="1" opacity="0.8588235294117647" d="M 199.5 40 L 201.5 43 L 199.5 40 Z " /><path fill="rgb(0,0,0)" stroke="rgb(0,0,0)" stroke-width="1" opacity="0.8588235294117647" d="M 29.5 47 L 28.5 49 L 29.5 47 Z " /><path fill="rgb(0,0,0)" stroke="rgb(0,0,0)" stroke-width="1" opacity="0.8588235294117647" d="M 191.5 47 L 192.5 49 L 191.5 47 Z " /><path fill="rgb(0,0,0)" stroke="rgb(0,0,0)" stroke-width="1" opacity="0.8588235294117647" d="M 226.5 47 L 227.5 49 L 226.5 47 Z " /><path fill="rgb(0,0,0)" stroke="rgb(0,0,0)" stroke-width="1" opacity="0.8588235294117647" d="M 26.5 51 L 25.5 53 L 26.5 51 Z " /><path fill="rgb(0,0,0)" stroke="rgb(0,0,0)" stroke-width="1" opacity="0.8588235294117647" d="M 229.5 51 L 230.5 53 L 229.5 51 Z " /><path fill="rgb(0,0,0)" stroke="rgb(0,0,0)" stroke-width="1" opacity="0.8588235294117647" d="M 43.5 53 L 40.5 57 L 43.5 53 Z " /><path fill="rgb(0,0,0)" stroke="rgb(0,0,0)" stroke-width="1" opacity="0.8588235294117647" d="M 212.5 53 L 215.5 57 L 212.5 53 Z " /><path fill="rgb(0,0,0)" stroke="rgb(0,0,0)" stroke-width="1" opacity="0.8588235294117647" d="M 23.5 55 L 22.5 57 L 23.5 55 Z " /><path fill="rgb(0,0,0)" stroke="rgb(0,0,0)" stroke-width="1" opacity="0.8588235294117647" d="M 120.5 55 L 125 55.5 L 120.5 56 L 120.5 55 Z " /><path fill="rgb(0,0,0)" stroke="rgb(0,0,0)" stroke-width="1" opacity="0.8588235294117647" d="M 131.5 55 L 136 55.5 L 131.5 56 L 131.5 55 Z " /><path fill="rgb(0,0,0)" stroke="rgb(0,0,0)" stroke-width="1" opacity="0.8588235294117647" d="M 232.5 55 L 233.5 57 L 232.5 55 Z " /><path fill="rgb(0,0,0)" stroke="rgb(0,0,0)" stroke-width="1" opacity="0.8588235294117647" d="M 100.5 58 L 103 58.5 L 100.5 59 L 100.5 58 Z " /><path fill="rgb(0,0,0)" stroke="rgb(0,0,0)" stroke-width="1" opacity="0.8588235294117647" d="M 153.5 58 L 156 58.5 L 153.5 59 L 153.5 58 Z " /><path fill="rgb(0,0,0)" stroke="rgb(0,0,0)" stroke-width="1" opacity="0.8588235294117647" d="M 38.5 59 L 37.5 61 L 38.5 59 Z " /><path fill="rgb(0,0,0)" stroke="rgb(0,0,0)" stroke-width="1" opacity="0.8588235294117647" d="M 217.5 59 L 218.5 61 L 217.5 59 Z " /><path fill="rgb(0,0,0)" stroke="rgb(0,0,0)" stroke-width="1" opacity="0.8588235294117647" d="M 35.5 63 L 34.5 65 L 35.5 63 Z " /><path fill="rgb(0,0,0)" stroke="rgb(0,0,0)" stroke-width="1" opacity="0.8588235294117647" d="M 220.5 63 L 221.5 65 L 220.5 63 Z " /><path fill="rgb(0,0,0)" stroke="rgb(0,0,0)" stroke-width="1" opacity="0.8588235294117647" d="M 70.5 65 L 71 69.5 L 70 69.5 L 70.5 65 Z " /><path fill="rgb(0,0,0)" stroke="rgb(0,0,0)" stroke-width="1" opacity="0.8588235294117647" d="M 185.5 65 L 186 69.5 L 185 69.5 L 185.5 65 Z " /><path fill="rgb(0,0,0)" stroke="rgb(0,0,0)" stroke-width="1" opacity="0.8588235294117647" d="M 70.5 73 L 71 76.5 L 70 76.5 L 70.5 73 Z " /><path fill="rgb(0,0,0)" stroke="rgb(0,0,0)" stroke-width="1" opacity="0.8588235294117647" d="M 185.5 73 L 186 76.5 L 185 76.5 L 185.5 73 Z " /><path fill="rgb(0,0,0)" stroke="rgb(0,0,0)" stroke-width="1" opacity="0.8588235294117647" d="M 68.5 94 L 67.5 96 L 68.5 94 Z " /><path fill="rgb(0,0,0)" stroke="rgb(0,0,0)" stroke-width="1" opacity="0.8588235294117647" d="M 187.5 94 L 188.5 96 L 187.5 94 Z " /><path fill="rgb(0,0,0)" stroke="rgb(0,0,0)" stroke-width="1" opacity="0.8588235294117647" d="M 59.5 117 L 60 119.5 L 59 119.5 L 59.5 117 Z " /><path fill="rgb(0,0,0)" stroke="rgb(0,0,0)" stroke-width="1" opacity="0.8588235294117647" d="M 196.5 117 L 197 119.5 L 196 119.5 L 196.5 117 Z " /><path fill="rgb(0,0,0)" stroke="rgb(0,0,0)" stroke-width="1" opacity="0.8588235294117647" d="M 0.5 121 L 1 126.5 L 0 126.5 L 0.5 121 Z " /><path fill="rgb(0,0,0)" stroke="rgb(0,0,0)" stroke-width="1" opacity="0.8588235294117647" d="M 255.5 121 L 256 126.5 L 255 126.5 L 255.5 121 Z " /><path fill="rgb(0,0,0)" stroke="rgb(0,0,0)" stroke-width="1" opacity="0.8588235294117647" d="M 0.5 130 L 1 135.5 L 0 135.5 L 0.5 130 Z " /><path fill="rgb(0,0,0)" stroke="rgb(0,0,0)" stroke-width="1" opacity="0.8588235294117647" d="M 255.5 130 L 256 135.5 L 255 135.5 L 255.5 130 Z " /><path fill="rgb(0,0,0)" stroke="rgb(0,0,0)" stroke-width="1" opacity="0.8588235294117647" d="M 69.5 153 L 70.5 155 L 69.5 153 Z " /><path fill="rgb(0,0,0)" stroke="rgb(0,0,0)" stroke-width="1" opacity="0.8588235294117647" d="M 186.5 153 L 185.5 155 L 186.5 153 Z " /><path fill="rgb(0,0,0)" stroke="rgb(0,0,0)" stroke-width="1" opacity="0.8588235294117647" d="M 72.5 156 L 76.5 161 L 72.5 156 Z " /><path fill="rgb(0,0,0)" stroke="rgb(0,0,0)" stroke-width="1" opacity="0.8588235294117647" d="M 183.5 156 L 179.5 161 L 183.5 156 Z " /><path fill="rgb(0,0,0)" stroke="rgb(0,0,0)" stroke-width="1" opacity="0.8588235294117647" d="M 56.5 160 L 57.5 162 L 56.5 160 Z " /><path fill="rgb(0,0,0)" stroke="rgb(0,0,0)" stroke-width="1" opacity="0.8588235294117647" d="M 199.5 160 L 198.5 162 L 199.5 160 Z " /><path fill="rgb(0,0,0)" stroke="rgb(0,0,0)" stroke-width="1" opacity="0.8588235294117647" d="M 67.5 171 L 68.5 173 L 67.5 171 Z " /><path fill="rgb(0,0,0)" stroke="rgb(0,0,0)" stroke-width="1" opacity="0.8588235294117647" d="M 188.5 171 L 187.5 173 L 188.5 171 Z " /><path fill="rgb(0,0,0)" stroke="rgb(0,0,0)" stroke-width="1" opacity="0.8588235294117647" d="M 116.5 179 L 115.5 181 L 116.5 179 Z " /><path fill="rgb(0,0,0)" stroke="rgb(0,0,0)" stroke-width="1" opacity="0.8588235294117647" d="M 139.5 179 L 140.5 181 L 139.5 179 Z " /><path fill="rgb(0,0,0)" stroke="rgb(0,0,0)" stroke-width="1" opacity="0.8588235294117647" d="M 59.5 180 L 64.5 186 L 59.5 180 Z " /><path fill="rgb(0,0,0)" stroke="rgb(0,0,0)" stroke-width="1" opacity="0.8588235294117647" d="M 42.5 184 L 43 186.5 L 42 186.5 L 42.5 184 Z " /><path fill="rgb(0,0,0)" stroke="rgb(0,0,0)" stroke-width="1" opacity="0.8588235294117647" d="M 31.5 187 L 32.5 189 L 31.5 187 Z " /><path fill="rgb(0,0,0)" stroke="rgb(0,0,0)" stroke-width="1" opacity="0.8588235294117647" d="M 224.5 187 L 223.5 189 L 224.5 187 Z " /><path fill="rgb(0,0,0)" stroke="rgb(0,0,0)" stroke-width="1" opacity="0.8588235294117647" d="M 66.5 188 L 67.5 190 L 66.5 188 Z " /><path fill="rgb(0,0,0)" stroke="rgb(0,0,0)" stroke-width="1" opacity="0.8588235294117647" d="M 33.5 190 L 34.5 192 L 33.5 190 Z " /><path fill="rgb(0,0,0)" stroke="rgb(0,0,0)" stroke-width="1" opacity="0.8588235294117647" d="M 222.5 190 L 221.5 192 L 222.5 190 Z " /><path fill="rgb(0,0,0)" stroke="rgb(0,0,0)" stroke-width="1" opacity="0.8588235294117647" d="M 35.5 193 L 36.5 195 L 35.5 193 Z " /><path fill="rgb(0,0,0)" stroke="rgb(0,0,0)" stroke-width="1" opacity="0.8588235294117647" d="M 220.5 193 L 219.5 195 L 220.5 193 Z " /><path fill="rgb(0,0,0)" stroke="rgb(0,0,0)" stroke-width="1" opacity="0.8588235294117647" d="M 54.5 196 L 55.5 198 L 54.5 196 Z " /><path fill="rgb(0,0,0)" stroke="rgb(0,0,0)" stroke-width="1" opacity="0.8588235294117647" d="M 39.5 198 L 40.5 200 L 39.5 198 Z " /><path fill="rgb(0,0,0)" stroke="rgb(0,0,0)" stroke-width="1" opacity="0.8588235294117647" d="M 105.5 198 L 106 201.5 L 105 201.5 L 105.5 198 Z " /><path fill="rgb(0,0,0)" stroke="rgb(0,0,0)" stroke-width="1" opacity="0.8588235294117647" d="M 150.5 198 L 151 201.5 L 150 201.5 L 150.5 198 Z " /><path fill="rgb(0,0,0)" stroke="rgb(0,0,0)" stroke-width="1" opacity="0.8588235294117647" d="M 216.5 198 L 215.5 200 L 216.5 198 Z " /><path fill="rgb(0,0,0)" stroke="rgb(0,0,0)" stroke-width="1" opacity="0.8588235294117647" d="M 23.5 201 L 24.5 203 L 23.5 201 Z " /><path fill="rgb(0,0,0)" stroke="rgb(0,0,0)" stroke-width="1" opacity="0.8588235294117647" d="M 232.5 201 L 231.5 203 L 232.5 201 Z " /><path fill="rgb(0,0,0)" stroke="rgb(0,0,0)" stroke-width="1" opacity="0.8588235294117647" d="M 59.5 203 L 64.5 209 L 59.5 203 Z " /><path fill="rgb(0,0,0)" stroke="rgb(0,0,0)" stroke-width="1" opacity="0.8588235294117647" d="M 44.5 204 L 50.5 211 L 44.5 204 Z " /><path fill="rgb(0,0,0)" stroke="rgb(0,0,0)" stroke-width="1" opacity="0.8588235294117647" d="M 211.5 204 L 205.5 211 L 211.5 204 Z " /><path fill="rgb(0,0,0)" stroke="rgb(0,0,0)" stroke-width="1" opacity="0.8588235294117647" d="M 26.5 205 L 27.5 207 L 26.5 205 Z " /><path fill="rgb(0,0,0)" stroke="rgb(0,0,0)" stroke-width="1" opacity="0.8588235294117647" d="M 229.5 205 L 228.5 207 L 229.5 205 Z " /><path fill="rgb(0,0,0)" stroke="rgb(0,0,0)" stroke-width="1" opacity="0.8588235294117647" d="M 29.5 209 L 32.5 213 L 29.5 209 Z " /><path fill="rgb(0,0,0)" stroke="rgb(0,0,0)" stroke-width="1" opacity="0.8588235294117647" d="M 66.5 209 L 67.5 211 L 66.5 209 Z " /><path fill="rgb(0,0,0)" stroke="rgb(0,0,0)" stroke-width="1" opacity="0.8588235294117647" d="M 226.5 209 L 223.5 213 L 226.5 209 Z " /><path fill="rgb(0,0,0)" stroke="rgb(0,0,0)" stroke-width="1" opacity="0.8588235294117647" d="M 78.5 214 L 81 214.5 L 78.5 215 L 78.5 214 Z " /><path fill="rgb(0,0,0)" stroke="rgb(0,0,0)" stroke-width="1" opacity="0.8588235294117647" d="M 83.5 214 L 86 214.5 L 83.5 215 L 83.5 214 Z " /><path fill="rgb(0,0,0)" stroke="rgb(0,0,0)" stroke-width="1" opacity="0.8588235294117647" d="M 56.5 215 L 57.5 217 L 56.5 215 Z " /><path fill="rgb(0,0,0)" stroke="rgb(0,0,0)" stroke-width="1" opacity="0.8588235294117647" d="M 199.5 215 L 198.5 217 L 199.5 215 Z " /><path fill="rgb(0,0,0)" stroke="rgb(0,0,0)" stroke-width="1" opacity="0.8588235294117647" d="M 42.5 222 L 46.5 227 L 42.5 222 Z " /><path fill="rgb(0,0,0)" stroke="rgb(0,0,0)" stroke-width="1" opacity="0.8588235294117647" d="M 213.5 222 L 209.5 227 L 213.5 222 Z " /><path fill="rgb(0,0,0)" stroke="rgb(0,0,0)" stroke-width="1" opacity="0.8588235294117647" d="M 49.5 228 L 50.5 230 L 49.5 228 Z " /><path fill="rgb(0,0,0)" stroke="rgb(0,0,0)" stroke-width="1" opacity="0.8588235294117647" d="M 206.5 228 L 205.5 230 L 206.5 228 Z " /><path fill="rgb(0,0,0)" stroke="rgb(0,0,0)" stroke-width="1" opacity="0.8588235294117647" d="M 53.5 231 L 54.5 233 L 53.5 231 Z " /><path fill="rgb(0,0,0)" stroke="rgb(0,0,0)" stroke-width="1" opacity="0.8588235294117647" d="M 202.5 231 L 201.5 233 L 202.5 231 Z " /><path fill="rgb(0,0,0)" stroke="rgb(0,0,0)" stroke-width="1" opacity="0.8588235294117647" d="M 121.5 255 L 127 255.5 L 121.5 256 L 121.5 255 Z " /><path fill="rgb(0,0,0)" stroke="rgb(0,0,0)" stroke-width="1" opacity="0.8588235294117647" d="M 129.5 255 L 135 255.5 L 129.5 256 L 129.5 255 Z " /><path fill="rgb(0,0,0)" stroke="rgb(0,0,0)" stroke-width="1" opacity="0.996078431372549" d="M 47.5 29 L 45.5 32 L 47.5 29 Z " /><path fill="rgb(0,0,0)" stroke="rgb(0,0,0)" stroke-width="1" opacity="0.996078431372549" d="M 208.5 29 L 210.5 32 L 208.5 29 Z " /><path fill="rgb(0,0,0)" stroke="rgb(0,0,0)" stroke-width="1" opacity="0.996078431372549" d="M 32.5 44 L 30.5 47 L 32.5 44 Z " /><path fill="rgb(0,0,0)" stroke="rgb(0,0,0)" stroke-width="1" opacity="0.996078431372549" d="M 223.5 44 L 225.5 47 L 223.5 44 Z " /><path fill="rgb(0,0,0)" stroke="rgb(0,0,0)" stroke-width="1" opacity="0.996078431372549" d="M 50.5 45 L 46.5 50 L 50.5 45 Z " /><path fill="rgb(0,0,0)" stroke="rgb(0,0,0)" stroke-width="1" opacity="0.996078431372549" d="M 205.5 45 L 209.5 50 L 205.5 45 Z " /><path fill="rgb(0,0,0)" stroke="rgb(0,0,0)" stroke-width="1" opacity="0.996078431372549" d="M 61.5 50 L 60.5 52 L 61.5 50 Z " /><path fill="rgb(0,0,0)" stroke="rgb(0,0,0)" stroke-width="1" opacity="0.996078431372549" d="M 194.5 50 L 195.5 52 L 194.5 50 Z " /><path fill="rgb(0,0,0)" stroke="rgb(0,0,0)" stroke-width="1" opacity="0.996078431372549" d="M 0.5 127 L 1 129.5 L 0 129.5 L 0.5 127 Z " /><path fill="rgb(0,0,0)" stroke="rgb(0,0,0)" stroke-width="1" opacity="0.996078431372549" d="M 255.5 127 L 256 129.5 L 255 129.5 L 255.5 127 Z " /><path fill="rgb(0,0,0)" stroke="rgb(0,0,0)" stroke-width="1" opacity="0.996078431372549" d="M 58.5 162 L 59.5 164 L 58.5 162 Z " /><path fill="rgb(0,0,0)" stroke="rgb(0,0,0)" stroke-width="1" opacity="0.996078431372549" d="M 197.5 162 L 196.5 164 L 197.5 162 Z " /><path fill="rgb(0,0,0)" stroke="rgb(0,0,0)" stroke-width="1" opacity="0.996078431372549" d="M 42.5 174 L 46 174.5 L 42.5 175 L 42.5 174 Z " /><path fill="rgb(0,0,0)" stroke="rgb(0,0,0)" stroke-width="1" opacity="0.996078431372549" d="M 50.5 191 L 53.5 195 L 50.5 191 Z " /><path fill="rgb(0,0,0)" stroke="rgb(0,0,0)" stroke-width="1" opacity="0.996078431372549" d="M 70.5 194 L 72.5 197 L 70.5 194 Z " /><path fill="rgb(0,0,0)" stroke="rgb(0,0,0)" stroke-width="1" opacity="0.996078431372549" d="M 37.5 196 L 38.5 198 L 37.5 196 Z " /><path fill="rgb(0,0,0)" stroke="rgb(0,0,0)" stroke-width="1" opacity="0.996078431372549" d="M 218.5 196 L 217.5 198 L 218.5 196 Z " /><path fill="rgb(0,0,0)" stroke="rgb(0,0,0)" stroke-width="1" opacity="0.996078431372549" d="M 41.5 201 L 43.5 204 L 41.5 201 Z " /><path fill="rgb(0,0,0)" stroke="rgb(0,0,0)" stroke-width="1" opacity="0.996078431372549" d="M 214.5 201 L 212.5 204 L 214.5 201 Z " /><path fill="rgb(0,0,0)" stroke="rgb(0,0,0)" stroke-width="1" opacity="0.996078431372549" d="M 51.5 211 L 53.5 214 L 51.5 211 Z " /><path fill="rgb(0,0,0)" stroke="rgb(0,0,0)" stroke-width="1" opacity="0.996078431372549" d="M 204.5 211 L 202.5 214 L 204.5 211 Z " /><path fill="rgb(0,0,0)" stroke="rgb(0,0,0)" stroke-width="1" opacity="0.996078431372549" d="M 33.5 213 L 36.5 217 L 33.5 213 Z " /><path fill="rgb(0,0,0)" stroke="rgb(0,0,0)" stroke-width="1" opacity="0.996078431372549" d="M 222.5 213 L 219.5 217 L 222.5 213 Z " /><path fill="rgb(0,0,0)" stroke="rgb(0,0,0)" stroke-width="1" opacity="0.996078431372549" d="M 39.5 219 L 41.5 222 L 39.5 219 Z " /><path fill="rgb(0,0,0)" stroke="rgb(0,0,0)" stroke-width="1" opacity="0.996078431372549" d="M 216.5 219 L 214.5 222 L 216.5 219 Z " /><path fill="rgb(0,0,0)" stroke="rgb(0,0,0)" stroke-width="1" opacity="0.4235294117647059" d="M 114.5 0 L 121 0.5 L 114.5 1 L 114.5 0 Z " /><path fill="rgb(0,0,0)" stroke="rgb(0,0,0)" stroke-width="1" opacity="0.4235294117647059" d="M 135.5 0 L 142 0.5 L 135.5 1 L 135.5 0 Z " /><path fill="rgb(0,0,0)" stroke="rgb(0,0,0)" stroke-width="1" opacity="0.4235294117647059" d="M 116.5 15 L 124 15.5 L 116.5 16 L 116.5 15 Z " /><path fill="rgb(0,0,0)" stroke="rgb(0,0,0)" stroke-width="1" opacity="0.4235294117647059" d="M 132.5 15 L 140 15.5 L 132.5 16 L 132.5 15 Z " /><path fill="rgb(0,0,0)" stroke="rgb(0,0,0)" stroke-width="1" opacity="0.4235294117647059" d="M 110.5 16 L 113 16.5 L 110.5 17 L 110.5 16 Z " /><path fill="rgb(0,0,0)" stroke="rgb(0,0,0)" stroke-width="1" opacity="0.4235294117647059" d="M 143.5 16 L 146 16.5 L 143.5 17 L 143.5 16 Z " /><path fill="rgb(0,0,0)" stroke="rgb(0,0,0)" stroke-width="1" opacity="0.4235294117647059" d="M 54.5 23 L 53.5 25 L 54.5 23 Z " /><path fill="rgb(0,0,0)" stroke="rgb(0,0,0)" stroke-width="1" opacity="0.4235294117647059" d="M 201.5 23 L 202.5 25 L 201.5 23 Z " /><path fill="rgb(0,0,0)" stroke="rgb(0,0,0)" stroke-width="1" opacity="0.4235294117647059" d="M 50.5 26 L 49.5 28 L 50.5 26 Z " /><path fill="rgb(0,0,0)" stroke="rgb(0,0,0)" stroke-width="1" opacity="0.4235294117647059" d="M 205.5 26 L 206.5 28 L 205.5 26 Z " /><path fill="rgb(0,0,0)" stroke="rgb(0,0,0)" stroke-width="1" opacity="0.4235294117647059" d="M 46.5 29 L 42.5 34 L 46.5 29 Z " /><path fill="rgb(0,0,0)" stroke="rgb(0,0,0)" stroke-width="1" opacity="0.4235294117647059" d="M 209.5 29 L 213.5 34 L 209.5 29 Z " /><path fill="rgb(0,0,0)" stroke="rgb(0,0,0)" stroke-width="1" opacity="0.4235294117647059" d="M 63.5 35 L 62.5 37 L 63.5 35 Z " /><path fill="rgb(0,0,0)" stroke="rgb(0,0,0)" stroke-width="1" opacity="0.4235294117647059" d="M 192.5 35 L 193.5 37 L 192.5 35 Z " /><path fill="rgb(0,0,0)" stroke="rgb(0,0,0)" stroke-width="1" opacity="0.4235294117647059" d="M 33.5 42 L 29.5 47 L 33.5 42 Z " /><path fill="rgb(0,0,0)" stroke="rgb(0,0,0)" stroke-width="1" opacity="0.4235294117647059" d="M 222.5 42 L 226.5 47 L 222.5 42 Z " /><path fill="rgb(0,0,0)" stroke="rgb(0,0,0)" stroke-width="1" opacity="0.4235294117647059" d="M 53.5 43 L 44.5 53 L 53.5 43 Z " /><path fill="rgb(0,0,0)" stroke="rgb(0,0,0)" stroke-width="1" opacity="0.4235294117647059" d="M 202.5 43 L 211.5 53 L 202.5 43 Z " /><path fill="rgb(0,0,0)" stroke="rgb(0,0,0)" stroke-width="1" opacity="0.4235294117647059" d="M 72.5 46 L 75 46.5 L 72.5 47 L 72.5 46 Z " /><path fill="rgb(0,0,0)" stroke="rgb(0,0,0)" stroke-width="1" opacity="0.4235294117647059" d="M 181.5 46 L 184 46.5 L 181.5 47 L 181.5 46 Z " /><path fill="rgb(0,0,0)" stroke="rgb(0,0,0)" stroke-width="1" opacity="0.4235294117647059" d="M 62.5 48 L 60.5 51 L 62.5 48 Z " /><path fill="rgb(0,0,0)" stroke="rgb(0,0,0)" stroke-width="1" opacity="0.4235294117647059" d="M 193.5 48 L 195.5 51 L 193.5 48 Z " /><path fill="rgb(0,0,0)" stroke="rgb(0,0,0)" stroke-width="1" opacity="0.4235294117647059" d="M 27.5 49 L 26.5 51 L 27.5 49 Z " /><path fill="rgb(0,0,0)" stroke="rgb(0,0,0)" stroke-width="1" opacity="0.4235294117647059" d="M 228.5 49 L 229.5 51 L 228.5 49 Z " /><path fill="rgb(0,0,0)" stroke="rgb(0,0,0)" stroke-width="1" opacity="0.4235294117647059" d="M 24.5 53 L 23.5 55 L 24.5 53 Z " /><path fill="rgb(0,0,0)" stroke="rgb(0,0,0)" stroke-width="1" opacity="0.4235294117647059" d="M 231.5 53 L 232.5 55 L 231.5 53 Z " /><path fill="rgb(0,0,0)" stroke="rgb(0,0,0)" stroke-width="1" opacity="0.4235294117647059" d="M 96.5 55 L 97.5 57 L 96.5 55 Z " /><path fill="rgb(0,0,0)" stroke="rgb(0,0,0)" stroke-width="1" opacity="0.4235294117647059" d="M 114.5 55 L 120 55.5 L 114.5 56 L 114.5 55 Z " /><path fill="rgb(0,0,0)" stroke="rgb(0,0,0)" stroke-width="1" opacity="0.4235294117647059" d="M 136.5 55 L 142 55.5 L 136.5 56 L 136.5 55 Z " /><path fill="rgb(0,0,0)" stroke="rgb(0,0,0)" stroke-width="1" opacity="0.4235294117647059" d="M 20.5 59 L 19.5 61 L 20.5 59 Z " /><path fill="rgb(0,0,0)" stroke="rgb(0,0,0)" stroke-width="1" opacity="0.4235294117647059" d="M 235.5 59 L 236.5 61 L 235.5 59 Z " /><path fill="rgb(0,0,0)" stroke="rgb(0,0,0)" stroke-width="1" opacity="0.4235294117647059" d="M 56.5 60 L 57 62.5 L 56 62.5 L 56.5 60 Z " /><path fill="rgb(0,0,0)" stroke="rgb(0,0,0)" stroke-width="1" opacity="0.4235294117647059" d="M 199.5 60 L 200 62.5 L 199 62.5 L 199.5 60 Z " /><path fill="rgb(0,0,0)" stroke="rgb(0,0,0)" stroke-width="1" opacity="0.4235294117647059" d="M 37.5 61 L 36.5 63 L 37.5 61 Z " /><path fill="rgb(0,0,0)" stroke="rgb(0,0,0)" stroke-width="1" opacity="0.4235294117647059" d="M 72.5 61 L 72 62.5 L 71.5 64 L 71 62.5 L 72.5 61 Z " /><path fill="rgb(0,0,0)" stroke="rgb(0,0,0)" stroke-width="1" opacity="0.4235294117647059" d="M 183.5 61 L 185 63.5 L 184 63.5 L 183.5 61 Z " /><path fill="rgb(0,0,0)" stroke="rgb(0,0,0)" stroke-width="1" opacity="0.4235294117647059" d="M 218.5 61 L 219.5 63 L 218.5 61 Z " /><path fill="rgb(0,0,0)" stroke="rgb(0,0,0)" stroke-width="1" opacity="0.4235294117647059" d="M 17.5 64 L 16.5 66 L 17.5 64 Z " /><path fill="rgb(0,0,0)" stroke="rgb(0,0,0)" stroke-width="1" opacity="0.4235294117647059" d="M 238.5 64 L 239.5 66 L 238.5 64 Z " /><path fill="rgb(0,0,0)" stroke="rgb(0,0,0)" stroke-width="1" opacity="0.4235294117647059" d="M 55.5 67 L 56 69.5 L 55 69.5 L 55.5 67 Z " /><path fill="rgb(0,0,0)" stroke="rgb(0,0,0)" stroke-width="1" opacity="0.4235294117647059" d="M 200.5 67 L 201 69.5 L 200 69.5 L 200.5 67 Z " /><path fill="rgb(0,0,0)" stroke="rgb(0,0,0)" stroke-width="1" opacity="0.4235294117647059" d="M 31.5 70 L 30.5 72 L 31.5 70 Z " /><path fill="rgb(0,0,0)" stroke="rgb(0,0,0)" stroke-width="1" opacity="0.4235294117647059" d="M 70.5 70 L 71 72.5 L 70 72.5 L 70.5 70 Z " /><path fill="rgb(0,0,0)" stroke="rgb(0,0,0)" stroke-width="1" opacity="0.4235294117647059" d="M 117.5 70 L 121 70.5 L 117.5 71 L 117.5 70 Z " /><path fill="rgb(0,0,0)" stroke="rgb(0,0,0)" stroke-width="1" opacity="0.4235294117647059" d="M 133.5 70 L 139 70.5 L 133.5 71 L 133.5 70 Z " /><path fill="rgb(0,0,0)" stroke="rgb(0,0,0)" stroke-width="1" opacity="0.4235294117647059" d="M 185.5 70 L 186 72.5 L 185 72.5 L 185.5 70 Z " /><path fill="rgb(0,0,0)" stroke="rgb(0,0,0)" stroke-width="1" opacity="0.4235294117647059" d="M 224.5 70 L 225.5 72 L 224.5 70 Z " /><path fill="rgb(0,0,0)" stroke="rgb(0,0,0)" stroke-width="1" opacity="0.4235294117647059" d="M 152.5 73 L 155 73.5 L 152.5 74 L 152.5 73 Z " /><path fill="rgb(0,0,0)" stroke="rgb(0,0,0)" stroke-width="1" opacity="0.4235294117647059" d="M 56.5 80 L 57 82.5 L 56 82.5 L 56.5 80 Z " /><path fill="rgb(0,0,0)" stroke="rgb(0,0,0)" stroke-width="1" opacity="0.4235294117647059" d="M 199.5 80 L 200 82.5 L 199 82.5 L 199.5 80 Z " /><path fill="rgb(0,0,0)" stroke="rgb(0,0,0)" stroke-width="1" opacity="0.4235294117647059" d="M 72.5 83 L 73 88.5 L 72 88.5 L 72.5 83 Z " /><path fill="rgb(0,0,0)" stroke="rgb(0,0,0)" stroke-width="1" opacity="0.4235294117647059" d="M 183.5 83 L 184 88.5 L 183 88.5 L 183.5 83 Z " /><path fill="rgb(0,0,0)" stroke="rgb(0,0,0)" stroke-width="1" opacity="0.4235294117647059" d="M 1.5 108 L 2 110.5 L 1 110.5 L 1.5 108 Z " /><path fill="rgb(0,0,0)" stroke="rgb(0,0,0)" stroke-width="1" opacity="0.4235294117647059" d="M 254.5 108 L 255 110.5 L 254 110.5 L 254.5 108 Z " /><path fill="rgb(0,0,0)" stroke="rgb(0,0,0)" stroke-width="1" opacity="0.4235294117647059" d="M 16.5 110 L 17 112.5 L 16 112.5 L 16.5 110 Z " /><path fill="rgb(0,0,0)" stroke="rgb(0,0,0)" stroke-width="1" opacity="0.4235294117647059" d="M 239.5 110 L 240 112.5 L 239 112.5 L 239.5 110 Z " /><path fill="rgb(0,0,0)" stroke="rgb(0,0,0)" stroke-width="1" opacity="0.4235294117647059" d="M 0.5 115 L 1 120.5 L 0 120.5 L 0.5 115 Z " /><path fill="rgb(0,0,0)" stroke="rgb(0,0,0)" stroke-width="1" opacity="0.4235294117647059" d="M 255.5 115 L 256 120.5 L 255 120.5 L 255.5 115 Z " /><path fill="rgb(0,0,0)" stroke="rgb(0,0,0)" stroke-width="1" opacity="0.4235294117647059" d="M 15.5 117 L 16 123.5 L 15 123.5 L 15.5 117 Z " /><path fill="rgb(0,0,0)" stroke="rgb(0,0,0)" stroke-width="1" opacity="0.4235294117647059" d="M 240.5 117 L 241 123.5 L 240 123.5 L 240.5 117 Z " /><path fill="rgb(0,0,0)" stroke="rgb(0,0,0)" stroke-width="1" opacity="0.4235294117647059" d="M 44.5 118 L 45 129.5 L 44 129.5 L 44.5 118 Z " /><path fill="rgb(0,0,0)" stroke="rgb(0,0,0)" stroke-width="1" opacity="0.4235294117647059" d="M 211.5 118 L 212 129.5 L 211 129.5 L 211.5 118 Z " /><path fill="rgb(0,0,0)" stroke="rgb(0,0,0)" stroke-width="1" opacity="0.4235294117647059" d="M 59.5 120 L 60 127.5 L 59 127.5 L 59.5 120 Z " /><path fill="rgb(0,0,0)" stroke="rgb(0,0,0)" stroke-width="1" opacity="0.4235294117647059" d="M 196.5 120 L 197 127.5 L 196 127.5 L 196.5 120 Z " /><path fill="rgb(0,0,0)" stroke="rgb(0,0,0)" stroke-width="1" opacity="0.4235294117647059" d="M 60.5 132 L 61 134.5 L 60 134.5 L 60.5 132 Z " /><path fill="rgb(0,0,0)" stroke="rgb(0,0,0)" stroke-width="1" opacity="0.4235294117647059" d="M 195.5 132 L 196 134.5 L 195 134.5 L 195.5 132 Z " /><path fill="rgb(0,0,0)" stroke="rgb(0,0,0)" stroke-width="1" opacity="0.4235294117647059" d="M 15.5 134 L 16 139.5 L 15 139.5 L 15.5 134 Z " /><path fill="rgb(0,0,0)" stroke="rgb(0,0,0)" stroke-width="1" opacity="0.4235294117647059" d="M 240.5 134 L 241 139.5 L 240 139.5 L 240.5 134 Z " /><path fill="rgb(0,0,0)" stroke="rgb(0,0,0)" stroke-width="1" opacity="0.4235294117647059" d="M 0.5 136 L 1 141.5 L 0 141.5 L 0.5 136 Z " /><path fill="rgb(0,0,0)" stroke="rgb(0,0,0)" stroke-width="1" opacity="0.4235294117647059" d="M 255.5 136 L 256 141.5 L 255 141.5 L 255.5 136 Z " /><path fill="rgb(0,0,0)" stroke="rgb(0,0,0)" stroke-width="1" opacity="0.4235294117647059" d="M 16.5 144 L 17 146.5 L 16 146.5 L 16.5 144 Z " /><path fill="rgb(0,0,0)" stroke="rgb(0,0,0)" stroke-width="1" opacity="0.4235294117647059" d="M 239.5 144 L 240 146.5 L 239 146.5 L 239.5 144 Z " /><path fill="rgb(0,0,0)" stroke="rgb(0,0,0)" stroke-width="1" opacity="0.4235294117647059" d="M 1.5 146 L 2 148.5 L 1 148.5 L 1.5 146 Z " /><path fill="rgb(0,0,0)" stroke="rgb(0,0,0)" stroke-width="1" opacity="0.4235294117647059" d="M 254.5 146 L 255 148.5 L 254 148.5 L 254.5 146 Z " /><path fill="rgb(0,0,0)" stroke="rgb(0,0,0)" stroke-width="1" opacity="0.4235294117647059" d="M 67.5 150 L 68.5 152 L 67.5 150 Z " /><path fill="rgb(0,0,0)" stroke="rgb(0,0,0)" stroke-width="1" opacity="0.4235294117647059" d="M 188.5 150 L 187.5 152 L 188.5 150 Z " /><path fill="rgb(0,0,0)" stroke="rgb(0,0,0)" stroke-width="1" opacity="0.4235294117647059" d="M 77.5 160 L 78.5 162 L 77.5 160 Z " /><path fill="rgb(0,0,0)" stroke="rgb(0,0,0)" stroke-width="1" opacity="0.4235294117647059" d="M 178.5 160 L 177.5 162 L 178.5 160 Z " /><path fill="rgb(0,0,0)" stroke="rgb(0,0,0)" stroke-width="1" opacity="0.4235294117647059" d="M 58.5 163 L 66.5 172 L 58.5 163 Z " /><path fill="rgb(0,0,0)" stroke="rgb(0,0,0)" stroke-width="1" opacity="0.4235294117647059" d="M 197.5 163 L 189.5 172 L 197.5 163 Z " /><path fill="rgb(0,0,0)" stroke="rgb(0,0,0)" stroke-width="1" opacity="0.4235294117647059" d="M 112.5 173 L 115 173.5 L 112.5 174 L 112.5 173 Z " /><path fill="rgb(0,0,0)" stroke="rgb(0,0,0)" stroke-width="1" opacity="0.4235294117647059" d="M 141.5 173 L 144 173.5 L 141.5 174 L 141.5 173 Z " /><path fill="rgb(0,0,0)" stroke="rgb(0,0,0)" stroke-width="1" opacity="0.4235294117647059" d="M 41.5 176 L 42 180.5 L 41 180.5 L 41.5 176 Z " /><path fill="rgb(0,0,0)" stroke="rgb(0,0,0)" stroke-width="1" opacity="0.4235294117647059" d="M 57.5 178 L 58.5 180 L 57.5 178 Z " /><path fill="rgb(0,0,0)" stroke="rgb(0,0,0)" stroke-width="1" opacity="0.4235294117647059" d="M 115.5 181 L 114.5 183 L 115.5 181 Z " /><path fill="rgb(0,0,0)" stroke="rgb(0,0,0)" stroke-width="1" opacity="0.4235294117647059" d="M 140.5 181 L 141.5 183 L 140.5 181 Z " /><path fill="rgb(0,0,0)" stroke="rgb(0,0,0)" stroke-width="1" opacity="0.4235294117647059" d="M 113.5 184 L 112.5 186 L 113.5 184 Z " /><path fill="rgb(0,0,0)" stroke="rgb(0,0,0)" stroke-width="1" opacity="0.4235294117647059" d="M 142.5 184 L 143.5 186 L 142.5 184 Z " /><path fill="rgb(0,0,0)" stroke="rgb(0,0,0)" stroke-width="1" opacity="0.4235294117647059" d="M 111.5 187 L 110.5 189 L 111.5 187 Z " /><path fill="rgb(0,0,0)" stroke="rgb(0,0,0)" stroke-width="1" opacity="0.4235294117647059" d="M 144.5 187 L 145.5 189 L 144.5 187 Z " /><path fill="rgb(0,0,0)" stroke="rgb(0,0,0)" stroke-width="1" opacity="0.4235294117647059" d="M 49.5 191 L 53.5 196 L 49.5 191 Z " /><path fill="rgb(0,0,0)" stroke="rgb(0,0,0)" stroke-width="1" opacity="0.4235294117647059" d="M 164.5 192 L 165 194.5 L 164 194.5 L 164.5 192 Z " /><path fill="rgb(0,0,0)" stroke="rgb(0,0,0)" stroke-width="1" opacity="0.4235294117647059" d="M 70.5 193 L 74.5 198 L 70.5 193 Z " /><path fill="rgb(0,0,0)" stroke="rgb(0,0,0)" stroke-width="1" opacity="0.4235294117647059" d="M 37.5 195 L 38.5 197 L 37.5 195 Z " /><path fill="rgb(0,0,0)" stroke="rgb(0,0,0)" stroke-width="1" opacity="0.4235294117647059" d="M 218.5 195 L 217.5 197 L 218.5 195 Z " /><path fill="rgb(0,0,0)" stroke="rgb(0,0,0)" stroke-width="1" opacity="0.4235294117647059" d="M 55.5 198 L 56.5 200 L 55.5 198 Z " /><path fill="rgb(0,0,0)" stroke="rgb(0,0,0)" stroke-width="1" opacity="0.4235294117647059" d="M 165.5 198 L 166 233.5 L 165 233.5 L 165.5 198 Z " /><path fill="rgb(0,0,0)" stroke="rgb(0,0,0)" stroke-width="1" opacity="0.4235294117647059" d="M 21.5 199 L 22.5 201 L 21.5 199 Z " /><path fill="rgb(0,0,0)" stroke="rgb(0,0,0)" stroke-width="1" opacity="0.4235294117647059" d="M 234.5 199 L 233.5 201 L 234.5 199 Z " /><path fill="rgb(0,0,0)" stroke="rgb(0,0,0)" stroke-width="1" opacity="0.4235294117647059" d="M 41.5 200 L 43.5 203 L 41.5 200 Z " /><path fill="rgb(0,0,0)" stroke="rgb(0,0,0)" stroke-width="1" opacity="0.4235294117647059" d="M 214.5 200 L 212.5 203 L 214.5 200 Z " /><path fill="rgb(0,0,0)" stroke="rgb(0,0,0)" stroke-width="1" opacity="0.4235294117647059" d="M 105.5 202 L 106 238.5 L 105 238.5 L 105.5 202 Z " /><path fill="rgb(0,0,0)" stroke="rgb(0,0,0)" stroke-width="1" opacity="0.4235294117647059" d="M 150.5 202 L 151 238.5 L 150 238.5 L 150.5 202 Z " /><path fill="rgb(0,0,0)" stroke="rgb(0,0,0)" stroke-width="1" opacity="0.4235294117647059" d="M 24.5 203 L 25.5 205 L 24.5 203 Z " /><path fill="rgb(0,0,0)" stroke="rgb(0,0,0)" stroke-width="1" opacity="0.4235294117647059" d="M 231.5 203 L 230.5 205 L 231.5 203 Z " /><path fill="rgb(0,0,0)" stroke="rgb(0,0,0)" stroke-width="1" opacity="0.4235294117647059" d="M 27.5 207 L 28.5 209 L 27.5 207 Z " /><path fill="rgb(0,0,0)" stroke="rgb(0,0,0)" stroke-width="1" opacity="0.4235294117647059" d="M 228.5 207 L 227.5 209 L 228.5 207 Z " /><path fill="rgb(0,0,0)" stroke="rgb(0,0,0)" stroke-width="1" opacity="0.4235294117647059" d="M 52.5 211 L 55.5 215 L 52.5 211 Z " /><path fill="rgb(0,0,0)" stroke="rgb(0,0,0)" stroke-width="1" opacity="0.4235294117647059" d="M 203.5 211 L 200.5 215 L 203.5 211 Z " /><path fill="rgb(0,0,0)" stroke="rgb(0,0,0)" stroke-width="1" opacity="0.4235294117647059" d="M 33.5 214 L 40.5 222 L 33.5 214 Z " /><path fill="rgb(0,0,0)" stroke="rgb(0,0,0)" stroke-width="1" opacity="0.4235294117647059" d="M 86.5 214 Q 91 213.5 91 214.5 L 91 233.5 L 90 233.5 L 90 215.5 L 86.5 215 L 86.5 214 Z " /><path fill="rgb(0,0,0)" stroke="rgb(0,0,0)" stroke-width="1" opacity="0.4235294117647059" d="M 222.5 214 L 215.5 222 L 222.5 214 Z " /><path fill="rgb(0,0,0)" stroke="rgb(0,0,0)" stroke-width="1" opacity="0.4235294117647059" d="M 59.5 217 L 60.5 219 L 59.5 217 Z " /><path fill="rgb(0,0,0)" stroke="rgb(0,0,0)" stroke-width="1" opacity="0.4235294117647059" d="M 196.5 217 L 195.5 219 L 196.5 217 Z " /><path fill="rgb(0,0,0)" stroke="rgb(0,0,0)" stroke-width="1" opacity="0.4235294117647059" d="M 47.5 227 L 48.5 229 L 47.5 227 Z " /><path fill="rgb(0,0,0)" stroke="rgb(0,0,0)" stroke-width="1" opacity="0.4235294117647059" d="M 208.5 227 L 207.5 229 L 208.5 227 Z " /><path fill="rgb(0,0,0)" stroke="rgb(0,0,0)" stroke-width="1" opacity="0.4235294117647059" d="M 51.5 230 L 52.5 232 L 51.5 230 Z " /><path fill="rgb(0,0,0)" stroke="rgb(0,0,0)" stroke-width="1" opacity="0.4235294117647059" d="M 204.5 230 L 203.5 232 L 204.5 230 Z " /><path fill="rgb(0,0,0)" stroke="rgb(0,0,0)" stroke-width="1" opacity="0.4235294117647059" d="M 60.5 236 L 61.5 238 L 60.5 236 Z " /><path fill="rgb(0,0,0)" stroke="rgb(0,0,0)" stroke-width="1" opacity="0.4235294117647059" d="M 195.5 236 L 194.5 238 L 195.5 236 Z " /><path fill="rgb(0,0,0)" stroke="rgb(0,0,0)" stroke-width="1" opacity="0.4235294117647059" d="M 116.5 240 L 124 240.5 L 116.5 241 L 116.5 240 Z " /><path fill="rgb(0,0,0)" stroke="rgb(0,0,0)" stroke-width="1" opacity="0.4235294117647059" d="M 132.5 240 L 140 240.5 L 132.5 241 L 132.5 240 Z " /><path fill="rgb(0,0,0)" stroke="rgb(0,0,0)" stroke-width="1" opacity="0.4235294117647059" d="M 152.5 253 L 155 253.5 L 152.5 254 L 152.5 253 Z " /><path fill="rgb(0,0,0)" stroke="rgb(0,0,0)" stroke-width="1" opacity="0.4235294117647059" d="M 146.5 254 L 149 254.5 L 146.5 255 L 146.5 254 Z " /><path fill="rgb(0,0,0)" stroke="rgb(0,0,0)" stroke-width="1" opacity="0.4235294117647059" d="M 114.5 255 L 121 255.5 L 114.5 256 L 114.5 255 Z " /><path fill="rgb(0,0,0)" stroke="rgb(0,0,0)" stroke-width="1" opacity="0.4235294117647059" d="M 135.5 255 L 142 255.5 L 135.5 256 L 135.5 255 Z " /><path fill="rgb(0,0,0)" stroke="rgb(0,0,0)" stroke-width="1" opacity="1" d="M 113.5 1 L 142.5 1 L 158.5 4 L 176.5 10 Q 204.4 22.1 223 43.5 L 239 65.5 L 250 90.5 L 255 114.5 L 255 142.5 L 250 166.5 L 246 177.5 Q 235.1 201.6 217.5 219 Q 199.6 236.6 174.5 247 L 162.5 251 L 142.5 255 L 113.5 255 L 93.5 251 L 74.5 244 Q 52.9 233.6 37 217.5 Q 16.5 197 6 166.5 L 1 142.5 L 1 114.5 L 6 90.5 L 17 65.5 Q 28.4 46.4 44.5 32 Q 59.6 18.6 79.5 10 L 97.5 4 L 113.5 1 Z M 115 15 L 114 16 L 103 17 L 87 22 Q 66 31 51 45 Q 23 70 15 115 L 15 143 L 19 162 Q 27 185 41 202 Q 60 224 90 235 L 91 235 L 91 214 Q 74 216 66 209 Q 58 203 54 195 Q 51 190 45 189 Q 41 184 42 175 L 50 175 L 59 180 Q 66 186 70 195 L 78 200 Q 86 201 91 199 L 92 198 L 92 193 L 95 186 L 76 177 L 66 170 L 54 157 L 49 147 L 45 131 Q 44 100 58 85 L 56 77 L 57 60 L 62 49 L 67 47 L 80 48 L 101 59 L 114 56 L 126 56 L 127 55 L 143 56 L 154 59 L 174 49 L 181 47 Q 190 46 194 49 L 198 57 L 200 67 L 200 77 L 198 85 L 206 98 L 211 117 L 211 131 L 209 141 Q 205 155 196 165 L 181 177 L 161 186 L 165 198 L 165 235 Q 187 228 203 214 Q 233 189 241 143 L 241 115 L 235 90 Q 226 66 210 50 Q 194 32 170 22 L 154 17 L 143 16 L 142 15 L 115 15 Z M 71 61 L 70 66 Q 69 77 72 84 L 72 89 Q 62 99 59 117 Q 57 141 68 153 Q 76 164 91 169 L 119 176 L 108 191 L 105 199 L 105 239 L 114 241 L 143 241 L 151 239 L 151 199 L 148 191 L 137 176 L 166 169 L 180 161 Q 194 151 197 131 L 197 117 L 195 108 Q 191 96 184 89 L 184 84 L 186 78 Q 187 67 185 61 L 176 63 L 159 73 L 152 73 L 142 70 L 131 70 L 130 69 L 115 70 L 104 73 L 98 73 L 83 64 L 71 61 Z " /></svg>