<svg width="256" height="256" version="1.1" xmlns="http://www.w3.org/2000/svg" desc="Created with imagetracer.js version 1.2.6" ><path fill="rgb(0,0,0)" stroke="rgb(0,0,0)" stroke-width="1" opacity="0.6078431372549019" d="M 23.5 34 L 234 34.5 L 23.5 35 L 23.5 34 Z " /><path fill="rgb(0,0,0)" stroke="rgb(0,0,0)" stroke-width="1" opacity="0.6078431372549019" d="M 237.5 36 L 238.5 38 L 237.5 36 Z " /><path fill="rgb(0,0,0)" stroke="rgb(0,0,0)" stroke-width="1" opacity="0.6078431372549019" d="M 240.5 41 L 241 46.5 L 240 46.5 L 240.5 41 Z " /><path fill="rgb(0,0,0)" stroke="rgb(0,0,0)" stroke-width="1" opacity="0.6078431372549019" d="M 238.5 50 L 237.5 52 L 238.5 50 Z " /><path fill="rgb(0,0,0)" stroke="rgb(0,0,0)" stroke-width="1" opacity="0.6078431372549019" d="M 24.5 53 L 234 53.5 L 24.5 54 L 24.5 53 Z " /><path fill="rgb(0,0,0)" stroke="rgb(0,0,0)" stroke-width="1" opacity="0.6078431372549019" d="M 23.5 118 L 234 118.5 L 23.5 119 L 23.5 118 Z " /><path fill="rgb(0,0,0)" stroke="rgb(0,0,0)" stroke-width="1" opacity="0.6078431372549019" d="M 237.5 120 L 238.5 122 L 237.5 120 Z " /><path fill="rgb(0,0,0)" stroke="rgb(0,0,0)" stroke-width="1" opacity="0.6078431372549019" d="M 240.5 125 L 241 130.5 L 240 130.5 L 240.5 125 Z " /><path fill="rgb(0,0,0)" stroke="rgb(0,0,0)" stroke-width="1" opacity="0.6078431372549019" d="M 17.5 133 L 19.5 136 L 17.5 133 Z " /><path fill="rgb(0,0,0)" stroke="rgb(0,0,0)" stroke-width="1" opacity="0.6078431372549019" d="M 238.5 134 L 237.5 136 L 238.5 134 Z " /><path fill="rgb(0,0,0)" stroke="rgb(0,0,0)" stroke-width="1" opacity="0.6078431372549019" d="M 23.5 137 L 234 137.5 L 23.5 138 L 23.5 137 Z " /><path fill="rgb(0,0,0)" stroke="rgb(0,0,0)" stroke-width="1" opacity="0.6078431372549019" d="M 23.5 202 L 234 202.5 L 23.5 203 L 23.5 202 Z " /><path fill="rgb(0,0,0)" stroke="rgb(0,0,0)" stroke-width="1" opacity="0.6078431372549019" d="M 237.5 204 L 238.5 206 L 237.5 204 Z " /><path fill="rgb(0,0,0)" stroke="rgb(0,0,0)" stroke-width="1" opacity="0.6078431372549019" d="M 240.5 209 L 241 214.5 L 240 214.5 L 240.5 209 Z " /><path fill="rgb(0,0,0)" stroke="rgb(0,0,0)" stroke-width="1" opacity="0.6078431372549019" d="M 17.5 217 L 19.5 220 L 17.5 217 Z " /><path fill="rgb(0,0,0)" stroke="rgb(0,0,0)" stroke-width="1" opacity="0.6078431372549019" d="M 238.5 218 L 237.5 220 L 238.5 218 Z " /><path fill="rgb(0,0,0)" stroke="rgb(0,0,0)" stroke-width="1" opacity="0.6078431372549019" d="M 23.5 221 L 234 221.5 L 23.5 222 L 23.5 221 Z " /><path fill="rgb(0,0,0)" stroke="rgb(0,0,0)" stroke-width="1" opacity="0.996078431372549" d="M 20.5 36 L 18.5 39 L 20.5 36 Z " /><path fill="rgb(0,0,0)" stroke="rgb(0,0,0)" stroke-width="1" opacity="0.996078431372549" d="M 16.5 42 L 17 45.5 L 16 45.5 L 16.5 42 Z " /><path fill="rgb(0,0,0)" stroke="rgb(0,0,0)" stroke-width="1" opacity="0.996078431372549" d="M 18.5 49 L 20.5 52 L 18.5 49 Z " /><path fill="rgb(0,0,0)" stroke="rgb(0,0,0)" stroke-width="1" opacity="0.996078431372549" d="M 20.5 120 L 18.5 123 L 20.5 120 Z " /><path fill="rgb(0,0,0)" stroke="rgb(0,0,0)" stroke-width="1" opacity="0.996078431372549" d="M 16.5 126 L 17 129.5 L 16 129.5 L 16.5 126 Z " /><path fill="rgb(0,0,0)" stroke="rgb(0,0,0)" stroke-width="1" opacity="0.996078431372549" d="M 20.5 204 L 18.5 207 L 20.5 204 Z " /><path fill="rgb(0,0,0)" stroke="rgb(0,0,0)" stroke-width="1" opacity="0.996078431372549" d="M 16.5 210 L 17 213.5 L 16 213.5 L 16.5 210 Z " /><path fill="rgb(0,0,0)" stroke="rgb(0,0,0)" stroke-width="1" opacity="1" d="M 23.5 35 L 233.5 35 L 238 37 L 240 40.5 L 240 47.5 L 238 51 L 233.5 53 L 23.5 53 L 18 48.5 L 17 40.5 L 23.5 35 Z " /><path fill="rgb(0,0,0)" stroke="rgb(0,0,0)" stroke-width="1" opacity="1" d="M 23.5 119 L 233.5 119 L 238 121 L 240 124.5 L 240 131.5 L 238 135 L 233.5 137 L 22.5 137 L 18 133.5 L 17 124.5 L 23.5 119 Z " /><path fill="rgb(0,0,0)" stroke="rgb(0,0,0)" stroke-width="1" opacity="1" d="M 23.5 203 L 233.5 203 L 238 205 L 240 208.5 L 240 215.5 L 238 219 L 233.5 221 L 22.5 221 L 18 217.5 L 17 208.5 L 23.5 203 Z " /><path fill="rgb(0,0,0)" stroke="rgb(0,0,0)" stroke-width="1" opacity="0" d="M 0 0 L 256 0 L 256 256 L 0 256 L 0 0 Z M 24 34 L 18 37 L 16 42 L 17 49 L 25 54 L 234 54 L 238 52 L 241 47 Q 242 40 239 38 L 234 34 L 24 34 Z M 24 118 L 18 121 L 16 126 L 17 134 L 24 138 L 234 138 L 238 136 L 241 131 Q 242 124 239 122 L 234 118 L 24 118 Z M 24 202 L 18 205 L 16 210 L 17 218 L 24 222 L 234 222 L 238 220 L 241 215 Q 242 208 239 206 L 234 202 L 24 202 Z " /></svg>