<svg width="256" height="256" version="1.1" xmlns="http://www.w3.org/2000/svg" desc="Created with imagetracer.js version 1.2.6" ><path fill="rgb(0,0,0)" stroke="rgb(0,0,0)" stroke-width="1" opacity="0.11372549019607843" d="M 99.5 2 L 106 2.5 L 99.5 3 L 99.5 2 Z " /><path fill="rgb(0,0,0)" stroke="rgb(0,0,0)" stroke-width="1" opacity="0.11372549019607843" d="M 84.5 3 L 91 3.5 L 84.5 4 L 84.5 3 Z " /><path fill="rgb(0,0,0)" stroke="rgb(0,0,0)" stroke-width="1" opacity="0.11372549019607843" d="M 69.5 4 L 76 4.5 L 69.5 5 L 69.5 4 Z " /><path fill="rgb(0,0,0)" stroke="rgb(0,0,0)" stroke-width="1" opacity="0.11372549019607843" d="M 54.5 5 L 61 5.5 L 54.5 6 L 54.5 5 Z " /><path fill="rgb(0,0,0)" stroke="rgb(0,0,0)" stroke-width="1" opacity="0.11372549019607843" d="M 39.5 6 L 46 6.5 L 39.5 7 L 39.5 6 Z " /><path fill="rgb(0,0,0)" stroke="rgb(0,0,0)" stroke-width="1" opacity="0.11372549019607843" d="M 123.5 6 L 252.5 136 L 123.5 6 Z " /><path fill="rgb(0,0,0)" stroke="rgb(0,0,0)" stroke-width="1" opacity="0.11372549019607843" d="M 26.5 7 L 31 7.5 L 26.5 8 L 26.5 7 Z " /><path fill="rgb(0,0,0)" stroke="rgb(0,0,0)" stroke-width="1" opacity="0.11372549019607843" d="M 17.5 11 L 13.5 16 L 17.5 11 Z " /><path fill="rgb(0,0,0)" stroke="rgb(0,0,0)" stroke-width="1" opacity="0.11372549019607843" d="M 12.5 17 L 11.5 19 L 12.5 17 Z " /><path fill="rgb(0,0,0)" stroke="rgb(0,0,0)" stroke-width="1" opacity="0.11372549019607843" d="M 107.5 20 L 111.5 20 L 238 146.5 L 237.5 148 L 111.5 21 Q 106.5 22 107.5 20 Z " /><path fill="rgb(0,0,0)" stroke="rgb(0,0,0)" stroke-width="1" opacity="0.11372549019607843" d="M 91.5 21 L 99 21.5 L 91.5 22 L 91.5 21 Z " /><path fill="rgb(0,0,0)" stroke="rgb(0,0,0)" stroke-width="1" opacity="0.11372549019607843" d="M 76.5 22 L 84 22.5 L 76.5 23 L 76.5 22 Z " /><path fill="rgb(0,0,0)" stroke="rgb(0,0,0)" stroke-width="1" opacity="0.11372549019607843" d="M 62.5 23 L 68 23.5 L 62.5 24 L 62.5 23 Z " /><path fill="rgb(0,0,0)" stroke="rgb(0,0,0)" stroke-width="1" opacity="0.11372549019607843" d="M 47.5 24 L 54 24.5 L 47.5 25 L 47.5 24 Z " /><path fill="rgb(0,0,0)" stroke="rgb(0,0,0)" stroke-width="1" opacity="0.11372549019607843" d="M 9.5 25 L 10 31.5 L 9 31.5 L 9.5 25 Z " /><path fill="rgb(0,0,0)" stroke="rgb(0,0,0)" stroke-width="1" opacity="0.11372549019607843" d="M 31.5 25 L 39 25.5 L 31.5 26 L 31.5 25 Z " /><path fill="rgb(0,0,0)" stroke="rgb(0,0,0)" stroke-width="1" opacity="0.11372549019607843" d="M 27.5 32 L 28 38.5 L 27 38.5 L 27.5 32 Z " /><path fill="rgb(0,0,0)" stroke="rgb(0,0,0)" stroke-width="1" opacity="0.11372549019607843" d="M 8.5 40 L 9 45.5 L 8 45.5 L 8.5 40 Z " /><path fill="rgb(0,0,0)" stroke="rgb(0,0,0)" stroke-width="1" opacity="0.11372549019607843" d="M 50.5 41 L 49.5 43 L 50.5 41 Z " /><path fill="rgb(0,0,0)" stroke="rgb(0,0,0)" stroke-width="1" opacity="0.11372549019607843" d="M 76.5 42 L 81.5 48 L 76.5 42 Z " /><path fill="rgb(0,0,0)" stroke="rgb(0,0,0)" stroke-width="1" opacity="0.11372549019607843" d="M 26.5 47 L 27 53.5 L 26 53.5 L 26.5 47 Z " /><path fill="rgb(0,0,0)" stroke="rgb(0,0,0)" stroke-width="1" opacity="0.11372549019607843" d="M 7.5 54 L 8 60.5 L 7 60.5 L 7.5 54 Z " /><path fill="rgb(0,0,0)" stroke="rgb(0,0,0)" stroke-width="1" opacity="0.11372549019607843" d="M 40.5 56 L 41 58.5 L 40 58.5 L 40.5 56 Z " /><path fill="rgb(0,0,0)" stroke="rgb(0,0,0)" stroke-width="1" opacity="0.11372549019607843" d="M 61.5 56 Q 66.3 55.3 67 58.5 L 64.5 57 Q 60.5 57.8 61.5 56 Z " /><path fill="rgb(0,0,0)" stroke="rgb(0,0,0)" stroke-width="1" opacity="0.11372549019607843" d="M 85.5 57 L 86 63.5 L 85 63.5 L 85.5 57 Z " /><path fill="rgb(0,0,0)" stroke="rgb(0,0,0)" stroke-width="1" opacity="0.11372549019607843" d="M 25.5 62 L 26 69.5 L 25 69.5 L 25.5 62 Z " /><path fill="rgb(0,0,0)" stroke="rgb(0,0,0)" stroke-width="1" opacity="0.11372549019607843" d="M 40.5 63 L 41 65.5 L 40 65.5 L 40.5 63 Z " /><path fill="rgb(0,0,0)" stroke="rgb(0,0,0)" stroke-width="1" opacity="0.11372549019607843" d="M 6.5 69 L 7 76.5 L 6 76.5 L 6.5 69 Z " /><path fill="rgb(0,0,0)" stroke="rgb(0,0,0)" stroke-width="1" opacity="0.11372549019607843" d="M 24.5 77 L 25 84.5 L 24 84.5 L 24.5 77 Z " /><path fill="rgb(0,0,0)" stroke="rgb(0,0,0)" stroke-width="1" opacity="0.11372549019607843" d="M 76.5 78 L 75.5 80 L 76.5 78 Z " /><path fill="rgb(0,0,0)" stroke="rgb(0,0,0)" stroke-width="1" opacity="0.11372549019607843" d="M 61.5 83 L 65 83.5 L 61.5 84 L 61.5 83 Z " /><path fill="rgb(0,0,0)" stroke="rgb(0,0,0)" stroke-width="1" opacity="0.11372549019607843" d="M 5.5 84 L 6 91.5 L 5 91.5 L 5.5 84 Z " /><path fill="rgb(0,0,0)" stroke="rgb(0,0,0)" stroke-width="1" opacity="0.11372549019607843" d="M 23.5 92 L 24 98.5 L 23 98.5 L 23.5 92 Z " /><path fill="rgb(0,0,0)" stroke="rgb(0,0,0)" stroke-width="1" opacity="0.11372549019607843" d="M 4.5 100 L 5 106.5 L 4 106.5 L 4.5 100 Z " /><path fill="rgb(0,0,0)" stroke="rgb(0,0,0)" stroke-width="1" opacity="0.11372549019607843" d="M 4.5 110 L 5 112.5 L 4 112.5 L 4.5 110 Z " /><path fill="rgb(0,0,0)" stroke="rgb(0,0,0)" stroke-width="1" opacity="0.11372549019607843" d="M 23.5 110 L 147.5 235 L 23.5 110 Z " /><path fill="rgb(0,0,0)" stroke="rgb(0,0,0)" stroke-width="1" opacity="0.11372549019607843" d="M 14.5 127 L 15.5 129 L 14.5 127 Z " /><path fill="rgb(0,0,0)" stroke="rgb(0,0,0)" stroke-width="1" opacity="0.11372549019607843" d="M 18.5 131 L 20.5 134 L 18.5 131 Z " /><path fill="rgb(0,0,0)" stroke="rgb(0,0,0)" stroke-width="1" opacity="0.11372549019607843" d="M 23.5 136 L 24.5 138 L 23.5 136 Z " /><path fill="rgb(0,0,0)" stroke="rgb(0,0,0)" stroke-width="1" opacity="0.11372549019607843" d="M 27.5 140 L 29.5 143 L 27.5 140 Z " /><path fill="rgb(0,0,0)" stroke="rgb(0,0,0)" stroke-width="1" opacity="0.11372549019607843" d="M 32.5 145 L 38.5 152 L 32.5 145 Z " /><path fill="rgb(0,0,0)" stroke="rgb(0,0,0)" stroke-width="1" opacity="0.11372549019607843" d="M 41.5 154 L 43.5 157 L 41.5 154 Z " /><path fill="rgb(0,0,0)" stroke="rgb(0,0,0)" stroke-width="1" opacity="0.11372549019607843" d="M 253.5 157 L 252.5 159 L 253.5 157 Z " /><path fill="rgb(0,0,0)" stroke="rgb(0,0,0)" stroke-width="1" opacity="0.11372549019607843" d="M 46.5 159 L 47.5 161 L 46.5 159 Z " /><path fill="rgb(0,0,0)" stroke="rgb(0,0,0)" stroke-width="1" opacity="0.11372549019607843" d="M 50.5 163 L 51.5 165 L 50.5 163 Z " /><path fill="rgb(0,0,0)" stroke="rgb(0,0,0)" stroke-width="1" opacity="0.11372549019607843" d="M 55.5 168 L 56.5 170 L 55.5 168 Z " /><path fill="rgb(0,0,0)" stroke="rgb(0,0,0)" stroke-width="1" opacity="0.11372549019607843" d="M 60.5 173 L 61.5 175 L 60.5 173 Z " /><path fill="rgb(0,0,0)" stroke="rgb(0,0,0)" stroke-width="1" opacity="0.11372549019607843" d="M 64.5 177 L 65.5 179 L 64.5 177 Z " /><path fill="rgb(0,0,0)" stroke="rgb(0,0,0)" stroke-width="1" opacity="0.11372549019607843" d="M 69.5 182 L 70.5 184 L 69.5 182 Z " /><path fill="rgb(0,0,0)" stroke="rgb(0,0,0)" stroke-width="1" opacity="0.11372549019607843" d="M 73.5 186 L 74.5 188 L 73.5 186 Z " /><path fill="rgb(0,0,0)" stroke="rgb(0,0,0)" stroke-width="1" opacity="0.11372549019607843" d="M 78.5 191 L 79.5 193 L 78.5 191 Z " /><path fill="rgb(0,0,0)" stroke="rgb(0,0,0)" stroke-width="1" opacity="0.11372549019607843" d="M 82.5 195 L 83.5 197 L 82.5 195 Z " /><path fill="rgb(0,0,0)" stroke="rgb(0,0,0)" stroke-width="1" opacity="0.11372549019607843" d="M 87.5 200 L 88.5 202 L 87.5 200 Z " /><path fill="rgb(0,0,0)" stroke="rgb(0,0,0)" stroke-width="1" opacity="0.11372549019607843" d="M 92.5 205 L 93.5 207 L 92.5 205 Z " /><path fill="rgb(0,0,0)" stroke="rgb(0,0,0)" stroke-width="1" opacity="0.11372549019607843" d="M 96.5 209 L 97.5 211 L 96.5 209 Z " /><path fill="rgb(0,0,0)" stroke="rgb(0,0,0)" stroke-width="1" opacity="0.11372549019607843" d="M 101.5 214 L 102.5 216 L 101.5 214 Z " /><path fill="rgb(0,0,0)" stroke="rgb(0,0,0)" stroke-width="1" opacity="0.11372549019607843" d="M 105.5 218 L 106.5 220 L 105.5 218 Z " /><path fill="rgb(0,0,0)" stroke="rgb(0,0,0)" stroke-width="1" opacity="0.11372549019607843" d="M 110.5 223 L 111.5 225 L 110.5 223 Z " /><path fill="rgb(0,0,0)" stroke="rgb(0,0,0)" stroke-width="1" opacity="0.11372549019607843" d="M 114.5 227 L 115.5 229 L 114.5 227 Z " /><path fill="rgb(0,0,0)" stroke="rgb(0,0,0)" stroke-width="1" opacity="0.11372549019607843" d="M 119.5 232 L 120.5 234 L 119.5 232 Z " /><path fill="rgb(0,0,0)" stroke="rgb(0,0,0)" stroke-width="1" opacity="0.11372549019607843" d="M 124.5 237 L 125.5 239 L 124.5 237 Z " /><path fill="rgb(0,0,0)" stroke="rgb(0,0,0)" stroke-width="1" opacity="0.11372549019607843" d="M 128.5 241 L 129.5 243 L 128.5 241 Z " /><path fill="rgb(0,0,0)" stroke="rgb(0,0,0)" stroke-width="1" opacity="0.11372549019607843" d="M 133.5 246 L 134.5 248 L 133.5 246 Z " /><path fill="rgb(0,0,0)" stroke="rgb(0,0,0)" stroke-width="1" opacity="0.11372549019607843" d="M 138.5 250 L 139.5 252 L 138.5 250 Z " /><path fill="rgb(0,0,0)" stroke="rgb(0,0,0)" stroke-width="1" opacity="0.11372549019607843" d="M 144.5 253 L 147 253.5 L 144.5 254 L 144.5 253 Z " /><path fill="rgb(0,0,0)" stroke="rgb(0,0,0)" stroke-width="1" opacity="0.11372549019607843" d="M 152.5 253 L 155 253.5 L 152.5 254 L 152.5 253 Z " /><path fill="rgb(0,0,0)" stroke="rgb(0,0,0)" stroke-width="1" opacity="0.8470588235294118" d="M 106.5 2 L 114 2.5 L 106.5 3 L 106.5 2 Z " /><path fill="rgb(0,0,0)" stroke="rgb(0,0,0)" stroke-width="1" opacity="0.8470588235294118" d="M 91.5 3 L 98 3.5 L 91.5 4 L 91.5 3 Z " /><path fill="rgb(0,0,0)" stroke="rgb(0,0,0)" stroke-width="1" opacity="0.8470588235294118" d="M 76.5 4 L 83 4.5 L 76.5 5 L 76.5 4 Z " /><path fill="rgb(0,0,0)" stroke="rgb(0,0,0)" stroke-width="1" opacity="0.8470588235294118" d="M 61.5 5 L 67 5.5 L 61.5 6 L 61.5 5 Z " /><path fill="rgb(0,0,0)" stroke="rgb(0,0,0)" stroke-width="1" opacity="0.8470588235294118" d="M 46.5 6 L 53 6.5 L 46.5 7 L 46.5 6 Z " /><path fill="rgb(0,0,0)" stroke="rgb(0,0,0)" stroke-width="1" opacity="0.8470588235294118" d="M 31.5 7 L 38 7.5 L 31.5 8 L 31.5 7 Z " /><path fill="rgb(0,0,0)" stroke="rgb(0,0,0)" stroke-width="1" opacity="0.8470588235294118" d="M 19.5 10 L 18.5 12 L 19.5 10 Z " /><path fill="rgb(0,0,0)" stroke="rgb(0,0,0)" stroke-width="1" opacity="0.8470588235294118" d="M 99.5 20 L 107 20.5 L 99.5 21 L 99.5 20 Z " /><path fill="rgb(0,0,0)" stroke="rgb(0,0,0)" stroke-width="1" opacity="0.8470588235294118" d="M 85.5 21 L 91 21.5 L 85.5 22 L 85.5 21 Z " /><path fill="rgb(0,0,0)" stroke="rgb(0,0,0)" stroke-width="1" opacity="0.8470588235294118" d="M 70.5 22 L 76 22.5 L 70.5 23 L 70.5 22 Z " /><path fill="rgb(0,0,0)" stroke="rgb(0,0,0)" stroke-width="1" opacity="0.8470588235294118" d="M 54.5 23 L 62 23.5 L 54.5 24 L 54.5 23 Z " /><path fill="rgb(0,0,0)" stroke="rgb(0,0,0)" stroke-width="1" opacity="0.8470588235294118" d="M 39.5 24 L 47 24.5 L 39.5 25 L 39.5 24 Z " /><path fill="rgb(0,0,0)" stroke="rgb(0,0,0)" stroke-width="1" opacity="0.8470588235294118" d="M 27.5 27 L 28 31.5 L 27 31.5 L 27.5 27 Z " /><path fill="rgb(0,0,0)" stroke="rgb(0,0,0)" stroke-width="1" opacity="0.8470588235294118" d="M 9.5 32 L 10 37.5 L 9 37.5 L 9.5 32 Z " /><path fill="rgb(0,0,0)" stroke="rgb(0,0,0)" stroke-width="1" opacity="0.8470588235294118" d="M 59.5 38 L 67 38.5 L 59.5 39 L 59.5 38 Z " /><path fill="rgb(0,0,0)" stroke="rgb(0,0,0)" stroke-width="1" opacity="0.8470588235294118" d="M 26.5 40 L 27 46.5 L 26 46.5 L 26.5 40 Z " /><path fill="rgb(0,0,0)" stroke="rgb(0,0,0)" stroke-width="1" opacity="0.8470588235294118" d="M 74.5 41 L 75.5 43 L 74.5 41 Z " /><path fill="rgb(0,0,0)" stroke="rgb(0,0,0)" stroke-width="1" opacity="0.8470588235294118" d="M 48.5 43 L 45.5 47 L 48.5 43 Z " /><path fill="rgb(0,0,0)" stroke="rgb(0,0,0)" stroke-width="1" opacity="0.8470588235294118" d="M 8.5 46 L 9 53.5 L 8 53.5 L 8.5 46 Z " /><path fill="rgb(0,0,0)" stroke="rgb(0,0,0)" stroke-width="1" opacity="0.8470588235294118" d="M 25.5 55 L 26 61.5 L 25 61.5 L 25.5 55 Z " /><path fill="rgb(0,0,0)" stroke="rgb(0,0,0)" stroke-width="1" opacity="0.8470588235294118" d="M 60.5 56 L 59 58.5 L 58.5 60 L 58 58.5 L 60.5 56 Z " /><path fill="rgb(0,0,0)" stroke="rgb(0,0,0)" stroke-width="1" opacity="0.8470588235294118" d="M 40.5 59 L 41 62.5 L 40 62.5 L 40.5 59 Z " /><path fill="rgb(0,0,0)" stroke="rgb(0,0,0)" stroke-width="1" opacity="0.8470588235294118" d="M 67.5 59 L 68 61.5 L 67 61.5 L 67.5 59 Z " /><path fill="rgb(0,0,0)" stroke="rgb(0,0,0)" stroke-width="1" opacity="0.8470588235294118" d="M 7.5 61 L 8 68.5 L 7 68.5 L 7.5 61 Z " /><path fill="rgb(0,0,0)" stroke="rgb(0,0,0)" stroke-width="1" opacity="0.8470588235294118" d="M 66.5 63 L 65.5 65 L 66.5 63 Z " /><path fill="rgb(0,0,0)" stroke="rgb(0,0,0)" stroke-width="1" opacity="0.8470588235294118" d="M 24.5 70 L 25 76.5 L 24 76.5 L 24.5 70 Z " /><path fill="rgb(0,0,0)" stroke="rgb(0,0,0)" stroke-width="1" opacity="0.8470588235294118" d="M 82.5 71 L 81.5 73 L 82.5 71 Z " /><path fill="rgb(0,0,0)" stroke="rgb(0,0,0)" stroke-width="1" opacity="0.8470588235294118" d="M 44.5 73 L 49.5 79 L 44.5 73 Z " /><path fill="rgb(0,0,0)" stroke="rgb(0,0,0)" stroke-width="1" opacity="0.8470588235294118" d="M 80.5 74 L 77.5 78 L 80.5 74 Z " /><path fill="rgb(0,0,0)" stroke="rgb(0,0,0)" stroke-width="1" opacity="0.8470588235294118" d="M 6.5 77 L 7 83.5 L 6 83.5 L 6.5 77 Z " /><path fill="rgb(0,0,0)" stroke="rgb(0,0,0)" stroke-width="1" opacity="0.8470588235294118" d="M 58.5 82 L 61 82.5 L 58.5 83 L 58.5 82 Z " /><path fill="rgb(0,0,0)" stroke="rgb(0,0,0)" stroke-width="1" opacity="0.8470588235294118" d="M 65.5 82 L 68 82.5 L 65.5 83 L 65.5 82 Z " /><path fill="rgb(0,0,0)" stroke="rgb(0,0,0)" stroke-width="1" opacity="0.8470588235294118" d="M 23.5 85 L 24 91.5 L 23 91.5 L 23.5 85 Z " /><path fill="rgb(0,0,0)" stroke="rgb(0,0,0)" stroke-width="1" opacity="0.8470588235294118" d="M 5.5 92 L 6 97.5 L 5 97.5 L 5.5 92 Z " /><path fill="rgb(0,0,0)" stroke="rgb(0,0,0)" stroke-width="1" opacity="0.8470588235294118" d="M 22.5 100 L 23 106.5 L 22 106.5 L 22.5 100 Z " /><path fill="rgb(0,0,0)" stroke="rgb(0,0,0)" stroke-width="1" opacity="0.8470588235294118" d="M 4.5 107 L 5 109.5 L 4 109.5 L 4.5 107 Z " /><path fill="rgb(0,0,0)" stroke="rgb(0,0,0)" stroke-width="1" opacity="0.8470588235294118" d="M 8.5 120 L 137.5 250 L 8.5 120 Z " /><path fill="rgb(0,0,0)" stroke="rgb(0,0,0)" stroke-width="1" opacity="0.8470588235294118" d="M 255.5 143 L 256 150.5 L 255 150.5 L 255.5 143 Z " /><path fill="rgb(0,0,0)" stroke="rgb(0,0,0)" stroke-width="1" opacity="0.8470588235294118" d="M 237.5 148 L 150.5 236 L 237.5 148 Z " /><path fill="rgb(0,0,0)" stroke="rgb(0,0,0)" stroke-width="1" opacity="0.8470588235294118" d="M 251.5 159 L 161.5 250 L 251.5 159 Z " /><path fill="rgb(0,0,0)" stroke="rgb(0,0,0)" stroke-width="1" opacity="0.8470588235294118" d="M 147.5 253 L 152 253.5 L 147.5 254 L 147.5 253 Z " /><path fill="rgb(0,0,0)" stroke="rgb(0,0,0)" stroke-width="1" opacity="0" d="M 0 0 L 256 0 L 256 140.5 L 255 140.5 L 253 135.5 L 123.5 6 L 115.5 2 L 99.5 2 L 98.5 3 L 84.5 3 L 83.5 4 L 26.5 7 Q 17.4 8.9 13 15.5 L 9 25.5 L 9 39.5 L 8 40.5 L 8 53.5 L 7 54.5 L 4 112.5 L 10 124 L 14 126.5 L 15.5 129 L 18 130.5 L 20.5 134 L 23 135.5 L 24.5 138 L 27 139.5 L 29.5 143 L 32 144.5 L 38.5 152 L 41 153.5 L 43.5 157 L 46 158.5 L 47.5 161 L 50 162.5 L 51.5 165 L 55 167.5 L 56.5 170 L 60 172.5 L 61.5 175 L 64 176.5 L 65.5 179 L 69 181.5 L 70.5 184 L 73 185.5 L 74.5 188 L 78 190.5 L 79.5 193 L 82 194.5 L 83.5 197 L 87 199.5 L 88.5 202 L 92 204.5 L 93.5 207 L 96 208.5 L 97.5 211 L 101 213.5 L 102.5 216 L 105 217.5 L 106.5 220 L 110 222.5 L 111.5 225 L 114 226.5 L 115.5 229 L 119 231.5 L 120.5 234 Q 123.1 233.3 122 236 L 124 236 L 124 237.5 L 128 240.5 L 129.5 243 L 133 245.5 L 134.5 248 Q 139.6 255.9 154.5 254 L 160.5 251 L 254 157.5 L 255.5 153 L 256 256 L 0 256 L 0 0 Z " /><path fill="rgb(0,0,0)" stroke="rgb(0,0,0)" stroke-width="1" opacity="0" d="M 99.5 21 L 111.5 21 L 237 146.5 L 237 148.5 L 150.5 235 L 148.5 235 L 23 109.5 L 25 70.5 L 26 69.5 L 26 54.5 L 27 53.5 L 27 39.5 L 28 38.5 L 28 27.5 L 29.5 26 L 67.5 24 L 68.5 23 L 83.5 23 L 84.5 22 L 98.5 22 L 99.5 21 Z M 58 38 L 51 41 Q 43 46 40 57 L 40 66 L 46 77 L 54 82 L 62 84 Q 71 84 76 80 Q 84 75 86 64 Q 86 53 82 48 L 72 39 Q 66 37 58 38 Z " /><path fill="rgb(0,0,0)" stroke="rgb(0,0,0)" stroke-width="1" opacity="0" d="M 60.5 57 Q 66 56 67 59.5 L 66 64 L 62.5 65 L 59 62.5 Q 58 58 60.5 57 Z " /><path fill="rgb(0,0,0)" stroke="rgb(0,0,0)" stroke-width="1" opacity="0.996078431372549" d="M 98.5 3 L 101 3.5 L 98.5 4 L 98.5 3 Z " /><path fill="rgb(0,0,0)" stroke="rgb(0,0,0)" stroke-width="1" opacity="0.996078431372549" d="M 83.5 4 L 87 4.5 L 83.5 5 L 83.5 4 Z " /><path fill="rgb(0,0,0)" stroke="rgb(0,0,0)" stroke-width="1" opacity="0.996078431372549" d="M 67.5 5 L 72 5.5 L 67.5 6 L 67.5 5 Z " /><path fill="rgb(0,0,0)" stroke="rgb(0,0,0)" stroke-width="1" opacity="0.996078431372549" d="M 118.5 5 L 121.5 7 L 123 6.5 L 122.5 8 L 125 9.5 L 126.5 12 L 129 13.5 L 128.5 15 L 118.5 5 Z " /><path fill="rgb(0,0,0)" stroke="rgb(0,0,0)" stroke-width="1" opacity="0.996078431372549" d="M 53.5 6 L 57 6.5 L 53.5 7 L 53.5 6 Z " /><path fill="rgb(0,0,0)" stroke="rgb(0,0,0)" stroke-width="1" opacity="0.996078431372549" d="M 38.5 7 L 41 7.5 L 38.5 8 L 38.5 7 Z " /><path fill="rgb(0,0,0)" stroke="rgb(0,0,0)" stroke-width="1" opacity="0.996078431372549" d="M 26.5 8 L 27.5 10 L 26.5 8 Z " /><path fill="rgb(0,0,0)" stroke="rgb(0,0,0)" stroke-width="1" opacity="0.996078431372549" d="M 22.5 9 L 23.5 11 L 22.5 9 Z " /><path fill="rgb(0,0,0)" stroke="rgb(0,0,0)" stroke-width="1" opacity="0.996078431372549" d="M 20.5 10 L 21.5 12 L 14 18.5 L 12.5 21 L 12.5 18 L 15 16.5 L 14.5 15 L 16 15.5 L 17.5 12 Q 18.8 14.3 20 11.5 L 20.5 10 Z " /><path fill="rgb(0,0,0)" stroke="rgb(0,0,0)" stroke-width="1" opacity="0.996078431372549" d="M 130.5 16 L 134 18.5 L 135.5 21 L 138 22.5 L 139.5 25 L 143 27.5 L 144.5 30 L 148 32.5 Q 147.3 34.8 149.5 34 L 152 37.5 L 130.5 16 Z " /><path fill="rgb(0,0,0)" stroke="rgb(0,0,0)" stroke-width="1" opacity="0.996078431372549" d="M 112 19 L 113.5 19 L 239 144.5 L 237.5 146 L 112 20.5 L 112 19 Z " /><path fill="rgb(0,0,0)" stroke="rgb(0,0,0)" stroke-width="1" opacity="0.996078431372549" d="M 96.5 20 L 99 20.5 L 96.5 21 L 96.5 20 Z " /><path fill="rgb(0,0,0)" stroke="rgb(0,0,0)" stroke-width="1" opacity="0.996078431372549" d="M 80.5 21 L 85 21.5 L 80.5 22 L 80.5 21 Z " /><path fill="rgb(0,0,0)" stroke="rgb(0,0,0)" stroke-width="1" opacity="0.996078431372549" d="M 65.5 22 L 70 22.5 L 65.5 23 L 65.5 22 Z " /><path fill="rgb(0,0,0)" stroke="rgb(0,0,0)" stroke-width="1" opacity="0.996078431372549" d="M 51.5 23 L 54 23.5 L 51.5 24 L 51.5 23 Z " /><path fill="rgb(0,0,0)" stroke="rgb(0,0,0)" stroke-width="1" opacity="0.996078431372549" d="M 10 24 L 12 24.5 L 10.5 27 L 10 24 Z " /><path fill="rgb(0,0,0)" stroke="rgb(0,0,0)" stroke-width="1" opacity="0.996078431372549" d="M 27.5 24 Q 29.8 23.3 29 25.5 Q 27.5 28.5 26 25.5 L 27.5 24 Z " /><path fill="rgb(0,0,0)" stroke="rgb(0,0,0)" stroke-width="1" opacity="0.996078431372549" d="M 36.5 24 L 39 24.5 L 36.5 25 L 36.5 24 Z " /><path fill="rgb(0,0,0)" stroke="rgb(0,0,0)" stroke-width="1" opacity="0.996078431372549" d="M 26.5 36 L 27 39.5 L 26 39.5 L 26.5 36 Z " /><path fill="rgb(0,0,0)" stroke="rgb(0,0,0)" stroke-width="1" opacity="0.996078431372549" d="M 9.5 38 L 10 42.5 L 9 42.5 L 9.5 38 Z " /><path fill="rgb(0,0,0)" stroke="rgb(0,0,0)" stroke-width="1" opacity="0.996078431372549" d="M 57.5 39 L 58.5 41 Q 57 38.5 55.5 42 Q 53.3 42.8 54 40.5 Q 55.8 42.1 57.5 39 Z " /><path fill="rgb(0,0,0)" stroke="rgb(0,0,0)" stroke-width="1" opacity="0.996078431372549" d="M 68.5 39 Q 70.3 42.1 72 40.5 L 70.5 42 Q 68.8 38.9 67 40.5 L 68.5 39 Z " /><path fill="rgb(0,0,0)" stroke="rgb(0,0,0)" stroke-width="1" opacity="0.996078431372549" d="M 153.5 39 L 157 41.5 Q 156.3 43.8 158.5 43 L 161 46.5 L 153.5 39 Z " /><path fill="rgb(0,0,0)" stroke="rgb(0,0,0)" stroke-width="1" opacity="0.996078431372549" d="M 73.5 41 L 75.5 44 L 79 46.5 L 77.5 46 L 72 42.5 L 73.5 41 Z " /><path fill="rgb(0,0,0)" stroke="rgb(0,0,0)" stroke-width="1" opacity="0.996078431372549" d="M 50.5 42 L 53 42.5 L 47 47.5 L 43.5 53 L 42 52.5 L 44 52 L 45 49.5 L 44.5 48 L 50 43.5 L 50.5 42 Z " /><path fill="rgb(0,0,0)" stroke="rgb(0,0,0)" stroke-width="1" opacity="0.996078431372549" d="M 80.5 47 L 80.5 50 Q 77.5 48.5 80.5 47 Z " /><path fill="rgb(0,0,0)" stroke="rgb(0,0,0)" stroke-width="1" opacity="0.996078431372549" d="M 162.5 48 L 166 50.5 L 167.5 53 L 170 54.5 L 171.5 57 L 175 59.5 L 176.5 62 L 180 64.5 Q 179.3 66.8 181.5 66 L 184 69.5 L 162.5 48 Z " /><path fill="rgb(0,0,0)" stroke="rgb(0,0,0)" stroke-width="1" opacity="0.996078431372549" d="M 25.5 52 L 26 54.5 L 25 54.5 L 25.5 52 Z " /><path fill="rgb(0,0,0)" stroke="rgb(0,0,0)" stroke-width="1" opacity="0.996078431372549" d="M 83.5 53 L 82.5 55 L 83.5 53 Z " /><path fill="rgb(0,0,0)" stroke="rgb(0,0,0)" stroke-width="1" opacity="0.996078431372549" d="M 8.5 54 L 9 56.5 L 8 56.5 L 8.5 54 Z " /><path fill="rgb(0,0,0)" stroke="rgb(0,0,0)" stroke-width="1" opacity="0.996078431372549" d="M 41.5 55 L 42.5 57 Q 39.7 57.7 41.5 55 Z " /><path fill="rgb(0,0,0)" stroke="rgb(0,0,0)" stroke-width="1" opacity="0.996078431372549" d="M 59.5 55 L 61 55.5 L 57.5 58 L 59.5 55 Z " /><path fill="rgb(0,0,0)" stroke="rgb(0,0,0)" stroke-width="1" opacity="0.996078431372549" d="M 65 55 L 69 57.5 L 67 58.5 Q 69.3 57.3 66.5 56 L 65 56.5 L 65 55 Z " /><path fill="rgb(0,0,0)" stroke="rgb(0,0,0)" stroke-width="1" opacity="0.996078431372549" d="M 67.5 62 L 69 63.5 L 65.5 67 L 64.5 65 Q 66.3 67.8 68 63.5 L 67.5 62 Z " /><path fill="rgb(0,0,0)" stroke="rgb(0,0,0)" stroke-width="1" opacity="0.996078431372549" d="M 57.5 63 L 59.5 66 L 57.5 63 Z " /><path fill="rgb(0,0,0)" stroke="rgb(0,0,0)" stroke-width="1" opacity="0.996078431372549" d="M 41 64 Q 44 63 43 66 Q 40 67 41 64 Z " /><path fill="rgb(0,0,0)" stroke="rgb(0,0,0)" stroke-width="1" opacity="0.996078431372549" d="M 24.5 67 L 25 69.5 L 24 69.5 L 24.5 67 Z " /><path fill="rgb(0,0,0)" stroke="rgb(0,0,0)" stroke-width="1" opacity="0.996078431372549" d="M 7.5 69 L 8 71.5 L 7 71.5 L 7.5 69 Z " /><path fill="rgb(0,0,0)" stroke="rgb(0,0,0)" stroke-width="1" opacity="0.996078431372549" d="M 81.5 69 L 82.5 71 L 81.5 69 Z " /><path fill="rgb(0,0,0)" stroke="rgb(0,0,0)" stroke-width="1" opacity="0.996078431372549" d="M 44.5 70 L 51.5 78 L 55 79.5 L 53 80.5 L 52.5 79 L 51 79.5 L 45.5 73 L 44 72.5 L 44.5 70 Z " /><path fill="rgb(0,0,0)" stroke="rgb(0,0,0)" stroke-width="1" opacity="0.996078431372549" d="M 80.5 71 L 80 72.5 L 75.5 79 L 73.5 79 L 70 80 L 69.5 82 L 69 80.5 L 78 74.5 L 80.5 71 Z " /><path fill="rgb(0,0,0)" stroke="rgb(0,0,0)" stroke-width="1" opacity="0.996078431372549" d="M 185.5 71 L 189 73.5 Q 188.3 75.8 190.5 75 L 193 78.5 L 185.5 71 Z " /><path fill="rgb(0,0,0)" stroke="rgb(0,0,0)" stroke-width="1" opacity="0.996078431372549" d="M 194.5 80 L 198 82.5 L 199.5 85 L 202 86.5 L 203.5 89 L 207 91.5 L 208.5 94 L 212 96.5 Q 211.3 98.8 213.5 98 L 216 101.5 L 194.5 80 Z " /><path fill="rgb(0,0,0)" stroke="rgb(0,0,0)" stroke-width="1" opacity="0.996078431372549" d="M 23.5 82 L 24 84.5 L 23 84.5 L 23.5 82 Z " /><path fill="rgb(0,0,0)" stroke="rgb(0,0,0)" stroke-width="1" opacity="0.996078431372549" d="M 61.5 82 L 65 82.5 L 61.5 83 L 61.5 82 Z " /><path fill="rgb(0,0,0)" stroke="rgb(0,0,0)" stroke-width="1" opacity="0.996078431372549" d="M 6.5 84 L 7 86.5 L 6 86.5 L 6.5 84 Z " /><path fill="rgb(0,0,0)" stroke="rgb(0,0,0)" stroke-width="1" opacity="0.996078431372549" d="M 22.5 96 L 23 99.5 L 22 99.5 L 22.5 96 Z " /><path fill="rgb(0,0,0)" stroke="rgb(0,0,0)" stroke-width="1" opacity="0.996078431372549" d="M 5.5 98 L 6 102.5 L 5 102.5 L 5.5 98 Z " /><path fill="rgb(0,0,0)" stroke="rgb(0,0,0)" stroke-width="1" opacity="0.996078431372549" d="M 217.5 103 L 221 105.5 Q 220.3 107.8 222.5 107 L 225 110.5 L 217.5 103 Z " /><path fill="rgb(0,0,0)" stroke="rgb(0,0,0)" stroke-width="1" opacity="0.996078431372549" d="M 21.5 110 L 147.5 237 L 145 235.5 L 143.5 233 L 140 230.5 Q 140.8 228.3 138.5 229 L 134.5 224 L 131 221.5 Q 131.8 219.3 129.5 220 L 125.5 215 L 122 212.5 Q 122.8 210.3 120.5 211 L 116.5 206 L 113 203.5 L 111.5 201 L 108 198.5 Q 108.8 196.3 106.5 197 L 102.5 192 L 99 189.5 Q 99.8 187.3 97.5 188 L 93.5 183 L 90 180.5 Q 90.8 178.3 88.5 179 L 84.5 174 L 81 171.5 L 79.5 169 L 76 166.5 Q 76.8 164.3 74.5 165 L 70.5 160 L 67 157.5 Q 67.8 155.3 65.5 156 L 61.5 151 L 58 148.5 Q 58.8 146.3 56.5 147 L 52.5 142 L 49 139.5 L 47.5 137 L 44 134.5 Q 44.8 132.3 42.5 133 L 38.5 128 L 35 125.5 Q 35.8 123.3 33.5 124 L 29.5 119 L 26 116.5 Q 26.8 114.3 24.5 115 L 21.5 110 Z " /><path fill="rgb(0,0,0)" stroke="rgb(0,0,0)" stroke-width="1" opacity="0.996078431372549" d="M 5 112 Q 8 111 7 114 Q 4 115 5 112 Z " /><path fill="rgb(0,0,0)" stroke="rgb(0,0,0)" stroke-width="1" opacity="0.996078431372549" d="M 226.5 112 L 230 114.5 L 231.5 117 L 234 118.5 L 235.5 121 L 239 123.5 L 240.5 126 L 244 128.5 Q 243.3 130.8 245.5 130 L 248 133.5 L 226.5 112 Z " /><path fill="rgb(0,0,0)" stroke="rgb(0,0,0)" stroke-width="1" opacity="0.996078431372549" d="M 7.5 115 L 10 119.5 L 138.5 248 L 141 249.5 L 139 250.5 L 139.5 249 L 7 118.5 L 7 116.5 L 7.5 115 Z " /><path fill="rgb(0,0,0)" stroke="rgb(0,0,0)" stroke-width="1" opacity="0.996078431372549" d="M 249.5 135 L 252 135.5 L 251.5 138 L 249.5 135 Z " /><path fill="rgb(0,0,0)" stroke="rgb(0,0,0)" stroke-width="1" opacity="0.996078431372549" d="M 238.5 149 L 239 150.5 L 235 153.5 L 232.5 157 Q 230.3 156.3 231 158.5 L 226 162.5 L 223.5 166 Q 221.3 165.3 222 167.5 L 217 171.5 L 214.5 175 L 212 176.5 L 210.5 179 L 208 180.5 L 205.5 184 L 203 185.5 L 200.5 189 Q 198.3 188.3 199 190.5 L 194 194.5 L 191.5 198 Q 189.3 197.3 190 199.5 L 185 203.5 L 182.5 207 L 180 208.5 L 178.5 211 L 176 212.5 L 173.5 216 L 171 217.5 L 168.5 221 Q 166.3 220.3 167 222.5 L 162 226.5 L 159.5 230 Q 157.3 229.3 158 231.5 L 153 235.5 Q 153.8 237.8 151.5 237 L 238.5 149 Z " /><path fill="rgb(0,0,0)" stroke="rgb(0,0,0)" stroke-width="1" opacity="0.996078431372549" d="M 253.5 153 L 253.5 156 L 252 156.5 L 252.5 158 L 159 249.5 L 159.5 251 Q 156.5 249.5 159.5 248 L 250 158.5 L 253.5 153 Z " /><path fill="rgb(0,0,0)" stroke="rgb(0,0,0)" stroke-width="1" opacity="0.996078431372549" d="M 142.5 250 L 141.5 252 L 142.5 250 Z " /><path fill="rgb(0,0,0)" stroke="rgb(0,0,0)" stroke-width="1" opacity="0.996078431372549" d="M 156.5 250 L 157.5 252 L 156.5 250 Z " /><path fill="rgb(0,0,0)" stroke="rgb(0,0,0)" stroke-width="1" opacity="0.996078431372549" d="M 145.5 251 L 144.5 253 L 145.5 251 Z " /><path fill="rgb(0,0,0)" stroke="rgb(0,0,0)" stroke-width="1" opacity="0.996078431372549" d="M 153.5 251 L 154.5 253 L 153.5 251 Z " /><path fill="rgb(0,0,0)" stroke="rgb(0,0,0)" stroke-width="1" opacity="1" d="M 101.5 3 L 110.5 3 L 111.5 4 L 115.5 3 L 123.5 7 L 251 134.5 L 254 140.5 L 253.5 142 L 255 142.5 L 255 153 L 253 153.5 L 253.5 155 L 252 154.5 L 253 156.5 L 250 157.5 L 250.5 159 L 252 158.5 L 160.5 250 Q 155.7 254.2 145.5 253 L 138.5 250 L 8 119.5 L 10 119.5 L 8.5 117 L 7 117.5 L 8 115.5 L 6 115.5 L 7 112 L 5 111.5 L 5 103.5 L 6 102.5 L 6 87.5 L 7 86.5 L 9 43.5 L 10 42.5 L 10 27.5 L 12 24.5 L 11 21 L 13 20.5 L 12.5 19 L 14 19.5 L 13 17.5 L 16.5 13 L 16 14.5 L 16.5 16 L 19.5 11 L 21.5 12 L 21.5 10 L 27.5 8 L 86.5 5 L 87.5 4 L 100.5 4 L 101.5 3 Z M 123 8 L 125 11 L 125 10 L 123 8 Z M 127 12 L 129 15 L 129 14 L 127 12 Z M 131 16 L 134 20 L 134 19 L 131 16 Z M 113 19 L 112 20 L 81 21 L 80 22 L 66 22 L 65 23 L 37 24 L 36 25 L 28 24 L 28 26 L 26 37 L 24 82 L 23 83 L 23 96 L 22 97 L 22 110 L 149 236 L 151 236 L 239 148 L 238 146 L 113 21 L 114 20 L 113 19 Z M 136 21 L 138 24 L 138 23 L 136 21 Z M 140 25 L 143 29 L 143 28 L 140 25 Z M 145 30 L 148 34 L 148 33 L 145 30 Z M 149 34 L 152 38 L 152 37 L 149 34 Z M 154 39 L 157 43 L 157 42 L 154 39 Z M 158 43 L 161 47 L 161 46 L 158 43 Z M 163 48 L 166 52 L 166 51 L 163 48 Z M 168 53 L 170 56 L 170 55 L 168 53 Z M 172 57 L 175 61 L 175 60 L 172 57 Z M 177 62 L 180 66 L 180 65 L 177 62 Z M 181 66 L 184 70 L 184 69 L 181 66 Z M 186 71 L 189 75 L 189 74 L 186 71 Z M 190 75 L 193 79 L 193 78 L 190 75 Z M 195 80 L 198 84 L 198 83 L 195 80 Z M 200 85 L 202 88 L 202 87 L 200 85 Z M 204 89 L 207 93 L 207 92 L 204 89 Z M 209 94 L 212 98 L 212 97 L 209 94 Z M 213 98 L 216 102 L 216 101 L 213 98 Z M 218 103 L 221 107 L 221 106 L 218 103 Z M 222 107 L 225 111 L 225 110 L 222 107 Z M 23 111 L 22 113 L 26 115 L 23 111 Z M 227 112 L 230 116 L 230 115 L 227 112 Z M 27 115 L 26 117 L 30 119 L 27 115 Z M 232 117 L 234 120 L 234 119 L 232 117 Z M 32 120 L 31 122 L 35 124 L 32 120 Z M 236 121 L 239 125 L 239 124 L 236 121 Z M 36 124 L 35 126 L 39 128 L 36 124 Z M 241 126 L 244 130 L 244 129 L 241 126 Z M 41 129 L 40 131 L 44 133 L 41 129 Z M 245 130 L 248 134 L 248 133 L 245 130 Z M 45 133 L 44 135 L 48 137 L 45 133 Z M 50 138 L 49 140 L 53 142 L 50 138 Z M 55 143 L 54 145 L 58 147 L 55 143 Z M 59 147 L 58 149 L 62 151 L 59 147 Z M 239 149 L 237 152 L 239 151 L 239 149 Z M 64 152 L 63 154 L 67 156 L 64 152 Z M 235 153 L 232 157 L 235 155 L 235 153 Z M 68 156 L 67 158 L 71 160 L 68 156 Z M 231 157 L 228 161 L 231 159 L 231 157 Z M 73 161 L 72 163 L 76 165 L 73 161 Z M 226 162 L 223 166 L 226 164 L 226 162 Z M 77 165 L 76 167 L 80 169 L 77 165 Z M 222 166 L 219 170 L 222 168 L 222 166 Z M 82 170 L 81 172 L 85 174 L 82 170 Z M 217 171 L 214 175 L 217 173 L 217 171 Z M 87 175 L 86 177 L 90 179 L 87 175 Z M 212 176 L 210 179 L 212 178 L 212 176 Z M 91 179 L 90 181 L 94 183 L 91 179 Z M 208 180 L 205 184 L 208 182 L 208 180 Z M 96 184 L 95 186 L 99 188 L 96 184 Z M 203 185 L 200 189 L 203 187 L 203 185 Z M 100 188 L 99 190 L 103 192 L 100 188 Z M 199 189 L 196 193 L 199 191 L 199 189 Z M 105 193 L 104 195 L 108 197 L 105 193 Z M 194 194 L 191 198 L 194 196 L 194 194 Z M 109 197 L 108 199 L 112 201 L 109 197 Z M 190 198 L 187 202 L 190 200 L 190 198 Z M 114 202 L 113 204 L 117 206 L 114 202 Z M 185 203 L 182 207 L 185 205 L 185 203 Z M 119 207 L 118 209 L 122 211 L 119 207 Z M 180 208 L 178 211 L 180 210 L 180 208 Z M 123 211 L 122 213 L 126 215 L 123 211 Z M 176 212 L 173 216 L 176 214 L 176 212 Z M 128 216 L 127 218 L 131 220 L 128 216 Z M 171 217 L 168 221 L 171 219 L 171 217 Z M 132 220 L 131 222 L 135 224 L 132 220 Z M 167 221 L 164 225 L 167 223 L 167 221 Z M 137 225 L 136 227 L 140 229 L 137 225 Z M 162 226 L 159 230 L 162 228 L 162 226 Z M 141 229 L 140 231 L 144 233 L 141 229 Z M 158 230 L 155 234 L 158 232 L 158 230 Z M 146 234 L 145 236 L 148 237 L 146 234 Z M 153 235 L 151 237 L 153 237 L 153 235 Z " /><path fill="rgb(0,0,0)" stroke="rgb(0,0,0)" stroke-width="1" opacity="1" d="M 58.5 39 L 67.5 39 L 69.5 41 L 71.5 41 L 73 41.5 L 72.5 43 L 74.5 42 L 80 46.5 Q 84.8 52.2 85 62.5 L 81 73.5 L 76.5 78 L 74.5 77 L 73.5 80 L 70.5 81 L 69 80.5 L 68.5 82 L 57 82 L 56.5 80 L 54.5 81 L 54.5 79 L 52.5 80 L 52.5 78 L 50.5 79 L 45 73.5 L 46 72.5 L 45.5 71 Q 44.3 73.3 43 70.5 L 44 68.5 L 42 68 L 43 64 L 41 63.5 L 41 57 L 43 56.5 L 42 53 L 44 52.5 L 43 50.5 L 47 48.5 L 46.5 47 L 45 47.5 L 50 43.5 L 48.5 46 L 52 43.5 Q 49.8 42.3 52.5 41 L 55.5 42 L 55.5 40 Q 57 42.5 58.5 39 Z M 76 44 L 77 46 L 78 46 L 76 44 Z M 60 55 L 60 57 Q 57 58 58 63 Q 59 67 65 66 Q 69 65 68 59 Q 65 57 67 55 L 64 56 L 62 56 L 60 55 Z M 80 72 L 78 75 L 80 74 L 80 72 Z " /></svg>