<svg width="215" height="216" version="1.1" xmlns="http://www.w3.org/2000/svg" desc="Created with imagetracer.js version 1.2.6" ><path fill="rgb(0,0,0)" stroke="rgb(0,0,0)" stroke-width="1" opacity="0.9294117647058824" d="M 51.5 7 L 101.5 7 L 102.5 8 L 110.5 8 L 122.5 13 L 132.5 21 L 194 82.5 Q 203.2 90.8 209 102.5 Q 212.4 110.1 211 122.5 Q 208.9 134.4 202 141.5 L 148.5 196 L 129.5 210 Q 121.6 213.6 108.5 212 Q 94.9 208.6 86.5 200 L 18 131.5 Q 10.2 124.3 7 112.5 L 7 104.5 L 6 103.5 L 6 50.5 L 7 49.5 L 7 39.5 L 9 32.5 Q 13.2 21.2 22.5 15 L 34.5 9 L 50.5 8 L 51.5 7 Z M 43 23 L 31 28 L 25 35 L 22 45 L 22 109 L 27 119 L 99 190 Q 103 195 112 197 L 123 196 L 138 185 L 187 136 Q 194 129 196 119 L 195 110 L 188 99 L 115 26 L 108 23 L 43 23 Z " /><path fill="rgb(0,0,0)" stroke="rgb(0,0,0)" stroke-width="1" opacity="0.9294117647058824" d="M 55.5 45 Q 64.7 44.8 68 50.5 Q 71.3 54.2 70 62.5 L 67 68 L 61.5 71 L 53.5 71 L 46 65.5 Q 43.3 62.2 44 55.5 L 50.5 47 L 55.5 45 Z " /><path fill="rgb(0,0,0)" stroke="rgb(0,0,0)" stroke-width="1" opacity="0" d="M 0 0 L 215 0 L 215 216 L 0 216 L 0 0 Z M 52 7 L 51 8 L 35 9 L 23 15 Q 13 21 9 33 L 7 40 L 7 50 L 6 51 L 6 104 L 7 105 L 7 113 Q 10 124 18 132 L 87 200 Q 95 209 109 212 Q 122 214 130 210 L 149 196 L 202 142 Q 209 134 211 123 Q 212 110 209 103 Q 203 91 194 83 L 133 21 L 123 13 L 111 8 L 103 8 L 102 7 L 52 7 Z " /><path fill="rgb(0,0,0)" stroke="rgb(0,0,0)" stroke-width="1" opacity="0" d="M 42.5 23 L 107.5 23 L 114.5 26 L 188 98.5 L 195 109.5 L 196 118.5 Q 193.8 129.3 187 135.5 L 137.5 185 L 122.5 196 L 111.5 197 Q 103.3 195.2 98.5 190 L 27 118.5 L 22 108.5 L 22 44.5 L 25 34.5 L 30.5 28 L 42.5 23 Z M 56 45 L 51 47 L 44 56 Q 43 62 46 66 L 54 71 L 62 71 L 67 68 L 70 63 Q 71 54 68 51 Q 65 45 56 45 Z " /></svg>